G75*
%MOIN*%
%OFA0B0*%
%FSLAX25Y25*%
%IPPOS*%
%LPD*%
%AMOC8*
5,1,8,0,0,1.08239X$1,22.5*
%
%ADD10C,0.05937*%
%ADD11R,0.06000X0.06000*%
%ADD12OC8,0.06000*%
%ADD13C,0.03200*%
%ADD14C,0.03569*%
%ADD15C,0.02400*%
%ADD16R,0.03962X0.03962*%
%ADD17C,0.01600*%
%ADD18C,0.03962*%
%ADD19C,0.01200*%
D10*
X0020031Y0095712D02*
X0025969Y0095712D01*
X0025969Y0105712D02*
X0020031Y0105712D01*
X0020031Y0115712D02*
X0025969Y0115712D01*
X0025969Y0125712D02*
X0020031Y0125712D01*
X0151625Y0218181D02*
X0151625Y0224119D01*
X0161625Y0224119D02*
X0161625Y0218181D01*
X0171625Y0218181D02*
X0171625Y0224119D01*
X0181625Y0224119D02*
X0181625Y0218181D01*
X0191625Y0218181D02*
X0191625Y0224119D01*
X0201625Y0224119D02*
X0201625Y0218181D01*
X0211625Y0218181D02*
X0211625Y0224119D01*
X0221625Y0224119D02*
X0221625Y0218181D01*
X0234325Y0218144D02*
X0234325Y0224081D01*
X0244325Y0224081D02*
X0244325Y0218144D01*
X0254325Y0218144D02*
X0254325Y0224081D01*
X0264325Y0224081D02*
X0264325Y0218144D01*
X0274325Y0218144D02*
X0274325Y0224081D01*
X0284325Y0224081D02*
X0284325Y0218144D01*
X0289656Y0177150D02*
X0295594Y0177150D01*
X0295594Y0167150D02*
X0289656Y0167150D01*
X0289656Y0157150D02*
X0295594Y0157150D01*
X0295594Y0147150D02*
X0289656Y0147150D01*
X0289656Y0137150D02*
X0295594Y0137150D01*
X0295594Y0127150D02*
X0289656Y0127150D01*
X0289656Y0117150D02*
X0295594Y0117150D01*
X0295594Y0107150D02*
X0289656Y0107150D01*
X0289881Y0093937D02*
X0295819Y0093937D01*
X0295819Y0083938D02*
X0289881Y0083938D01*
X0289881Y0073938D02*
X0295819Y0073938D01*
X0295819Y0063937D02*
X0289881Y0063937D01*
X0289881Y0053937D02*
X0295819Y0053937D01*
X0295819Y0043937D02*
X0289881Y0043937D01*
X0212500Y0025969D02*
X0212500Y0020031D01*
X0202500Y0020031D02*
X0202500Y0025969D01*
X0192500Y0025969D02*
X0192500Y0020031D01*
X0182500Y0020031D02*
X0182500Y0025969D01*
X0172500Y0025969D02*
X0172500Y0020031D01*
X0162500Y0020031D02*
X0162500Y0025969D01*
D11*
X0236850Y0017250D03*
D12*
X0246850Y0017250D03*
X0246850Y0027250D03*
X0236850Y0027250D03*
X0256850Y0027250D03*
X0256850Y0017250D03*
D13*
X0292625Y0107150D02*
X0309625Y0107150D01*
X0309625Y0177150D01*
X0309625Y0206150D01*
X0074625Y0206150D01*
X0085625Y0192150D02*
X0146625Y0192150D01*
X0146625Y0196150D01*
X0255625Y0196150D01*
X0292625Y0177150D02*
X0309625Y0177150D01*
X0192625Y0186150D02*
X0193625Y0124150D01*
X0145621Y0123743D01*
X0145625Y0072150D01*
X0145621Y0123743D02*
X0065625Y0123150D01*
X0074625Y0144150D02*
X0074625Y0183150D01*
X0085625Y0192150D02*
X0011625Y0192150D01*
X0011625Y0096150D01*
X0023000Y0095712D02*
X0023000Y0086150D01*
X0073625Y0086150D01*
X0151625Y0142150D02*
X0151625Y0169150D01*
X0151625Y0191150D01*
D14*
X0151625Y0191150D03*
X0161750Y0183662D03*
X0165625Y0169150D03*
X0171625Y0154150D03*
X0151625Y0142150D03*
X0171625Y0130150D03*
X0175625Y0119150D03*
X0158625Y0105150D03*
X0161625Y0096150D03*
X0179625Y0084150D03*
X0187625Y0078150D03*
X0205625Y0078150D03*
X0196625Y0095150D03*
X0211625Y0096150D03*
X0233625Y0119150D03*
X0238625Y0123150D03*
X0247625Y0123150D03*
X0247625Y0115150D03*
X0254625Y0111150D03*
X0259625Y0106150D03*
X0238625Y0132150D03*
X0243625Y0143150D03*
X0248625Y0151150D03*
X0257625Y0155150D03*
X0262625Y0162150D03*
X0253625Y0166150D03*
X0256625Y0171150D03*
X0265625Y0185150D03*
X0290625Y0185150D03*
X0300625Y0196150D03*
X0275625Y0143150D03*
X0211625Y0191150D03*
X0200625Y0191150D03*
X0202625Y0184150D03*
X0192625Y0186150D03*
X0181625Y0184150D03*
X0138475Y0178312D03*
X0122162Y0142338D03*
X0103625Y0116150D03*
X0111625Y0103150D03*
X0103625Y0099150D03*
X0122625Y0099150D03*
X0138625Y0073150D03*
X0145625Y0072150D03*
X0155625Y0053150D03*
X0121625Y0053150D03*
X0117625Y0067150D03*
X0088625Y0045150D03*
X0080625Y0039150D03*
X0087625Y0034150D03*
X0080625Y0027150D03*
X0065625Y0048150D03*
X0015625Y0058150D03*
X0011625Y0096150D03*
X0065625Y0123150D03*
X0074625Y0144150D03*
X0074625Y0183150D03*
X0085625Y0192150D03*
X0074625Y0206150D03*
X0075625Y0097150D03*
X0119625Y0029150D03*
X0132625Y0023150D03*
X0196625Y0063150D03*
X0223625Y0069150D03*
X0228625Y0066150D03*
X0243625Y0050150D03*
X0253625Y0060150D03*
X0260625Y0058150D03*
X0271625Y0057150D03*
X0276625Y0064150D03*
X0271625Y0076150D03*
X0276625Y0049150D03*
X0271625Y0041150D03*
X0265625Y0017150D03*
X0232625Y0038150D03*
X0220625Y0038150D03*
X0220625Y0028150D03*
X0224625Y0017150D03*
D15*
X0271625Y0041150D02*
X0271625Y0057150D01*
X0196625Y0063150D02*
X0196625Y0095150D01*
X0165625Y0169150D02*
X0151625Y0169150D01*
X0256625Y0171150D02*
X0255625Y0196150D01*
X0300625Y0196150D01*
X0080625Y0039150D02*
X0080625Y0027150D01*
D16*
X0073625Y0086150D03*
D17*
X0024605Y0013541D02*
X0022400Y0012950D01*
X0093425Y0012950D01*
X0093425Y0045950D01*
X0091957Y0045950D01*
X0092009Y0045823D01*
X0092009Y0044477D01*
X0091494Y0043233D01*
X0090542Y0042281D01*
X0089298Y0041766D01*
X0087952Y0041766D01*
X0086708Y0042281D01*
X0085756Y0043233D01*
X0085241Y0044477D01*
X0085241Y0045823D01*
X0085293Y0045950D01*
X0068211Y0045950D01*
X0067542Y0045281D01*
X0066298Y0044766D01*
X0064952Y0044766D01*
X0063708Y0045281D01*
X0062756Y0046233D01*
X0062241Y0047477D01*
X0062241Y0048823D01*
X0062756Y0050067D01*
X0063708Y0051019D01*
X0064952Y0051534D01*
X0066298Y0051534D01*
X0067542Y0051019D01*
X0068211Y0050350D01*
X0096536Y0050350D01*
X0097825Y0049061D01*
X0097825Y0015350D01*
X0190300Y0015350D01*
X0190300Y0015998D01*
X0189912Y0016159D01*
X0188627Y0017444D01*
X0187931Y0019123D01*
X0187931Y0026877D01*
X0188627Y0028556D01*
X0189912Y0029841D01*
X0191591Y0030537D01*
X0193409Y0030537D01*
X0195088Y0029841D01*
X0196373Y0028556D01*
X0197068Y0026877D01*
X0197068Y0019123D01*
X0196373Y0017444D01*
X0195088Y0016159D01*
X0194700Y0015998D01*
X0194700Y0012950D01*
X0232887Y0012950D01*
X0232250Y0013587D01*
X0232250Y0020913D01*
X0233187Y0021850D01*
X0240513Y0021850D01*
X0241450Y0020913D01*
X0241450Y0013587D01*
X0240813Y0012950D01*
X0244645Y0012950D01*
X0242250Y0015345D01*
X0242250Y0019155D01*
X0244945Y0021850D01*
X0248755Y0021850D01*
X0251450Y0019155D01*
X0251450Y0015345D01*
X0249055Y0012950D01*
X0254645Y0012950D01*
X0252250Y0015345D01*
X0252250Y0019155D01*
X0254945Y0021850D01*
X0258755Y0021850D01*
X0261450Y0019155D01*
X0261450Y0015345D01*
X0259055Y0012950D01*
X0300850Y0012950D01*
X0298645Y0013541D01*
X0296293Y0014898D01*
X0294373Y0016818D01*
X0293016Y0019170D01*
X0292313Y0021792D01*
X0292313Y0024508D01*
X0293016Y0027130D01*
X0294373Y0029482D01*
X0296293Y0031401D01*
X0298645Y0032759D01*
X0301267Y0033462D01*
X0303983Y0033462D01*
X0306605Y0032759D01*
X0308957Y0031401D01*
X0310825Y0029533D01*
X0310825Y0104183D01*
X0310262Y0103950D01*
X0298854Y0103950D01*
X0298181Y0103277D01*
X0296502Y0102581D01*
X0288748Y0102581D01*
X0287069Y0103277D01*
X0285784Y0104562D01*
X0285088Y0106241D01*
X0285088Y0108059D01*
X0285784Y0109738D01*
X0287069Y0111023D01*
X0288748Y0111718D01*
X0296502Y0111718D01*
X0298181Y0111023D01*
X0298854Y0110350D01*
X0306425Y0110350D01*
X0306425Y0173950D01*
X0298854Y0173950D01*
X0298181Y0173277D01*
X0296502Y0172581D01*
X0288748Y0172581D01*
X0287069Y0173277D01*
X0285784Y0174562D01*
X0285088Y0176241D01*
X0285088Y0178059D01*
X0285784Y0179738D01*
X0287069Y0181023D01*
X0288748Y0181718D01*
X0296502Y0181718D01*
X0298181Y0181023D01*
X0298854Y0180350D01*
X0306425Y0180350D01*
X0306425Y0202950D01*
X0075743Y0202950D01*
X0075298Y0202766D01*
X0073952Y0202766D01*
X0072708Y0203281D01*
X0071756Y0204233D01*
X0071241Y0205477D01*
X0071241Y0206823D01*
X0071756Y0208067D01*
X0072708Y0209019D01*
X0073952Y0209534D01*
X0075298Y0209534D01*
X0075743Y0209350D01*
X0310262Y0209350D01*
X0310825Y0209117D01*
X0310825Y0216767D01*
X0308957Y0214898D01*
X0306605Y0213541D01*
X0303983Y0212838D01*
X0301267Y0212838D01*
X0298645Y0213541D01*
X0296293Y0214898D01*
X0294373Y0216818D01*
X0293016Y0219170D01*
X0292313Y0221792D01*
X0292313Y0224508D01*
X0293016Y0227130D01*
X0294373Y0229482D01*
X0296293Y0231401D01*
X0298645Y0232759D01*
X0300104Y0233150D01*
X0023146Y0233150D01*
X0024605Y0232759D01*
X0026957Y0231401D01*
X0028876Y0229482D01*
X0030234Y0227130D01*
X0030937Y0224508D01*
X0030937Y0221792D01*
X0030234Y0219170D01*
X0028876Y0216818D01*
X0026957Y0214898D01*
X0024605Y0213541D01*
X0021983Y0212838D01*
X0019267Y0212838D01*
X0016645Y0213541D01*
X0014293Y0214898D01*
X0012373Y0216818D01*
X0011016Y0219170D01*
X0010425Y0221375D01*
X0010425Y0195117D01*
X0010988Y0195350D01*
X0084507Y0195350D01*
X0084952Y0195534D01*
X0086298Y0195534D01*
X0086743Y0195350D01*
X0143425Y0195350D01*
X0143425Y0196787D01*
X0143912Y0197963D01*
X0144812Y0198863D01*
X0145988Y0199350D01*
X0256262Y0199350D01*
X0257227Y0198950D01*
X0298639Y0198950D01*
X0298708Y0199019D01*
X0299952Y0199534D01*
X0301298Y0199534D01*
X0302542Y0199019D01*
X0303494Y0198067D01*
X0304009Y0196823D01*
X0304009Y0195477D01*
X0303494Y0194233D01*
X0302542Y0193281D01*
X0301298Y0192766D01*
X0299952Y0192766D01*
X0298708Y0193281D01*
X0298639Y0193350D01*
X0258539Y0193350D01*
X0259345Y0173216D01*
X0259494Y0173067D01*
X0260009Y0171823D01*
X0260009Y0170477D01*
X0259494Y0169233D01*
X0258743Y0168482D01*
X0285548Y0169169D01*
X0285784Y0169738D01*
X0287069Y0171023D01*
X0288748Y0171718D01*
X0296502Y0171718D01*
X0298181Y0171023D01*
X0299466Y0169738D01*
X0300162Y0168059D01*
X0300162Y0166241D01*
X0299466Y0164562D01*
X0298181Y0163277D01*
X0296502Y0162581D01*
X0288748Y0162581D01*
X0287069Y0163277D01*
X0285784Y0164562D01*
X0285697Y0164772D01*
X0265312Y0164249D01*
X0265494Y0164067D01*
X0266009Y0162823D01*
X0266009Y0161477D01*
X0265494Y0160233D01*
X0264611Y0159350D01*
X0285623Y0159350D01*
X0285784Y0159738D01*
X0287069Y0161023D01*
X0288748Y0161718D01*
X0296502Y0161718D01*
X0298181Y0161023D01*
X0299466Y0159738D01*
X0300162Y0158059D01*
X0300162Y0156241D01*
X0299466Y0154562D01*
X0298181Y0153277D01*
X0296502Y0152581D01*
X0288748Y0152581D01*
X0287069Y0153277D01*
X0285784Y0154562D01*
X0285623Y0154950D01*
X0261009Y0154950D01*
X0261009Y0154477D01*
X0260494Y0153233D01*
X0259542Y0152281D01*
X0258298Y0151766D01*
X0256952Y0151766D01*
X0255708Y0152281D01*
X0254756Y0153233D01*
X0254241Y0154477D01*
X0254241Y0155823D01*
X0254756Y0157067D01*
X0255425Y0157736D01*
X0255425Y0158061D01*
X0256714Y0159350D01*
X0260639Y0159350D01*
X0260039Y0159950D01*
X0252812Y0159950D01*
X0252099Y0159828D01*
X0251926Y0159950D01*
X0251714Y0159950D01*
X0251202Y0160462D01*
X0212488Y0187845D01*
X0212298Y0187766D01*
X0210952Y0187766D01*
X0209708Y0188281D01*
X0208756Y0189233D01*
X0208241Y0190477D01*
X0208241Y0191823D01*
X0208708Y0192950D01*
X0154542Y0192950D01*
X0155009Y0191823D01*
X0155009Y0190477D01*
X0154825Y0190032D01*
X0154825Y0171950D01*
X0163639Y0171950D01*
X0163708Y0172019D01*
X0164952Y0172534D01*
X0166298Y0172534D01*
X0167542Y0172019D01*
X0168494Y0171067D01*
X0169009Y0169823D01*
X0169009Y0168477D01*
X0168494Y0167233D01*
X0167542Y0166281D01*
X0166298Y0165766D01*
X0164952Y0165766D01*
X0163708Y0166281D01*
X0163639Y0166350D01*
X0154825Y0166350D01*
X0154825Y0143268D01*
X0155009Y0142823D01*
X0155009Y0141477D01*
X0154494Y0140233D01*
X0153542Y0139281D01*
X0152298Y0138766D01*
X0150952Y0138766D01*
X0149708Y0139281D01*
X0148756Y0140233D01*
X0148241Y0141477D01*
X0148241Y0142823D01*
X0148425Y0143268D01*
X0148425Y0189432D01*
X0147262Y0188950D01*
X0086743Y0188950D01*
X0086298Y0188766D01*
X0084952Y0188766D01*
X0084507Y0188950D01*
X0014825Y0188950D01*
X0014825Y0097268D01*
X0015009Y0096823D01*
X0015009Y0095477D01*
X0014494Y0094233D01*
X0013542Y0093281D01*
X0012298Y0092766D01*
X0010952Y0092766D01*
X0010425Y0092984D01*
X0010425Y0024925D01*
X0011016Y0027130D01*
X0012373Y0029482D01*
X0014293Y0031401D01*
X0016645Y0032759D01*
X0019267Y0033462D01*
X0021983Y0033462D01*
X0024605Y0032759D01*
X0026957Y0031401D01*
X0028876Y0029482D01*
X0030234Y0027130D01*
X0030937Y0024508D01*
X0030937Y0021792D01*
X0030234Y0019170D01*
X0028876Y0016818D01*
X0026957Y0014898D01*
X0024605Y0013541D01*
X0026343Y0014544D02*
X0093425Y0014544D01*
X0093425Y0016143D02*
X0028201Y0016143D01*
X0029409Y0017741D02*
X0093425Y0017741D01*
X0093425Y0019340D02*
X0030280Y0019340D01*
X0030708Y0020938D02*
X0093425Y0020938D01*
X0093425Y0022537D02*
X0030937Y0022537D01*
X0030937Y0024135D02*
X0079060Y0024135D01*
X0078708Y0024281D02*
X0079952Y0023766D01*
X0081298Y0023766D01*
X0082542Y0024281D01*
X0083494Y0025233D01*
X0084009Y0026477D01*
X0084009Y0027823D01*
X0083494Y0029067D01*
X0083425Y0029136D01*
X0083425Y0037164D01*
X0083494Y0037233D01*
X0084009Y0038477D01*
X0084009Y0039823D01*
X0083494Y0041067D01*
X0082542Y0042019D01*
X0081298Y0042534D01*
X0079952Y0042534D01*
X0078708Y0042019D01*
X0077756Y0041067D01*
X0077241Y0039823D01*
X0077241Y0038477D01*
X0077756Y0037233D01*
X0077825Y0037164D01*
X0077825Y0029136D01*
X0077756Y0029067D01*
X0077241Y0027823D01*
X0077241Y0026477D01*
X0077756Y0025233D01*
X0078708Y0024281D01*
X0077549Y0025734D02*
X0030608Y0025734D01*
X0030117Y0027332D02*
X0077241Y0027332D01*
X0077699Y0028931D02*
X0029195Y0028931D01*
X0027829Y0030529D02*
X0077825Y0030529D01*
X0077825Y0032128D02*
X0025699Y0032128D01*
X0015551Y0032128D02*
X0010425Y0032128D01*
X0010425Y0033726D02*
X0077825Y0033726D01*
X0077825Y0035325D02*
X0010425Y0035325D01*
X0010425Y0036923D02*
X0077825Y0036923D01*
X0077241Y0038522D02*
X0010425Y0038522D01*
X0010425Y0040120D02*
X0077364Y0040120D01*
X0078408Y0041719D02*
X0010425Y0041719D01*
X0010425Y0043317D02*
X0085721Y0043317D01*
X0085241Y0044916D02*
X0066660Y0044916D01*
X0064590Y0044916D02*
X0010425Y0044916D01*
X0010425Y0046514D02*
X0062639Y0046514D01*
X0062241Y0048113D02*
X0010425Y0048113D01*
X0010425Y0049711D02*
X0062609Y0049711D01*
X0064410Y0051310D02*
X0010425Y0051310D01*
X0010425Y0052908D02*
X0118241Y0052908D01*
X0118241Y0052477D02*
X0118756Y0051233D01*
X0119708Y0050281D01*
X0120952Y0049766D01*
X0122298Y0049766D01*
X0123542Y0050281D01*
X0124211Y0050950D01*
X0153039Y0050950D01*
X0153708Y0050281D01*
X0154952Y0049766D01*
X0156298Y0049766D01*
X0157542Y0050281D01*
X0158494Y0051233D01*
X0159009Y0052477D01*
X0159009Y0053823D01*
X0158494Y0055067D01*
X0157542Y0056019D01*
X0156298Y0056534D01*
X0154952Y0056534D01*
X0153708Y0056019D01*
X0153039Y0055350D01*
X0124211Y0055350D01*
X0123542Y0056019D01*
X0122298Y0056534D01*
X0120952Y0056534D01*
X0119708Y0056019D01*
X0118756Y0055067D01*
X0118241Y0053823D01*
X0118241Y0052477D01*
X0118724Y0051310D02*
X0066840Y0051310D01*
X0082842Y0041719D02*
X0093425Y0041719D01*
X0093425Y0043317D02*
X0091529Y0043317D01*
X0092009Y0044916D02*
X0093425Y0044916D01*
X0097825Y0044916D02*
X0178425Y0044916D01*
X0178425Y0046514D02*
X0097825Y0046514D01*
X0097825Y0048113D02*
X0178425Y0048113D01*
X0178425Y0049711D02*
X0097175Y0049711D01*
X0097825Y0043317D02*
X0178425Y0043317D01*
X0178425Y0041719D02*
X0097825Y0041719D01*
X0097825Y0040120D02*
X0178425Y0040120D01*
X0178425Y0038522D02*
X0097825Y0038522D01*
X0097825Y0036923D02*
X0178741Y0036923D01*
X0178425Y0037239D02*
X0179714Y0035950D01*
X0218039Y0035950D01*
X0218708Y0035281D01*
X0219952Y0034766D01*
X0221298Y0034766D01*
X0222425Y0035233D01*
X0222425Y0019736D01*
X0221756Y0019067D01*
X0221241Y0017823D01*
X0221241Y0016477D01*
X0221756Y0015233D01*
X0222708Y0014281D01*
X0223952Y0013766D01*
X0225298Y0013766D01*
X0226542Y0014281D01*
X0227494Y0015233D01*
X0228009Y0016477D01*
X0228009Y0017823D01*
X0227494Y0019067D01*
X0226825Y0019736D01*
X0226825Y0032839D01*
X0227714Y0031950D01*
X0254762Y0031950D01*
X0252050Y0029238D01*
X0252050Y0027450D01*
X0256650Y0027450D01*
X0256650Y0027050D01*
X0257050Y0027050D01*
X0257050Y0027450D01*
X0261650Y0027450D01*
X0261650Y0029238D01*
X0258938Y0031950D01*
X0263425Y0031950D01*
X0263425Y0019736D01*
X0262756Y0019067D01*
X0262241Y0017823D01*
X0262241Y0016477D01*
X0262756Y0015233D01*
X0263708Y0014281D01*
X0264952Y0013766D01*
X0266298Y0013766D01*
X0267542Y0014281D01*
X0268494Y0015233D01*
X0269009Y0016477D01*
X0269009Y0017823D01*
X0268494Y0019067D01*
X0267825Y0019736D01*
X0267825Y0035061D01*
X0266536Y0036350D01*
X0235542Y0036350D01*
X0236009Y0037477D01*
X0236009Y0038823D01*
X0235494Y0040067D01*
X0234825Y0040736D01*
X0234825Y0053950D01*
X0261536Y0053950D01*
X0262825Y0055239D01*
X0262825Y0055564D01*
X0263425Y0056164D01*
X0263425Y0052350D01*
X0246211Y0052350D01*
X0245542Y0053019D01*
X0244298Y0053534D01*
X0242952Y0053534D01*
X0241708Y0053019D01*
X0240756Y0052067D01*
X0240241Y0050823D01*
X0240241Y0049477D01*
X0240756Y0048233D01*
X0241708Y0047281D01*
X0242952Y0046766D01*
X0244298Y0046766D01*
X0245542Y0047281D01*
X0246211Y0047950D01*
X0266536Y0047950D01*
X0267825Y0049239D01*
X0267825Y0081933D01*
X0285825Y0081792D01*
X0286009Y0081350D01*
X0287294Y0080065D01*
X0288973Y0079369D01*
X0296727Y0079369D01*
X0298406Y0080065D01*
X0299691Y0081350D01*
X0300387Y0083029D01*
X0300387Y0084846D01*
X0299691Y0086525D01*
X0298406Y0087810D01*
X0296727Y0088506D01*
X0288973Y0088506D01*
X0287294Y0087810D01*
X0286009Y0086525D01*
X0285870Y0086192D01*
X0266543Y0086343D01*
X0266536Y0086350D01*
X0265634Y0086350D01*
X0264731Y0086357D01*
X0264724Y0086350D01*
X0264714Y0086350D01*
X0264075Y0085711D01*
X0263432Y0085078D01*
X0263432Y0085068D01*
X0263425Y0085061D01*
X0263425Y0084159D01*
X0263418Y0083256D01*
X0263425Y0083249D01*
X0263425Y0060136D01*
X0262542Y0061019D01*
X0261298Y0061534D01*
X0259952Y0061534D01*
X0258708Y0061019D01*
X0257756Y0060067D01*
X0257241Y0058823D01*
X0257241Y0058350D01*
X0256542Y0058350D01*
X0257009Y0059477D01*
X0257009Y0060823D01*
X0256494Y0062067D01*
X0255825Y0062736D01*
X0255825Y0101061D01*
X0254536Y0102350D01*
X0191714Y0102350D01*
X0190425Y0101061D01*
X0190425Y0080136D01*
X0189825Y0080736D01*
X0189825Y0108950D01*
X0252039Y0108950D01*
X0252708Y0108281D01*
X0253952Y0107766D01*
X0255298Y0107766D01*
X0256542Y0108281D01*
X0257225Y0108964D01*
X0257225Y0108536D01*
X0256756Y0108067D01*
X0256241Y0106823D01*
X0256241Y0105477D01*
X0256756Y0104233D01*
X0257708Y0103281D01*
X0258952Y0102766D01*
X0260298Y0102766D01*
X0261542Y0103281D01*
X0262494Y0104233D01*
X0263009Y0105477D01*
X0263009Y0106823D01*
X0262494Y0108067D01*
X0262025Y0108536D01*
X0262025Y0137627D01*
X0261660Y0138509D01*
X0260984Y0139185D01*
X0260102Y0139550D01*
X0205025Y0139550D01*
X0205025Y0181764D01*
X0205494Y0182233D01*
X0206009Y0183477D01*
X0206009Y0184823D01*
X0205494Y0186067D01*
X0204542Y0187019D01*
X0203298Y0187534D01*
X0201952Y0187534D01*
X0200708Y0187019D01*
X0199756Y0186067D01*
X0199241Y0184823D01*
X0199241Y0183477D01*
X0199756Y0182233D01*
X0200225Y0181764D01*
X0200225Y0136673D01*
X0200590Y0135791D01*
X0201266Y0135115D01*
X0202148Y0134750D01*
X0257225Y0134750D01*
X0257225Y0113336D01*
X0256542Y0114019D01*
X0255298Y0114534D01*
X0253952Y0114534D01*
X0252708Y0114019D01*
X0252039Y0113350D01*
X0250542Y0113350D01*
X0251009Y0114477D01*
X0251009Y0115823D01*
X0250494Y0117067D01*
X0249542Y0118019D01*
X0248298Y0118534D01*
X0246952Y0118534D01*
X0245708Y0118019D01*
X0245039Y0117350D01*
X0236542Y0117350D01*
X0237009Y0118477D01*
X0237009Y0119823D01*
X0236494Y0121067D01*
X0235542Y0122019D01*
X0234298Y0122534D01*
X0232952Y0122534D01*
X0231708Y0122019D01*
X0231039Y0121350D01*
X0195219Y0121350D01*
X0195461Y0121453D01*
X0195469Y0121462D01*
X0195481Y0121467D01*
X0195916Y0121916D01*
X0196353Y0122360D01*
X0196358Y0122372D01*
X0196367Y0122381D01*
X0196596Y0122962D01*
X0196830Y0123541D01*
X0196830Y0123553D01*
X0196835Y0123565D01*
X0196825Y0124190D01*
X0196819Y0124814D01*
X0196815Y0124825D01*
X0195843Y0185075D01*
X0196009Y0185477D01*
X0196009Y0186823D01*
X0195494Y0188067D01*
X0194542Y0189019D01*
X0193298Y0189534D01*
X0191952Y0189534D01*
X0190708Y0189019D01*
X0189756Y0188067D01*
X0189241Y0186823D01*
X0189241Y0185477D01*
X0189443Y0184988D01*
X0190373Y0127323D01*
X0145606Y0126943D01*
X0144984Y0126942D01*
X0144973Y0126938D01*
X0066723Y0126358D01*
X0066298Y0126534D01*
X0064952Y0126534D01*
X0063708Y0126019D01*
X0062756Y0125067D01*
X0062241Y0123823D01*
X0062241Y0122477D01*
X0062756Y0121233D01*
X0063708Y0120281D01*
X0064952Y0119766D01*
X0066298Y0119766D01*
X0066763Y0119958D01*
X0142421Y0120519D01*
X0142425Y0073268D01*
X0142241Y0072823D01*
X0142241Y0071477D01*
X0142756Y0070233D01*
X0143708Y0069281D01*
X0144952Y0068766D01*
X0146298Y0068766D01*
X0147542Y0069281D01*
X0148494Y0070233D01*
X0149009Y0071477D01*
X0149009Y0072823D01*
X0148825Y0073268D01*
X0148821Y0120570D01*
X0172634Y0120772D01*
X0172241Y0119823D01*
X0172241Y0118477D01*
X0172756Y0117233D01*
X0173708Y0116281D01*
X0174952Y0115766D01*
X0176298Y0115766D01*
X0177542Y0116281D01*
X0178211Y0116950D01*
X0178314Y0116950D01*
X0177425Y0116061D01*
X0177425Y0086736D01*
X0176825Y0086136D01*
X0176825Y0106061D01*
X0175536Y0107350D01*
X0161211Y0107350D01*
X0160542Y0108019D01*
X0159298Y0108534D01*
X0157952Y0108534D01*
X0156708Y0108019D01*
X0155756Y0107067D01*
X0155241Y0105823D01*
X0155241Y0104477D01*
X0155756Y0103233D01*
X0156708Y0102281D01*
X0157952Y0101766D01*
X0159298Y0101766D01*
X0160542Y0102281D01*
X0161211Y0102950D01*
X0172425Y0102950D01*
X0172425Y0072239D01*
X0173714Y0070950D01*
X0193536Y0070950D01*
X0193825Y0071239D01*
X0193825Y0065136D01*
X0193756Y0065067D01*
X0193241Y0063823D01*
X0193241Y0062477D01*
X0193756Y0061233D01*
X0194708Y0060281D01*
X0195952Y0059766D01*
X0197298Y0059766D01*
X0198542Y0060281D01*
X0199494Y0061233D01*
X0200009Y0062477D01*
X0200009Y0063823D01*
X0199494Y0065067D01*
X0199425Y0065136D01*
X0199425Y0093164D01*
X0199494Y0093233D01*
X0200009Y0094477D01*
X0200009Y0095823D01*
X0199494Y0097067D01*
X0198611Y0097950D01*
X0251425Y0097950D01*
X0251425Y0062736D01*
X0250756Y0062067D01*
X0250241Y0060823D01*
X0250241Y0059477D01*
X0250708Y0058350D01*
X0231714Y0058350D01*
X0230825Y0057461D01*
X0230825Y0063564D01*
X0231494Y0064233D01*
X0232009Y0065477D01*
X0232009Y0066823D01*
X0231494Y0068067D01*
X0230542Y0069019D01*
X0229298Y0069534D01*
X0227952Y0069534D01*
X0227009Y0069144D01*
X0227009Y0069823D01*
X0226494Y0071067D01*
X0225542Y0072019D01*
X0224298Y0072534D01*
X0222952Y0072534D01*
X0221708Y0072019D01*
X0220756Y0071067D01*
X0220241Y0069823D01*
X0220241Y0068477D01*
X0220756Y0067233D01*
X0221552Y0066437D01*
X0222425Y0048098D01*
X0222425Y0041067D01*
X0221298Y0041534D01*
X0219952Y0041534D01*
X0218708Y0041019D01*
X0218039Y0040350D01*
X0182825Y0040350D01*
X0182825Y0061061D01*
X0181536Y0062350D01*
X0113825Y0062350D01*
X0113825Y0100564D01*
X0114494Y0101233D01*
X0115009Y0102477D01*
X0115009Y0103823D01*
X0114494Y0105067D01*
X0113542Y0106019D01*
X0112298Y0106534D01*
X0110952Y0106534D01*
X0109708Y0106019D01*
X0108756Y0105067D01*
X0108241Y0103823D01*
X0108241Y0102477D01*
X0108756Y0101233D01*
X0109425Y0100564D01*
X0109425Y0059239D01*
X0110714Y0057950D01*
X0178425Y0057950D01*
X0178425Y0037239D01*
X0182825Y0041719D02*
X0222425Y0041719D01*
X0222425Y0043317D02*
X0182825Y0043317D01*
X0182825Y0044916D02*
X0222425Y0044916D01*
X0222425Y0046514D02*
X0182825Y0046514D01*
X0182825Y0048113D02*
X0222424Y0048113D01*
X0222348Y0049711D02*
X0182825Y0049711D01*
X0182825Y0051310D02*
X0222272Y0051310D01*
X0222196Y0052908D02*
X0182825Y0052908D01*
X0182825Y0054507D02*
X0222120Y0054507D01*
X0222044Y0056105D02*
X0182825Y0056105D01*
X0182825Y0057704D02*
X0221968Y0057704D01*
X0221891Y0059302D02*
X0182825Y0059302D01*
X0182825Y0060901D02*
X0194088Y0060901D01*
X0193241Y0062499D02*
X0113825Y0062499D01*
X0113825Y0064098D02*
X0193355Y0064098D01*
X0193825Y0065696D02*
X0113825Y0065696D01*
X0113825Y0067295D02*
X0193825Y0067295D01*
X0193825Y0068893D02*
X0146606Y0068893D01*
X0144644Y0068893D02*
X0113825Y0068893D01*
X0113825Y0070492D02*
X0142649Y0070492D01*
X0142241Y0072090D02*
X0113825Y0072090D01*
X0113825Y0073689D02*
X0142425Y0073689D01*
X0142425Y0075287D02*
X0113825Y0075287D01*
X0113825Y0076886D02*
X0142425Y0076886D01*
X0142424Y0078484D02*
X0113825Y0078484D01*
X0113825Y0080083D02*
X0142424Y0080083D01*
X0142424Y0081682D02*
X0113825Y0081682D01*
X0113825Y0083280D02*
X0142424Y0083280D01*
X0142424Y0084879D02*
X0113825Y0084879D01*
X0113825Y0086477D02*
X0142424Y0086477D01*
X0142424Y0088076D02*
X0113825Y0088076D01*
X0113825Y0089674D02*
X0142423Y0089674D01*
X0142423Y0091273D02*
X0113825Y0091273D01*
X0113825Y0092871D02*
X0142423Y0092871D01*
X0142423Y0094470D02*
X0113825Y0094470D01*
X0113825Y0096068D02*
X0121222Y0096068D01*
X0120708Y0096281D02*
X0121952Y0095766D01*
X0123298Y0095766D01*
X0124542Y0096281D01*
X0125494Y0097233D01*
X0126009Y0098477D01*
X0126009Y0099823D01*
X0125494Y0101067D01*
X0124542Y0102019D01*
X0123298Y0102534D01*
X0121952Y0102534D01*
X0120708Y0102019D01*
X0119756Y0101067D01*
X0119241Y0099823D01*
X0119241Y0098477D01*
X0119756Y0097233D01*
X0120708Y0096281D01*
X0119576Y0097667D02*
X0113825Y0097667D01*
X0113825Y0099265D02*
X0119241Y0099265D01*
X0119672Y0100864D02*
X0114125Y0100864D01*
X0115003Y0102462D02*
X0121778Y0102462D01*
X0123472Y0102462D02*
X0142422Y0102462D01*
X0142423Y0100864D02*
X0125578Y0100864D01*
X0126009Y0099265D02*
X0142423Y0099265D01*
X0142423Y0097667D02*
X0125674Y0097667D01*
X0124028Y0096068D02*
X0142423Y0096068D01*
X0148823Y0096068D02*
X0172425Y0096068D01*
X0172425Y0094470D02*
X0148823Y0094470D01*
X0148823Y0092871D02*
X0172425Y0092871D01*
X0172425Y0091273D02*
X0148823Y0091273D01*
X0148823Y0089674D02*
X0172425Y0089674D01*
X0172425Y0088076D02*
X0148824Y0088076D01*
X0148824Y0086477D02*
X0172425Y0086477D01*
X0172425Y0084879D02*
X0148824Y0084879D01*
X0148824Y0083280D02*
X0172425Y0083280D01*
X0172425Y0081682D02*
X0148824Y0081682D01*
X0148824Y0080083D02*
X0172425Y0080083D01*
X0172425Y0078484D02*
X0148824Y0078484D01*
X0148825Y0076886D02*
X0172425Y0076886D01*
X0172425Y0075287D02*
X0148825Y0075287D01*
X0148825Y0073689D02*
X0172425Y0073689D01*
X0172573Y0072090D02*
X0149009Y0072090D01*
X0148601Y0070492D02*
X0193825Y0070492D01*
X0199425Y0070492D02*
X0220518Y0070492D01*
X0220241Y0068893D02*
X0199425Y0068893D01*
X0199425Y0067295D02*
X0220730Y0067295D01*
X0221587Y0065696D02*
X0199425Y0065696D01*
X0199895Y0064098D02*
X0221663Y0064098D01*
X0221739Y0062499D02*
X0200009Y0062499D01*
X0199162Y0060901D02*
X0221815Y0060901D01*
X0230825Y0060901D02*
X0250273Y0060901D01*
X0250313Y0059302D02*
X0230825Y0059302D01*
X0230825Y0057704D02*
X0231068Y0057704D01*
X0230825Y0062499D02*
X0251188Y0062499D01*
X0251425Y0064098D02*
X0231359Y0064098D01*
X0232009Y0065696D02*
X0251425Y0065696D01*
X0251425Y0067295D02*
X0231814Y0067295D01*
X0230668Y0068893D02*
X0251425Y0068893D01*
X0251425Y0070492D02*
X0226732Y0070492D01*
X0225370Y0072090D02*
X0251425Y0072090D01*
X0251425Y0073689D02*
X0199425Y0073689D01*
X0199425Y0075287D02*
X0251425Y0075287D01*
X0251425Y0076886D02*
X0199425Y0076886D01*
X0199425Y0078484D02*
X0251425Y0078484D01*
X0251425Y0080083D02*
X0199425Y0080083D01*
X0199425Y0081682D02*
X0251425Y0081682D01*
X0251425Y0083280D02*
X0199425Y0083280D01*
X0199425Y0084879D02*
X0251425Y0084879D01*
X0251425Y0086477D02*
X0199425Y0086477D01*
X0199425Y0088076D02*
X0251425Y0088076D01*
X0251425Y0089674D02*
X0199425Y0089674D01*
X0199425Y0091273D02*
X0251425Y0091273D01*
X0251425Y0092871D02*
X0199425Y0092871D01*
X0200006Y0094470D02*
X0251425Y0094470D01*
X0251425Y0096068D02*
X0199908Y0096068D01*
X0198894Y0097667D02*
X0251425Y0097667D01*
X0255825Y0097667D02*
X0286902Y0097667D01*
X0286775Y0097575D02*
X0287382Y0098016D01*
X0288051Y0098357D01*
X0288765Y0098589D01*
X0289506Y0098706D01*
X0292666Y0098706D01*
X0292666Y0094122D01*
X0293034Y0094122D01*
X0293034Y0098706D01*
X0296194Y0098706D01*
X0296935Y0098589D01*
X0297649Y0098357D01*
X0298318Y0098016D01*
X0298925Y0097575D01*
X0299456Y0097044D01*
X0299897Y0096437D01*
X0300238Y0095768D01*
X0300470Y0095054D01*
X0300587Y0094313D01*
X0300587Y0094122D01*
X0293034Y0094122D01*
X0293034Y0093753D01*
X0293034Y0089169D01*
X0296194Y0089169D01*
X0296935Y0089286D01*
X0297649Y0089518D01*
X0298318Y0089859D01*
X0298925Y0090300D01*
X0299456Y0090831D01*
X0299897Y0091438D01*
X0300238Y0092107D01*
X0300470Y0092821D01*
X0300587Y0093562D01*
X0300587Y0093753D01*
X0293034Y0093753D01*
X0292666Y0093753D01*
X0292666Y0089169D01*
X0289506Y0089169D01*
X0288765Y0089286D01*
X0288051Y0089518D01*
X0287382Y0089859D01*
X0286775Y0090300D01*
X0286244Y0090831D01*
X0285803Y0091438D01*
X0285462Y0092107D01*
X0285230Y0092821D01*
X0285113Y0093562D01*
X0285113Y0093753D01*
X0292666Y0093753D01*
X0292666Y0094122D01*
X0285113Y0094122D01*
X0285113Y0094313D01*
X0285230Y0095054D01*
X0285462Y0095768D01*
X0285803Y0096437D01*
X0286244Y0097044D01*
X0286775Y0097575D01*
X0285615Y0096068D02*
X0255825Y0096068D01*
X0255825Y0094470D02*
X0285138Y0094470D01*
X0285222Y0092871D02*
X0255825Y0092871D01*
X0255825Y0091273D02*
X0285923Y0091273D01*
X0287745Y0089674D02*
X0255825Y0089674D01*
X0255825Y0088076D02*
X0287934Y0088076D01*
X0285989Y0086477D02*
X0255825Y0086477D01*
X0255825Y0084879D02*
X0263425Y0084879D01*
X0263418Y0083280D02*
X0255825Y0083280D01*
X0255825Y0081682D02*
X0263425Y0081682D01*
X0263425Y0080083D02*
X0255825Y0080083D01*
X0255825Y0078484D02*
X0263425Y0078484D01*
X0263425Y0076886D02*
X0255825Y0076886D01*
X0255825Y0075287D02*
X0263425Y0075287D01*
X0263425Y0073689D02*
X0255825Y0073689D01*
X0255825Y0072090D02*
X0263425Y0072090D01*
X0263425Y0070492D02*
X0255825Y0070492D01*
X0255825Y0068893D02*
X0263425Y0068893D01*
X0263425Y0067295D02*
X0255825Y0067295D01*
X0255825Y0065696D02*
X0263425Y0065696D01*
X0263425Y0064098D02*
X0255825Y0064098D01*
X0256062Y0062499D02*
X0263425Y0062499D01*
X0263425Y0060901D02*
X0262660Y0060901D01*
X0258590Y0060901D02*
X0256977Y0060901D01*
X0256937Y0059302D02*
X0257439Y0059302D01*
X0262093Y0054507D02*
X0263425Y0054507D01*
X0263425Y0056105D02*
X0263366Y0056105D01*
X0263425Y0052908D02*
X0245653Y0052908D01*
X0241597Y0052908D02*
X0234825Y0052908D01*
X0234825Y0051310D02*
X0240442Y0051310D01*
X0240241Y0049711D02*
X0234825Y0049711D01*
X0234825Y0048113D02*
X0240876Y0048113D01*
X0234825Y0046514D02*
X0268825Y0046514D01*
X0268825Y0044916D02*
X0234825Y0044916D01*
X0234825Y0043317D02*
X0268825Y0043317D01*
X0268825Y0043136D02*
X0268756Y0043067D01*
X0268241Y0041823D01*
X0268241Y0040477D01*
X0268756Y0039233D01*
X0269708Y0038281D01*
X0270952Y0037766D01*
X0272298Y0037766D01*
X0273542Y0038281D01*
X0274494Y0039233D01*
X0275009Y0040477D01*
X0275009Y0041823D01*
X0274494Y0043067D01*
X0274425Y0043136D01*
X0274425Y0046564D01*
X0274708Y0046281D01*
X0275952Y0045766D01*
X0277298Y0045766D01*
X0278542Y0046281D01*
X0279494Y0047233D01*
X0280009Y0048477D01*
X0280009Y0049823D01*
X0279494Y0051067D01*
X0278825Y0051736D01*
X0278825Y0061564D01*
X0279494Y0062233D01*
X0280009Y0063477D01*
X0280009Y0064823D01*
X0279494Y0066067D01*
X0278542Y0067019D01*
X0277298Y0067534D01*
X0275952Y0067534D01*
X0274708Y0067019D01*
X0273756Y0066067D01*
X0273241Y0064823D01*
X0273241Y0063477D01*
X0273756Y0062233D01*
X0274425Y0061564D01*
X0274425Y0059136D01*
X0273542Y0060019D01*
X0272298Y0060534D01*
X0270952Y0060534D01*
X0269708Y0060019D01*
X0268756Y0059067D01*
X0268241Y0057823D01*
X0268241Y0056477D01*
X0268756Y0055233D01*
X0268825Y0055164D01*
X0268825Y0043136D01*
X0268241Y0041719D02*
X0234825Y0041719D01*
X0235441Y0040120D02*
X0268388Y0040120D01*
X0269467Y0038522D02*
X0236009Y0038522D01*
X0235780Y0036923D02*
X0310825Y0036923D01*
X0310825Y0035325D02*
X0267562Y0035325D01*
X0267825Y0033726D02*
X0310825Y0033726D01*
X0310825Y0032128D02*
X0307699Y0032128D01*
X0309829Y0030529D02*
X0310825Y0030529D01*
X0310825Y0038522D02*
X0273783Y0038522D01*
X0274862Y0040120D02*
X0287238Y0040120D01*
X0287294Y0040065D02*
X0288973Y0039369D01*
X0296727Y0039369D01*
X0298406Y0040065D01*
X0299691Y0041350D01*
X0300387Y0043029D01*
X0300387Y0044846D01*
X0299691Y0046525D01*
X0298406Y0047810D01*
X0296727Y0048506D01*
X0288973Y0048506D01*
X0287294Y0047810D01*
X0286009Y0046525D01*
X0285313Y0044846D01*
X0285313Y0043029D01*
X0286009Y0041350D01*
X0287294Y0040065D01*
X0285856Y0041719D02*
X0275009Y0041719D01*
X0274425Y0043317D02*
X0285313Y0043317D01*
X0285342Y0044916D02*
X0274425Y0044916D01*
X0274425Y0046514D02*
X0274475Y0046514D01*
X0278775Y0046514D02*
X0286004Y0046514D01*
X0288023Y0048113D02*
X0279858Y0048113D01*
X0280009Y0049711D02*
X0288146Y0049711D01*
X0288973Y0049369D02*
X0296727Y0049369D01*
X0298406Y0050065D01*
X0299691Y0051350D01*
X0300387Y0053029D01*
X0300387Y0054846D01*
X0299691Y0056525D01*
X0298406Y0057810D01*
X0296727Y0058506D01*
X0288973Y0058506D01*
X0287294Y0057810D01*
X0286009Y0056525D01*
X0285313Y0054846D01*
X0285313Y0053029D01*
X0286009Y0051350D01*
X0287294Y0050065D01*
X0288973Y0049369D01*
X0286048Y0051310D02*
X0279251Y0051310D01*
X0278825Y0052908D02*
X0285363Y0052908D01*
X0285313Y0054507D02*
X0278825Y0054507D01*
X0278825Y0056105D02*
X0285835Y0056105D01*
X0287187Y0057704D02*
X0278825Y0057704D01*
X0278825Y0059302D02*
X0310825Y0059302D01*
X0310825Y0057704D02*
X0298513Y0057704D01*
X0299865Y0056105D02*
X0310825Y0056105D01*
X0310825Y0054507D02*
X0300387Y0054507D01*
X0300337Y0052908D02*
X0310825Y0052908D01*
X0310825Y0051310D02*
X0299652Y0051310D01*
X0297554Y0049711D02*
X0310825Y0049711D01*
X0310825Y0048113D02*
X0297677Y0048113D01*
X0299696Y0046514D02*
X0310825Y0046514D01*
X0310825Y0044916D02*
X0300358Y0044916D01*
X0300387Y0043317D02*
X0310825Y0043317D01*
X0310825Y0041719D02*
X0299844Y0041719D01*
X0298462Y0040120D02*
X0310825Y0040120D01*
X0297551Y0032128D02*
X0267825Y0032128D01*
X0267825Y0030529D02*
X0295421Y0030529D01*
X0294055Y0028931D02*
X0267825Y0028931D01*
X0267825Y0027332D02*
X0293133Y0027332D01*
X0292642Y0025734D02*
X0267825Y0025734D01*
X0267825Y0024135D02*
X0292313Y0024135D01*
X0292313Y0022537D02*
X0267825Y0022537D01*
X0267825Y0020938D02*
X0292542Y0020938D01*
X0292970Y0019340D02*
X0268221Y0019340D01*
X0269009Y0017741D02*
X0293841Y0017741D01*
X0295049Y0016143D02*
X0268871Y0016143D01*
X0267805Y0014544D02*
X0296907Y0014544D01*
X0263445Y0014544D02*
X0260649Y0014544D01*
X0261450Y0016143D02*
X0262379Y0016143D01*
X0262241Y0017741D02*
X0261450Y0017741D01*
X0261266Y0019340D02*
X0263029Y0019340D01*
X0263425Y0020938D02*
X0259667Y0020938D01*
X0258838Y0022450D02*
X0261650Y0025262D01*
X0261650Y0027050D01*
X0257050Y0027050D01*
X0257050Y0022450D01*
X0258838Y0022450D01*
X0258925Y0022537D02*
X0263425Y0022537D01*
X0263425Y0024135D02*
X0260523Y0024135D01*
X0261650Y0025734D02*
X0263425Y0025734D01*
X0263425Y0027332D02*
X0257050Y0027332D01*
X0256650Y0027332D02*
X0251450Y0027332D01*
X0252050Y0027050D02*
X0252050Y0025262D01*
X0254862Y0022450D01*
X0256650Y0022450D01*
X0256650Y0027050D01*
X0252050Y0027050D01*
X0252050Y0025734D02*
X0251450Y0025734D01*
X0251450Y0025345D02*
X0248755Y0022650D01*
X0244945Y0022650D01*
X0242250Y0025345D01*
X0242250Y0029155D01*
X0244945Y0031850D01*
X0248755Y0031850D01*
X0251450Y0029155D01*
X0251450Y0025345D01*
X0250240Y0024135D02*
X0253177Y0024135D01*
X0254775Y0022537D02*
X0226825Y0022537D01*
X0226825Y0024135D02*
X0233459Y0024135D01*
X0232250Y0025345D02*
X0234945Y0022650D01*
X0238755Y0022650D01*
X0241450Y0025345D01*
X0241450Y0029155D01*
X0238755Y0031850D01*
X0234945Y0031850D01*
X0232250Y0029155D01*
X0232250Y0025345D01*
X0232250Y0025734D02*
X0226825Y0025734D01*
X0226825Y0027332D02*
X0232250Y0027332D01*
X0232250Y0028931D02*
X0226825Y0028931D01*
X0226825Y0030529D02*
X0233624Y0030529D01*
X0227536Y0032128D02*
X0226825Y0032128D01*
X0222425Y0032128D02*
X0097825Y0032128D01*
X0097825Y0033726D02*
X0222425Y0033726D01*
X0222425Y0030529D02*
X0213895Y0030529D01*
X0213617Y0030620D02*
X0212875Y0030737D01*
X0212684Y0030737D01*
X0212684Y0023184D01*
X0217268Y0023184D01*
X0217268Y0026344D01*
X0217151Y0027085D01*
X0216919Y0027799D01*
X0216578Y0028468D01*
X0216137Y0029075D01*
X0215606Y0029606D01*
X0214999Y0030047D01*
X0214330Y0030388D01*
X0213617Y0030620D01*
X0212684Y0030529D02*
X0212316Y0030529D01*
X0212316Y0030737D02*
X0212125Y0030737D01*
X0211383Y0030620D01*
X0210670Y0030388D01*
X0210001Y0030047D01*
X0209394Y0029606D01*
X0208863Y0029075D01*
X0208422Y0028468D01*
X0208081Y0027799D01*
X0207849Y0027085D01*
X0207731Y0026344D01*
X0207731Y0023184D01*
X0212316Y0023184D01*
X0212316Y0022816D01*
X0212684Y0022816D01*
X0212684Y0015263D01*
X0212875Y0015263D01*
X0213617Y0015380D01*
X0214330Y0015612D01*
X0214999Y0015953D01*
X0215606Y0016394D01*
X0216137Y0016925D01*
X0216578Y0017532D01*
X0216919Y0018201D01*
X0217151Y0018915D01*
X0217268Y0019656D01*
X0217268Y0022816D01*
X0212684Y0022816D01*
X0212684Y0023184D01*
X0212316Y0023184D01*
X0212316Y0030737D01*
X0211105Y0030529D02*
X0203428Y0030529D01*
X0203409Y0030537D02*
X0201591Y0030537D01*
X0199912Y0029841D01*
X0198627Y0028556D01*
X0197931Y0026877D01*
X0197931Y0019123D01*
X0198627Y0017444D01*
X0199912Y0016159D01*
X0201591Y0015463D01*
X0203409Y0015463D01*
X0205088Y0016159D01*
X0206373Y0017444D01*
X0207068Y0019123D01*
X0207068Y0026877D01*
X0206373Y0028556D01*
X0205088Y0029841D01*
X0203409Y0030537D01*
X0201572Y0030529D02*
X0193428Y0030529D01*
X0191572Y0030529D02*
X0183428Y0030529D01*
X0183409Y0030537D02*
X0181591Y0030537D01*
X0179912Y0029841D01*
X0178627Y0028556D01*
X0177931Y0026877D01*
X0177931Y0019123D01*
X0178627Y0017444D01*
X0179912Y0016159D01*
X0181591Y0015463D01*
X0183409Y0015463D01*
X0185088Y0016159D01*
X0186373Y0017444D01*
X0187068Y0019123D01*
X0187068Y0026877D01*
X0186373Y0028556D01*
X0185088Y0029841D01*
X0183409Y0030537D01*
X0181572Y0030529D02*
X0173428Y0030529D01*
X0173409Y0030537D02*
X0171591Y0030537D01*
X0169912Y0029841D01*
X0168627Y0028556D01*
X0167931Y0026877D01*
X0167931Y0019123D01*
X0168627Y0017444D01*
X0169912Y0016159D01*
X0171591Y0015463D01*
X0173409Y0015463D01*
X0175088Y0016159D01*
X0176373Y0017444D01*
X0177068Y0019123D01*
X0177068Y0026877D01*
X0176373Y0028556D01*
X0175088Y0029841D01*
X0173409Y0030537D01*
X0171572Y0030529D02*
X0163428Y0030529D01*
X0163409Y0030537D02*
X0161591Y0030537D01*
X0159912Y0029841D01*
X0158627Y0028556D01*
X0157931Y0026877D01*
X0157931Y0019123D01*
X0158627Y0017444D01*
X0159912Y0016159D01*
X0161591Y0015463D01*
X0163409Y0015463D01*
X0165088Y0016159D01*
X0166373Y0017444D01*
X0167068Y0019123D01*
X0167068Y0026877D01*
X0166373Y0028556D01*
X0165088Y0029841D01*
X0163409Y0030537D01*
X0161572Y0030529D02*
X0097825Y0030529D01*
X0097825Y0028931D02*
X0159001Y0028931D01*
X0158120Y0027332D02*
X0097825Y0027332D01*
X0097825Y0025734D02*
X0157931Y0025734D01*
X0157931Y0024135D02*
X0097825Y0024135D01*
X0097825Y0022537D02*
X0157931Y0022537D01*
X0157931Y0020938D02*
X0097825Y0020938D01*
X0097825Y0019340D02*
X0157931Y0019340D01*
X0158504Y0017741D02*
X0097825Y0017741D01*
X0097825Y0016143D02*
X0159951Y0016143D01*
X0165049Y0016143D02*
X0169951Y0016143D01*
X0168504Y0017741D02*
X0166496Y0017741D01*
X0167068Y0019340D02*
X0167931Y0019340D01*
X0167931Y0020938D02*
X0167068Y0020938D01*
X0167068Y0022537D02*
X0167931Y0022537D01*
X0167931Y0024135D02*
X0167068Y0024135D01*
X0167068Y0025734D02*
X0167931Y0025734D01*
X0168120Y0027332D02*
X0166880Y0027332D01*
X0165999Y0028931D02*
X0169001Y0028931D01*
X0175999Y0028931D02*
X0179001Y0028931D01*
X0178120Y0027332D02*
X0176880Y0027332D01*
X0177068Y0025734D02*
X0177931Y0025734D01*
X0177931Y0024135D02*
X0177068Y0024135D01*
X0177068Y0022537D02*
X0177931Y0022537D01*
X0177931Y0020938D02*
X0177068Y0020938D01*
X0177068Y0019340D02*
X0177931Y0019340D01*
X0178504Y0017741D02*
X0176496Y0017741D01*
X0175049Y0016143D02*
X0179951Y0016143D01*
X0185049Y0016143D02*
X0189951Y0016143D01*
X0188504Y0017741D02*
X0186496Y0017741D01*
X0187068Y0019340D02*
X0187931Y0019340D01*
X0187931Y0020938D02*
X0187068Y0020938D01*
X0187068Y0022537D02*
X0187931Y0022537D01*
X0187931Y0024135D02*
X0187068Y0024135D01*
X0187068Y0025734D02*
X0187931Y0025734D01*
X0188120Y0027332D02*
X0186880Y0027332D01*
X0185999Y0028931D02*
X0189001Y0028931D01*
X0195999Y0028931D02*
X0199001Y0028931D01*
X0198120Y0027332D02*
X0196880Y0027332D01*
X0197068Y0025734D02*
X0197931Y0025734D01*
X0197931Y0024135D02*
X0197068Y0024135D01*
X0197068Y0022537D02*
X0197931Y0022537D01*
X0197931Y0020938D02*
X0197068Y0020938D01*
X0197068Y0019340D02*
X0197931Y0019340D01*
X0198504Y0017741D02*
X0196496Y0017741D01*
X0195049Y0016143D02*
X0199951Y0016143D01*
X0205049Y0016143D02*
X0209740Y0016143D01*
X0210001Y0015953D02*
X0210670Y0015612D01*
X0211383Y0015380D01*
X0212125Y0015263D01*
X0212316Y0015263D01*
X0212316Y0022816D01*
X0207731Y0022816D01*
X0207731Y0019656D01*
X0207849Y0018915D01*
X0208081Y0018201D01*
X0208422Y0017532D01*
X0208863Y0016925D01*
X0209394Y0016394D01*
X0210001Y0015953D01*
X0212316Y0016143D02*
X0212684Y0016143D01*
X0212684Y0017741D02*
X0212316Y0017741D01*
X0212316Y0019340D02*
X0212684Y0019340D01*
X0212684Y0020938D02*
X0212316Y0020938D01*
X0212316Y0022537D02*
X0212684Y0022537D01*
X0212684Y0024135D02*
X0212316Y0024135D01*
X0212316Y0025734D02*
X0212684Y0025734D01*
X0212684Y0027332D02*
X0212316Y0027332D01*
X0212316Y0028931D02*
X0212684Y0028931D01*
X0216242Y0028931D02*
X0222425Y0028931D01*
X0222425Y0027332D02*
X0217071Y0027332D01*
X0217268Y0025734D02*
X0222425Y0025734D01*
X0222425Y0024135D02*
X0217268Y0024135D01*
X0217268Y0022537D02*
X0222425Y0022537D01*
X0222425Y0020938D02*
X0217268Y0020938D01*
X0217218Y0019340D02*
X0222029Y0019340D01*
X0221241Y0017741D02*
X0216685Y0017741D01*
X0215260Y0016143D02*
X0221379Y0016143D01*
X0222445Y0014544D02*
X0194700Y0014544D01*
X0206496Y0017741D02*
X0208315Y0017741D01*
X0207782Y0019340D02*
X0207068Y0019340D01*
X0207068Y0020938D02*
X0207731Y0020938D01*
X0207731Y0022537D02*
X0207068Y0022537D01*
X0207068Y0024135D02*
X0207731Y0024135D01*
X0207731Y0025734D02*
X0207068Y0025734D01*
X0206880Y0027332D02*
X0207929Y0027332D01*
X0208758Y0028931D02*
X0205999Y0028931D01*
X0218664Y0035325D02*
X0097825Y0035325D01*
X0093425Y0035325D02*
X0083425Y0035325D01*
X0083425Y0036923D02*
X0093425Y0036923D01*
X0093425Y0038522D02*
X0084009Y0038522D01*
X0083886Y0040120D02*
X0093425Y0040120D01*
X0093425Y0033726D02*
X0083425Y0033726D01*
X0083425Y0032128D02*
X0093425Y0032128D01*
X0093425Y0030529D02*
X0083425Y0030529D01*
X0083551Y0028931D02*
X0093425Y0028931D01*
X0093425Y0027332D02*
X0084009Y0027332D01*
X0083701Y0025734D02*
X0093425Y0025734D01*
X0093425Y0024135D02*
X0082190Y0024135D01*
X0118524Y0054507D02*
X0010425Y0054507D01*
X0010425Y0056105D02*
X0119916Y0056105D01*
X0123334Y0056105D02*
X0153916Y0056105D01*
X0157334Y0056105D02*
X0178425Y0056105D01*
X0178425Y0054507D02*
X0158726Y0054507D01*
X0159009Y0052908D02*
X0178425Y0052908D01*
X0178425Y0051310D02*
X0158526Y0051310D01*
X0178425Y0057704D02*
X0010425Y0057704D01*
X0010425Y0059302D02*
X0109425Y0059302D01*
X0109425Y0060901D02*
X0010425Y0060901D01*
X0010425Y0062499D02*
X0109425Y0062499D01*
X0109425Y0064098D02*
X0010425Y0064098D01*
X0010425Y0065696D02*
X0109425Y0065696D01*
X0109425Y0067295D02*
X0010425Y0067295D01*
X0010425Y0068893D02*
X0109425Y0068893D01*
X0109425Y0070492D02*
X0010425Y0070492D01*
X0010425Y0072090D02*
X0109425Y0072090D01*
X0109425Y0073689D02*
X0010425Y0073689D01*
X0010425Y0075287D02*
X0109425Y0075287D01*
X0109425Y0076886D02*
X0010425Y0076886D01*
X0010425Y0078484D02*
X0109425Y0078484D01*
X0109425Y0080083D02*
X0010425Y0080083D01*
X0010425Y0081682D02*
X0109425Y0081682D01*
X0109425Y0083280D02*
X0076980Y0083280D01*
X0077206Y0083506D02*
X0077206Y0088794D01*
X0076269Y0089731D01*
X0070981Y0089731D01*
X0070600Y0089350D01*
X0026200Y0089350D01*
X0026200Y0091144D01*
X0026877Y0091144D01*
X0028556Y0091840D01*
X0029841Y0093125D01*
X0030537Y0094804D01*
X0030537Y0096621D01*
X0029841Y0098300D01*
X0028556Y0099585D01*
X0026877Y0100281D01*
X0019123Y0100281D01*
X0017444Y0099585D01*
X0016159Y0098300D01*
X0015463Y0096621D01*
X0015463Y0094804D01*
X0016159Y0093125D01*
X0017444Y0091840D01*
X0019123Y0091144D01*
X0019800Y0091144D01*
X0019800Y0085513D01*
X0020287Y0084337D01*
X0021187Y0083437D01*
X0022363Y0082950D01*
X0070600Y0082950D01*
X0070981Y0082569D01*
X0076269Y0082569D01*
X0077206Y0083506D01*
X0077206Y0084879D02*
X0109425Y0084879D01*
X0109425Y0086477D02*
X0077206Y0086477D01*
X0077206Y0088076D02*
X0109425Y0088076D01*
X0109425Y0089674D02*
X0076326Y0089674D01*
X0070924Y0089674D02*
X0026200Y0089674D01*
X0027188Y0091273D02*
X0109425Y0091273D01*
X0109425Y0092871D02*
X0029588Y0092871D01*
X0030399Y0094470D02*
X0109425Y0094470D01*
X0109425Y0096068D02*
X0105028Y0096068D01*
X0105542Y0096281D02*
X0106494Y0097233D01*
X0107009Y0098477D01*
X0107009Y0099823D01*
X0106494Y0101067D01*
X0105825Y0101736D01*
X0105825Y0113564D01*
X0106494Y0114233D01*
X0107009Y0115477D01*
X0107009Y0116823D01*
X0106494Y0118067D01*
X0105542Y0119019D01*
X0104298Y0119534D01*
X0102952Y0119534D01*
X0101708Y0119019D01*
X0100756Y0118067D01*
X0100241Y0116823D01*
X0100241Y0115477D01*
X0100756Y0114233D01*
X0101425Y0113564D01*
X0101425Y0101736D01*
X0100756Y0101067D01*
X0100241Y0099823D01*
X0100241Y0098477D01*
X0100756Y0097233D01*
X0101708Y0096281D01*
X0102952Y0095766D01*
X0104298Y0095766D01*
X0105542Y0096281D01*
X0106674Y0097667D02*
X0109425Y0097667D01*
X0109425Y0099265D02*
X0107009Y0099265D01*
X0106578Y0100864D02*
X0109125Y0100864D01*
X0108247Y0102462D02*
X0105825Y0102462D01*
X0105825Y0104061D02*
X0108339Y0104061D01*
X0109348Y0105659D02*
X0105825Y0105659D01*
X0105825Y0107258D02*
X0142422Y0107258D01*
X0142422Y0108856D02*
X0105825Y0108856D01*
X0105825Y0110455D02*
X0142422Y0110455D01*
X0142422Y0112053D02*
X0105825Y0112053D01*
X0105913Y0113652D02*
X0142421Y0113652D01*
X0142421Y0115250D02*
X0106915Y0115250D01*
X0106999Y0116849D02*
X0142421Y0116849D01*
X0142421Y0118447D02*
X0106114Y0118447D01*
X0101136Y0118447D02*
X0029695Y0118447D01*
X0029841Y0118300D02*
X0028556Y0119585D01*
X0026877Y0120281D01*
X0019123Y0120281D01*
X0017444Y0119585D01*
X0016159Y0118300D01*
X0015463Y0116621D01*
X0015463Y0114804D01*
X0016159Y0113125D01*
X0017444Y0111840D01*
X0019123Y0111144D01*
X0026877Y0111144D01*
X0028556Y0111840D01*
X0029841Y0113125D01*
X0030537Y0114804D01*
X0030537Y0116621D01*
X0029841Y0118300D01*
X0030443Y0116849D02*
X0100251Y0116849D01*
X0100335Y0115250D02*
X0030537Y0115250D01*
X0030060Y0113652D02*
X0101337Y0113652D01*
X0101425Y0112053D02*
X0028770Y0112053D01*
X0028556Y0109585D02*
X0026877Y0110281D01*
X0019123Y0110281D01*
X0017444Y0109585D01*
X0016159Y0108300D01*
X0015463Y0106621D01*
X0015463Y0104804D01*
X0016159Y0103125D01*
X0017444Y0101840D01*
X0019123Y0101144D01*
X0026877Y0101144D01*
X0028556Y0101840D01*
X0029841Y0103125D01*
X0030537Y0104804D01*
X0030537Y0106621D01*
X0029841Y0108300D01*
X0028556Y0109585D01*
X0029286Y0108856D02*
X0101425Y0108856D01*
X0101425Y0107258D02*
X0030273Y0107258D01*
X0030537Y0105659D02*
X0101425Y0105659D01*
X0101425Y0104061D02*
X0030229Y0104061D01*
X0029179Y0102462D02*
X0101425Y0102462D01*
X0100672Y0100864D02*
X0014825Y0100864D01*
X0014825Y0102462D02*
X0016821Y0102462D01*
X0015771Y0104061D02*
X0014825Y0104061D01*
X0014825Y0105659D02*
X0015463Y0105659D01*
X0015727Y0107258D02*
X0014825Y0107258D01*
X0014825Y0108856D02*
X0016714Y0108856D01*
X0014825Y0110455D02*
X0101425Y0110455D01*
X0113902Y0105659D02*
X0142422Y0105659D01*
X0142422Y0104061D02*
X0114911Y0104061D01*
X0102222Y0096068D02*
X0030537Y0096068D01*
X0030104Y0097667D02*
X0100576Y0097667D01*
X0100241Y0099265D02*
X0028877Y0099265D01*
X0017123Y0099265D02*
X0014825Y0099265D01*
X0014825Y0097667D02*
X0015896Y0097667D01*
X0015463Y0096068D02*
X0015009Y0096068D01*
X0014592Y0094470D02*
X0015601Y0094470D01*
X0016412Y0092871D02*
X0012552Y0092871D01*
X0010697Y0092871D02*
X0010425Y0092871D01*
X0010425Y0091273D02*
X0018812Y0091273D01*
X0019800Y0089674D02*
X0010425Y0089674D01*
X0010425Y0088076D02*
X0019800Y0088076D01*
X0019800Y0086477D02*
X0010425Y0086477D01*
X0010425Y0084879D02*
X0020063Y0084879D01*
X0021567Y0083280D02*
X0010425Y0083280D01*
X0014825Y0112053D02*
X0017230Y0112053D01*
X0015940Y0113652D02*
X0014825Y0113652D01*
X0014825Y0115250D02*
X0015463Y0115250D01*
X0015557Y0116849D02*
X0014825Y0116849D01*
X0014825Y0118447D02*
X0016305Y0118447D01*
X0014825Y0120046D02*
X0018555Y0120046D01*
X0018915Y0121061D02*
X0019656Y0120944D01*
X0022816Y0120944D01*
X0022816Y0125528D01*
X0023184Y0125528D01*
X0023184Y0120944D01*
X0026344Y0120944D01*
X0027085Y0121061D01*
X0027799Y0121293D01*
X0028468Y0121634D01*
X0029075Y0122075D01*
X0029606Y0122606D01*
X0030047Y0123213D01*
X0030388Y0123882D01*
X0030620Y0124596D01*
X0030737Y0125337D01*
X0030737Y0125528D01*
X0023184Y0125528D01*
X0023184Y0125897D01*
X0022816Y0125897D01*
X0022816Y0130481D01*
X0019656Y0130481D01*
X0018915Y0130364D01*
X0018201Y0130132D01*
X0017532Y0129791D01*
X0016925Y0129350D01*
X0016394Y0128819D01*
X0015953Y0128212D01*
X0015612Y0127543D01*
X0015380Y0126829D01*
X0015263Y0126088D01*
X0015263Y0125897D01*
X0022816Y0125897D01*
X0022816Y0125528D01*
X0015263Y0125528D01*
X0015263Y0125337D01*
X0015380Y0124596D01*
X0015612Y0123882D01*
X0015953Y0123213D01*
X0016394Y0122606D01*
X0016925Y0122075D01*
X0017532Y0121634D01*
X0018201Y0121293D01*
X0018915Y0121061D01*
X0017518Y0121644D02*
X0014825Y0121644D01*
X0014825Y0123243D02*
X0015938Y0123243D01*
X0015342Y0124841D02*
X0014825Y0124841D01*
X0014825Y0126440D02*
X0015319Y0126440D01*
X0014825Y0128038D02*
X0015865Y0128038D01*
X0014825Y0129637D02*
X0017320Y0129637D01*
X0014825Y0131235D02*
X0190310Y0131235D01*
X0190336Y0129637D02*
X0028680Y0129637D01*
X0028468Y0129791D02*
X0029075Y0129350D01*
X0029606Y0128819D01*
X0030047Y0128212D01*
X0030388Y0127543D01*
X0030620Y0126829D01*
X0030737Y0126088D01*
X0030737Y0125897D01*
X0023184Y0125897D01*
X0023184Y0130481D01*
X0026344Y0130481D01*
X0027085Y0130364D01*
X0027799Y0130132D01*
X0028468Y0129791D01*
X0030135Y0128038D02*
X0190362Y0128038D01*
X0190285Y0132834D02*
X0014825Y0132834D01*
X0014825Y0134432D02*
X0190259Y0134432D01*
X0190233Y0136031D02*
X0014825Y0136031D01*
X0014825Y0137629D02*
X0190207Y0137629D01*
X0190181Y0139228D02*
X0153414Y0139228D01*
X0154740Y0140826D02*
X0190156Y0140826D01*
X0190130Y0142425D02*
X0155009Y0142425D01*
X0154825Y0144023D02*
X0190104Y0144023D01*
X0190078Y0145622D02*
X0154825Y0145622D01*
X0154825Y0147220D02*
X0190052Y0147220D01*
X0190027Y0148819D02*
X0154825Y0148819D01*
X0154825Y0150418D02*
X0190001Y0150418D01*
X0189975Y0152016D02*
X0182602Y0152016D01*
X0182536Y0151950D02*
X0183825Y0153239D01*
X0183825Y0181564D01*
X0184494Y0182233D01*
X0185009Y0183477D01*
X0185009Y0184823D01*
X0184494Y0186067D01*
X0183542Y0187019D01*
X0182298Y0187534D01*
X0180952Y0187534D01*
X0179708Y0187019D01*
X0178756Y0186067D01*
X0178241Y0184823D01*
X0178241Y0183477D01*
X0178756Y0182233D01*
X0179425Y0181564D01*
X0179425Y0156350D01*
X0174211Y0156350D01*
X0173542Y0157019D01*
X0172298Y0157534D01*
X0170952Y0157534D01*
X0169708Y0157019D01*
X0168756Y0156067D01*
X0168241Y0154823D01*
X0168241Y0153477D01*
X0168756Y0152233D01*
X0169708Y0151281D01*
X0170952Y0150766D01*
X0172298Y0150766D01*
X0173542Y0151281D01*
X0174211Y0151950D01*
X0182536Y0151950D01*
X0183825Y0153615D02*
X0189949Y0153615D01*
X0189924Y0155213D02*
X0183825Y0155213D01*
X0183825Y0156812D02*
X0189898Y0156812D01*
X0189872Y0158410D02*
X0183825Y0158410D01*
X0183825Y0160009D02*
X0189846Y0160009D01*
X0189820Y0161607D02*
X0183825Y0161607D01*
X0183825Y0163206D02*
X0189795Y0163206D01*
X0189769Y0164804D02*
X0183825Y0164804D01*
X0183825Y0166403D02*
X0189743Y0166403D01*
X0189717Y0168001D02*
X0183825Y0168001D01*
X0183825Y0169600D02*
X0189692Y0169600D01*
X0189666Y0171198D02*
X0183825Y0171198D01*
X0183825Y0172797D02*
X0189640Y0172797D01*
X0189614Y0174395D02*
X0183825Y0174395D01*
X0183825Y0175994D02*
X0189588Y0175994D01*
X0189563Y0177592D02*
X0183825Y0177592D01*
X0183825Y0179191D02*
X0189537Y0179191D01*
X0189511Y0180789D02*
X0183825Y0180789D01*
X0184558Y0182388D02*
X0189485Y0182388D01*
X0189459Y0183986D02*
X0185009Y0183986D01*
X0184694Y0185585D02*
X0189241Y0185585D01*
X0189390Y0187183D02*
X0183145Y0187183D01*
X0180105Y0187183D02*
X0154825Y0187183D01*
X0154825Y0185585D02*
X0178556Y0185585D01*
X0178241Y0183986D02*
X0154825Y0183986D01*
X0154825Y0182388D02*
X0178692Y0182388D01*
X0179425Y0180789D02*
X0154825Y0180789D01*
X0154825Y0179191D02*
X0179425Y0179191D01*
X0179425Y0177592D02*
X0154825Y0177592D01*
X0154825Y0175994D02*
X0179425Y0175994D01*
X0179425Y0174395D02*
X0154825Y0174395D01*
X0154825Y0172797D02*
X0179425Y0172797D01*
X0179425Y0171198D02*
X0168363Y0171198D01*
X0169009Y0169600D02*
X0179425Y0169600D01*
X0179425Y0168001D02*
X0168812Y0168001D01*
X0167664Y0166403D02*
X0179425Y0166403D01*
X0179425Y0164804D02*
X0154825Y0164804D01*
X0154825Y0163206D02*
X0179425Y0163206D01*
X0179425Y0161607D02*
X0154825Y0161607D01*
X0154825Y0160009D02*
X0179425Y0160009D01*
X0179425Y0158410D02*
X0154825Y0158410D01*
X0154825Y0156812D02*
X0169501Y0156812D01*
X0168402Y0155213D02*
X0154825Y0155213D01*
X0154825Y0153615D02*
X0168241Y0153615D01*
X0168973Y0152016D02*
X0154825Y0152016D01*
X0148425Y0152016D02*
X0077825Y0152016D01*
X0077825Y0150418D02*
X0148425Y0150418D01*
X0148425Y0148819D02*
X0077825Y0148819D01*
X0077825Y0147220D02*
X0148425Y0147220D01*
X0148425Y0145622D02*
X0077825Y0145622D01*
X0077825Y0145268D02*
X0077825Y0182032D01*
X0078009Y0182477D01*
X0078009Y0183823D01*
X0077494Y0185067D01*
X0076542Y0186019D01*
X0075298Y0186534D01*
X0073952Y0186534D01*
X0072708Y0186019D01*
X0071756Y0185067D01*
X0071241Y0183823D01*
X0071241Y0182477D01*
X0071425Y0182032D01*
X0071425Y0145268D01*
X0071241Y0144823D01*
X0071241Y0143477D01*
X0071756Y0142233D01*
X0072708Y0141281D01*
X0073952Y0140766D01*
X0075298Y0140766D01*
X0076542Y0141281D01*
X0077494Y0142233D01*
X0078009Y0143477D01*
X0078009Y0144823D01*
X0077825Y0145268D01*
X0078009Y0144023D02*
X0148425Y0144023D01*
X0148241Y0142425D02*
X0077574Y0142425D01*
X0075445Y0140826D02*
X0148510Y0140826D01*
X0149836Y0139228D02*
X0014825Y0139228D01*
X0014825Y0140826D02*
X0073805Y0140826D01*
X0071676Y0142425D02*
X0014825Y0142425D01*
X0014825Y0144023D02*
X0071241Y0144023D01*
X0071425Y0145622D02*
X0014825Y0145622D01*
X0014825Y0147220D02*
X0071425Y0147220D01*
X0071425Y0148819D02*
X0014825Y0148819D01*
X0014825Y0150418D02*
X0025140Y0150418D01*
X0025290Y0150267D02*
X0027705Y0149267D01*
X0030320Y0149267D01*
X0032735Y0150267D01*
X0034584Y0152116D01*
X0035584Y0154531D01*
X0035584Y0157146D01*
X0034584Y0159561D01*
X0032735Y0161410D01*
X0030320Y0162410D01*
X0027705Y0162410D01*
X0025290Y0161410D01*
X0023441Y0159561D01*
X0022441Y0157146D01*
X0022441Y0154531D01*
X0023441Y0152116D01*
X0025290Y0150267D01*
X0023541Y0152016D02*
X0014825Y0152016D01*
X0014825Y0153615D02*
X0022821Y0153615D01*
X0022441Y0155213D02*
X0014825Y0155213D01*
X0014825Y0156812D02*
X0022441Y0156812D01*
X0022965Y0158410D02*
X0014825Y0158410D01*
X0014825Y0160009D02*
X0023889Y0160009D01*
X0025766Y0161607D02*
X0014825Y0161607D01*
X0014825Y0163206D02*
X0071425Y0163206D01*
X0071425Y0164804D02*
X0014825Y0164804D01*
X0014825Y0166403D02*
X0071425Y0166403D01*
X0071425Y0168001D02*
X0033146Y0168001D01*
X0032735Y0167590D02*
X0034584Y0169439D01*
X0035584Y0171854D01*
X0035584Y0174469D01*
X0034584Y0176884D01*
X0032735Y0178733D01*
X0030320Y0179733D01*
X0027705Y0179733D01*
X0025290Y0178733D01*
X0023441Y0176884D01*
X0022441Y0174469D01*
X0022441Y0171854D01*
X0023441Y0169439D01*
X0025290Y0167590D01*
X0027705Y0166590D01*
X0030320Y0166590D01*
X0032735Y0167590D01*
X0034650Y0169600D02*
X0071425Y0169600D01*
X0071425Y0171198D02*
X0035312Y0171198D01*
X0035584Y0172797D02*
X0071425Y0172797D01*
X0071425Y0174395D02*
X0035584Y0174395D01*
X0034952Y0175994D02*
X0071425Y0175994D01*
X0071425Y0177592D02*
X0033875Y0177592D01*
X0031629Y0179191D02*
X0071425Y0179191D01*
X0071425Y0180789D02*
X0014825Y0180789D01*
X0014825Y0179191D02*
X0026396Y0179191D01*
X0024150Y0177592D02*
X0014825Y0177592D01*
X0014825Y0175994D02*
X0023073Y0175994D01*
X0022441Y0174395D02*
X0014825Y0174395D01*
X0014825Y0172797D02*
X0022441Y0172797D01*
X0022713Y0171198D02*
X0014825Y0171198D01*
X0014825Y0169600D02*
X0023375Y0169600D01*
X0024879Y0168001D02*
X0014825Y0168001D01*
X0014825Y0182388D02*
X0071278Y0182388D01*
X0071308Y0183986D02*
X0014825Y0183986D01*
X0014825Y0185585D02*
X0072274Y0185585D01*
X0076976Y0185585D02*
X0148425Y0185585D01*
X0148425Y0187183D02*
X0014825Y0187183D01*
X0014825Y0188782D02*
X0084913Y0188782D01*
X0086337Y0188782D02*
X0148425Y0188782D01*
X0148425Y0183986D02*
X0077942Y0183986D01*
X0077972Y0182388D02*
X0148425Y0182388D01*
X0148425Y0180789D02*
X0077825Y0180789D01*
X0077825Y0179191D02*
X0148425Y0179191D01*
X0148425Y0177592D02*
X0077825Y0177592D01*
X0077825Y0175994D02*
X0148425Y0175994D01*
X0148425Y0174395D02*
X0077825Y0174395D01*
X0077825Y0172797D02*
X0148425Y0172797D01*
X0148425Y0171198D02*
X0077825Y0171198D01*
X0077825Y0169600D02*
X0148425Y0169600D01*
X0148425Y0168001D02*
X0077825Y0168001D01*
X0077825Y0166403D02*
X0148425Y0166403D01*
X0148425Y0164804D02*
X0077825Y0164804D01*
X0077825Y0163206D02*
X0148425Y0163206D01*
X0148425Y0161607D02*
X0077825Y0161607D01*
X0077825Y0160009D02*
X0148425Y0160009D01*
X0148425Y0158410D02*
X0077825Y0158410D01*
X0077825Y0156812D02*
X0148425Y0156812D01*
X0148425Y0155213D02*
X0077825Y0155213D01*
X0077825Y0153615D02*
X0148425Y0153615D01*
X0173749Y0156812D02*
X0179425Y0156812D01*
X0196299Y0156812D02*
X0200225Y0156812D01*
X0200225Y0158410D02*
X0196273Y0158410D01*
X0196247Y0160009D02*
X0200225Y0160009D01*
X0200225Y0161607D02*
X0196221Y0161607D01*
X0196195Y0163206D02*
X0200225Y0163206D01*
X0200225Y0164804D02*
X0196170Y0164804D01*
X0196144Y0166403D02*
X0200225Y0166403D01*
X0200225Y0168001D02*
X0196118Y0168001D01*
X0196092Y0169600D02*
X0200225Y0169600D01*
X0200225Y0171198D02*
X0196067Y0171198D01*
X0196041Y0172797D02*
X0200225Y0172797D01*
X0200225Y0174395D02*
X0196015Y0174395D01*
X0195989Y0175994D02*
X0200225Y0175994D01*
X0200225Y0177592D02*
X0195963Y0177592D01*
X0195938Y0179191D02*
X0200225Y0179191D01*
X0200225Y0180789D02*
X0195912Y0180789D01*
X0195886Y0182388D02*
X0199692Y0182388D01*
X0199241Y0183986D02*
X0195860Y0183986D01*
X0196009Y0185585D02*
X0199556Y0185585D01*
X0201105Y0187183D02*
X0195860Y0187183D01*
X0194779Y0188782D02*
X0209207Y0188782D01*
X0208281Y0190380D02*
X0154969Y0190380D01*
X0154945Y0191979D02*
X0208305Y0191979D01*
X0204145Y0187183D02*
X0213423Y0187183D01*
X0215683Y0185585D02*
X0205694Y0185585D01*
X0206009Y0183986D02*
X0217943Y0183986D01*
X0220203Y0182388D02*
X0205558Y0182388D01*
X0205025Y0180789D02*
X0222463Y0180789D01*
X0224723Y0179191D02*
X0205025Y0179191D01*
X0205025Y0177592D02*
X0226983Y0177592D01*
X0229243Y0175994D02*
X0205025Y0175994D01*
X0205025Y0174395D02*
X0231503Y0174395D01*
X0233763Y0172797D02*
X0205025Y0172797D01*
X0205025Y0171198D02*
X0236023Y0171198D01*
X0238283Y0169600D02*
X0205025Y0169600D01*
X0205025Y0168001D02*
X0240543Y0168001D01*
X0242803Y0166403D02*
X0205025Y0166403D01*
X0205025Y0164804D02*
X0245063Y0164804D01*
X0247323Y0163206D02*
X0205025Y0163206D01*
X0205025Y0161607D02*
X0249583Y0161607D01*
X0251655Y0160009D02*
X0205025Y0160009D01*
X0205025Y0158410D02*
X0255774Y0158410D01*
X0254650Y0156812D02*
X0205025Y0156812D01*
X0205025Y0155213D02*
X0254241Y0155213D01*
X0254598Y0153615D02*
X0205025Y0153615D01*
X0205025Y0152016D02*
X0256348Y0152016D01*
X0258902Y0152016D02*
X0306425Y0152016D01*
X0306425Y0150418D02*
X0299070Y0150418D01*
X0299231Y0150256D02*
X0298700Y0150787D01*
X0298093Y0151228D01*
X0297424Y0151569D01*
X0296710Y0151801D01*
X0295969Y0151918D01*
X0292809Y0151918D01*
X0292809Y0147334D01*
X0292441Y0147334D01*
X0292441Y0146966D01*
X0292809Y0146966D01*
X0292809Y0142381D01*
X0295969Y0142381D01*
X0296710Y0142499D01*
X0297424Y0142731D01*
X0298093Y0143072D01*
X0298700Y0143513D01*
X0299231Y0144044D01*
X0299672Y0144651D01*
X0300013Y0145320D01*
X0300245Y0146033D01*
X0300362Y0146775D01*
X0300362Y0146966D01*
X0292809Y0146966D01*
X0292809Y0147334D01*
X0300362Y0147334D01*
X0300362Y0147525D01*
X0300245Y0148267D01*
X0300013Y0148980D01*
X0299672Y0149649D01*
X0299231Y0150256D01*
X0300065Y0148819D02*
X0306425Y0148819D01*
X0306425Y0147220D02*
X0292809Y0147220D01*
X0292441Y0147220D02*
X0205025Y0147220D01*
X0205025Y0145622D02*
X0285139Y0145622D01*
X0285237Y0145320D02*
X0285578Y0144651D01*
X0286019Y0144044D01*
X0286550Y0143513D01*
X0287157Y0143072D01*
X0287826Y0142731D01*
X0288540Y0142499D01*
X0289281Y0142381D01*
X0292441Y0142381D01*
X0292441Y0146966D01*
X0284888Y0146966D01*
X0284888Y0146775D01*
X0285005Y0146033D01*
X0285237Y0145320D01*
X0286039Y0144023D02*
X0205025Y0144023D01*
X0205025Y0142425D02*
X0289007Y0142425D01*
X0288748Y0141718D02*
X0287069Y0141023D01*
X0285784Y0139738D01*
X0285088Y0138059D01*
X0285088Y0136241D01*
X0285784Y0134562D01*
X0287069Y0133277D01*
X0288748Y0132581D01*
X0296502Y0132581D01*
X0298181Y0133277D01*
X0299466Y0134562D01*
X0300162Y0136241D01*
X0300162Y0138059D01*
X0299466Y0139738D01*
X0298181Y0141023D01*
X0296502Y0141718D01*
X0288748Y0141718D01*
X0286872Y0140826D02*
X0205025Y0140826D01*
X0202625Y0137150D02*
X0202625Y0184150D01*
X0190471Y0188782D02*
X0154825Y0188782D01*
X0143425Y0196774D02*
X0010425Y0196774D01*
X0010425Y0195176D02*
X0010568Y0195176D01*
X0010425Y0198373D02*
X0144322Y0198373D01*
X0150716Y0213613D02*
X0152534Y0213613D01*
X0154213Y0214309D01*
X0155498Y0215594D01*
X0156193Y0217273D01*
X0156193Y0225027D01*
X0155498Y0226706D01*
X0154213Y0227991D01*
X0152534Y0228687D01*
X0150716Y0228687D01*
X0149037Y0227991D01*
X0147752Y0226706D01*
X0147056Y0225027D01*
X0147056Y0217273D01*
X0147752Y0215594D01*
X0149037Y0214309D01*
X0150716Y0213613D01*
X0148988Y0214358D02*
X0026020Y0214358D01*
X0028015Y0215956D02*
X0147602Y0215956D01*
X0147056Y0217555D02*
X0029302Y0217555D01*
X0030225Y0219153D02*
X0147056Y0219153D01*
X0147056Y0220752D02*
X0030658Y0220752D01*
X0030937Y0222351D02*
X0147056Y0222351D01*
X0147056Y0223949D02*
X0030937Y0223949D01*
X0030658Y0225548D02*
X0147272Y0225548D01*
X0148192Y0227146D02*
X0030225Y0227146D01*
X0029302Y0228745D02*
X0160431Y0228745D01*
X0160508Y0228770D02*
X0159795Y0228538D01*
X0159126Y0228197D01*
X0158519Y0227756D01*
X0157988Y0227225D01*
X0157547Y0226618D01*
X0157206Y0225949D01*
X0156974Y0225235D01*
X0156856Y0224494D01*
X0156856Y0221334D01*
X0161441Y0221334D01*
X0161441Y0220966D01*
X0161809Y0220966D01*
X0161809Y0213413D01*
X0162000Y0213413D01*
X0162742Y0213530D01*
X0163455Y0213762D01*
X0164124Y0214103D01*
X0164731Y0214544D01*
X0165262Y0215075D01*
X0165703Y0215682D01*
X0166044Y0216351D01*
X0166276Y0217065D01*
X0166393Y0217806D01*
X0166393Y0220966D01*
X0161809Y0220966D01*
X0161809Y0221334D01*
X0166393Y0221334D01*
X0166393Y0224494D01*
X0166276Y0225235D01*
X0166044Y0225949D01*
X0165703Y0226618D01*
X0165262Y0227225D01*
X0164731Y0227756D01*
X0164124Y0228197D01*
X0163455Y0228538D01*
X0162742Y0228770D01*
X0162000Y0228887D01*
X0161809Y0228887D01*
X0161809Y0221334D01*
X0161441Y0221334D01*
X0161441Y0228887D01*
X0161250Y0228887D01*
X0160508Y0228770D01*
X0161441Y0228745D02*
X0161809Y0228745D01*
X0162819Y0228745D02*
X0200431Y0228745D01*
X0200508Y0228770D02*
X0199795Y0228538D01*
X0199126Y0228197D01*
X0198519Y0227756D01*
X0197988Y0227225D01*
X0197547Y0226618D01*
X0197206Y0225949D01*
X0196974Y0225235D01*
X0196856Y0224494D01*
X0196856Y0221334D01*
X0201441Y0221334D01*
X0201441Y0220966D01*
X0201809Y0220966D01*
X0201809Y0213413D01*
X0202000Y0213413D01*
X0202742Y0213530D01*
X0203455Y0213762D01*
X0204124Y0214103D01*
X0204731Y0214544D01*
X0205262Y0215075D01*
X0205703Y0215682D01*
X0206044Y0216351D01*
X0206276Y0217065D01*
X0206393Y0217806D01*
X0206393Y0220966D01*
X0201809Y0220966D01*
X0201809Y0221334D01*
X0206393Y0221334D01*
X0206393Y0224494D01*
X0206276Y0225235D01*
X0206044Y0225949D01*
X0205703Y0226618D01*
X0205262Y0227225D01*
X0204731Y0227756D01*
X0204124Y0228197D01*
X0203455Y0228538D01*
X0202742Y0228770D01*
X0202000Y0228887D01*
X0201809Y0228887D01*
X0201809Y0221334D01*
X0201441Y0221334D01*
X0201441Y0228887D01*
X0201250Y0228887D01*
X0200508Y0228770D01*
X0201441Y0228745D02*
X0201809Y0228745D01*
X0202819Y0228745D02*
X0243287Y0228745D01*
X0243208Y0228732D02*
X0242495Y0228500D01*
X0241826Y0228159D01*
X0241219Y0227718D01*
X0240688Y0227187D01*
X0240247Y0226580D01*
X0239906Y0225911D01*
X0239674Y0225198D01*
X0239556Y0224456D01*
X0239556Y0221297D01*
X0244141Y0221297D01*
X0244141Y0228849D01*
X0243950Y0228849D01*
X0243208Y0228732D01*
X0244141Y0228745D02*
X0244509Y0228745D01*
X0244509Y0228849D02*
X0244509Y0221297D01*
X0244141Y0221297D01*
X0244141Y0220928D01*
X0244509Y0220928D01*
X0244509Y0213375D01*
X0244700Y0213375D01*
X0245442Y0213493D01*
X0246155Y0213725D01*
X0246824Y0214066D01*
X0247431Y0214507D01*
X0247962Y0215038D01*
X0248403Y0215645D01*
X0248744Y0216314D01*
X0248976Y0217027D01*
X0249093Y0217769D01*
X0249093Y0220928D01*
X0244509Y0220928D01*
X0244509Y0221297D01*
X0249093Y0221297D01*
X0249093Y0224456D01*
X0248976Y0225198D01*
X0248744Y0225911D01*
X0248403Y0226580D01*
X0247962Y0227187D01*
X0247431Y0227718D01*
X0246824Y0228159D01*
X0246155Y0228500D01*
X0245442Y0228732D01*
X0244700Y0228849D01*
X0244509Y0228849D01*
X0245363Y0228745D02*
X0263287Y0228745D01*
X0263208Y0228732D02*
X0262495Y0228500D01*
X0261826Y0228159D01*
X0261219Y0227718D01*
X0260688Y0227187D01*
X0260247Y0226580D01*
X0259906Y0225911D01*
X0259674Y0225198D01*
X0259556Y0224456D01*
X0259556Y0221297D01*
X0264141Y0221297D01*
X0264141Y0228849D01*
X0263950Y0228849D01*
X0263208Y0228732D01*
X0264141Y0228745D02*
X0264509Y0228745D01*
X0264509Y0228849D02*
X0264509Y0221297D01*
X0264141Y0221297D01*
X0264141Y0220928D01*
X0264509Y0220928D01*
X0264509Y0213375D01*
X0264700Y0213375D01*
X0265442Y0213493D01*
X0266155Y0213725D01*
X0266824Y0214066D01*
X0267431Y0214507D01*
X0267962Y0215038D01*
X0268403Y0215645D01*
X0268744Y0216314D01*
X0268976Y0217027D01*
X0269093Y0217769D01*
X0269093Y0220928D01*
X0264509Y0220928D01*
X0264509Y0221297D01*
X0269093Y0221297D01*
X0269093Y0224456D01*
X0268976Y0225198D01*
X0268744Y0225911D01*
X0268403Y0226580D01*
X0267962Y0227187D01*
X0267431Y0227718D01*
X0266824Y0228159D01*
X0266155Y0228500D01*
X0265442Y0228732D01*
X0264700Y0228849D01*
X0264509Y0228849D01*
X0265363Y0228745D02*
X0293948Y0228745D01*
X0293025Y0227146D02*
X0287721Y0227146D01*
X0288198Y0226669D02*
X0286913Y0227954D01*
X0285234Y0228649D01*
X0283416Y0228649D01*
X0281737Y0227954D01*
X0280452Y0226669D01*
X0279756Y0224990D01*
X0279756Y0217235D01*
X0280452Y0215556D01*
X0281737Y0214271D01*
X0283416Y0213575D01*
X0285234Y0213575D01*
X0286913Y0214271D01*
X0288198Y0215556D01*
X0288893Y0217235D01*
X0288893Y0224990D01*
X0288198Y0226669D01*
X0288662Y0225548D02*
X0292592Y0225548D01*
X0292313Y0223949D02*
X0288893Y0223949D01*
X0288893Y0222351D02*
X0292313Y0222351D01*
X0292592Y0220752D02*
X0288893Y0220752D01*
X0288893Y0219153D02*
X0293025Y0219153D01*
X0293948Y0217555D02*
X0288893Y0217555D01*
X0288364Y0215956D02*
X0295235Y0215956D01*
X0297230Y0214358D02*
X0287000Y0214358D01*
X0281650Y0214358D02*
X0277000Y0214358D01*
X0276913Y0214271D02*
X0278198Y0215556D01*
X0278893Y0217235D01*
X0278893Y0224990D01*
X0278198Y0226669D01*
X0276913Y0227954D01*
X0275234Y0228649D01*
X0273416Y0228649D01*
X0271737Y0227954D01*
X0270452Y0226669D01*
X0269756Y0224990D01*
X0269756Y0217235D01*
X0270452Y0215556D01*
X0271737Y0214271D01*
X0273416Y0213575D01*
X0275234Y0213575D01*
X0276913Y0214271D01*
X0278364Y0215956D02*
X0280286Y0215956D01*
X0279756Y0217555D02*
X0278893Y0217555D01*
X0278893Y0219153D02*
X0279756Y0219153D01*
X0279756Y0220752D02*
X0278893Y0220752D01*
X0278893Y0222351D02*
X0279756Y0222351D01*
X0279756Y0223949D02*
X0278893Y0223949D01*
X0278662Y0225548D02*
X0279988Y0225548D01*
X0280929Y0227146D02*
X0277721Y0227146D01*
X0270929Y0227146D02*
X0267992Y0227146D01*
X0268862Y0225548D02*
X0269988Y0225548D01*
X0269756Y0223949D02*
X0269093Y0223949D01*
X0269093Y0222351D02*
X0269756Y0222351D01*
X0269756Y0220752D02*
X0269093Y0220752D01*
X0269093Y0219153D02*
X0269756Y0219153D01*
X0269756Y0217555D02*
X0269060Y0217555D01*
X0268562Y0215956D02*
X0270286Y0215956D01*
X0271650Y0214358D02*
X0267227Y0214358D01*
X0264509Y0214358D02*
X0264141Y0214358D01*
X0264141Y0213375D02*
X0264141Y0220928D01*
X0259556Y0220928D01*
X0259556Y0217769D01*
X0259674Y0217027D01*
X0259906Y0216314D01*
X0260247Y0215645D01*
X0260688Y0215038D01*
X0261219Y0214507D01*
X0261826Y0214066D01*
X0262495Y0213725D01*
X0263208Y0213493D01*
X0263950Y0213375D01*
X0264141Y0213375D01*
X0264141Y0215956D02*
X0264509Y0215956D01*
X0264509Y0217555D02*
X0264141Y0217555D01*
X0264141Y0219153D02*
X0264509Y0219153D01*
X0264509Y0220752D02*
X0264141Y0220752D01*
X0264141Y0222351D02*
X0264509Y0222351D01*
X0264509Y0223949D02*
X0264141Y0223949D01*
X0264141Y0225548D02*
X0264509Y0225548D01*
X0264509Y0227146D02*
X0264141Y0227146D01*
X0260658Y0227146D02*
X0257721Y0227146D01*
X0258198Y0226669D02*
X0256913Y0227954D01*
X0255234Y0228649D01*
X0253416Y0228649D01*
X0251737Y0227954D01*
X0250452Y0226669D01*
X0249756Y0224990D01*
X0249756Y0217235D01*
X0250452Y0215556D01*
X0251737Y0214271D01*
X0253416Y0213575D01*
X0255234Y0213575D01*
X0256913Y0214271D01*
X0258198Y0215556D01*
X0258893Y0217235D01*
X0258893Y0224990D01*
X0258198Y0226669D01*
X0258662Y0225548D02*
X0259788Y0225548D01*
X0259556Y0223949D02*
X0258893Y0223949D01*
X0258893Y0222351D02*
X0259556Y0222351D01*
X0259556Y0220752D02*
X0258893Y0220752D01*
X0258893Y0219153D02*
X0259556Y0219153D01*
X0259590Y0217555D02*
X0258893Y0217555D01*
X0258364Y0215956D02*
X0260088Y0215956D01*
X0261423Y0214358D02*
X0257000Y0214358D01*
X0251650Y0214358D02*
X0247227Y0214358D01*
X0248562Y0215956D02*
X0250286Y0215956D01*
X0249756Y0217555D02*
X0249060Y0217555D01*
X0249093Y0219153D02*
X0249756Y0219153D01*
X0249756Y0220752D02*
X0249093Y0220752D01*
X0249093Y0222351D02*
X0249756Y0222351D01*
X0249756Y0223949D02*
X0249093Y0223949D01*
X0248862Y0225548D02*
X0249988Y0225548D01*
X0250929Y0227146D02*
X0247992Y0227146D01*
X0244509Y0227146D02*
X0244141Y0227146D01*
X0244141Y0225548D02*
X0244509Y0225548D01*
X0244509Y0223949D02*
X0244141Y0223949D01*
X0244141Y0222351D02*
X0244509Y0222351D01*
X0244141Y0220928D02*
X0239556Y0220928D01*
X0239556Y0217769D01*
X0239674Y0217027D01*
X0239906Y0216314D01*
X0240247Y0215645D01*
X0240688Y0215038D01*
X0241219Y0214507D01*
X0241826Y0214066D01*
X0242495Y0213725D01*
X0243208Y0213493D01*
X0243950Y0213375D01*
X0244141Y0213375D01*
X0244141Y0220928D01*
X0244141Y0220752D02*
X0244509Y0220752D01*
X0244509Y0219153D02*
X0244141Y0219153D01*
X0244141Y0217555D02*
X0244509Y0217555D01*
X0244509Y0215956D02*
X0244141Y0215956D01*
X0244141Y0214358D02*
X0244509Y0214358D01*
X0241423Y0214358D02*
X0237000Y0214358D01*
X0236913Y0214271D02*
X0238198Y0215556D01*
X0238893Y0217235D01*
X0238893Y0224990D01*
X0238198Y0226669D01*
X0236913Y0227954D01*
X0235234Y0228649D01*
X0233416Y0228649D01*
X0231737Y0227954D01*
X0230452Y0226669D01*
X0229756Y0224990D01*
X0229756Y0217235D01*
X0230452Y0215556D01*
X0231737Y0214271D01*
X0233416Y0213575D01*
X0235234Y0213575D01*
X0236913Y0214271D01*
X0238364Y0215956D02*
X0240088Y0215956D01*
X0239590Y0217555D02*
X0238893Y0217555D01*
X0238893Y0219153D02*
X0239556Y0219153D01*
X0239556Y0220752D02*
X0238893Y0220752D01*
X0238893Y0222351D02*
X0239556Y0222351D01*
X0239556Y0223949D02*
X0238893Y0223949D01*
X0238662Y0225548D02*
X0239788Y0225548D01*
X0240658Y0227146D02*
X0237721Y0227146D01*
X0230929Y0227146D02*
X0225058Y0227146D01*
X0225498Y0226706D02*
X0224213Y0227991D01*
X0222534Y0228687D01*
X0220716Y0228687D01*
X0219037Y0227991D01*
X0217752Y0226706D01*
X0217056Y0225027D01*
X0217056Y0217273D01*
X0217752Y0215594D01*
X0219037Y0214309D01*
X0220716Y0213613D01*
X0222534Y0213613D01*
X0224213Y0214309D01*
X0225498Y0215594D01*
X0226193Y0217273D01*
X0226193Y0225027D01*
X0225498Y0226706D01*
X0225978Y0225548D02*
X0229988Y0225548D01*
X0229756Y0223949D02*
X0226193Y0223949D01*
X0226193Y0222351D02*
X0229756Y0222351D01*
X0229756Y0220752D02*
X0226193Y0220752D01*
X0226193Y0219153D02*
X0229756Y0219153D01*
X0229756Y0217555D02*
X0226193Y0217555D01*
X0225648Y0215956D02*
X0230286Y0215956D01*
X0231650Y0214358D02*
X0224262Y0214358D01*
X0218988Y0214358D02*
X0214262Y0214358D01*
X0214213Y0214309D02*
X0215498Y0215594D01*
X0216193Y0217273D01*
X0216193Y0225027D01*
X0215498Y0226706D01*
X0214213Y0227991D01*
X0212534Y0228687D01*
X0210716Y0228687D01*
X0209037Y0227991D01*
X0207752Y0226706D01*
X0207056Y0225027D01*
X0207056Y0217273D01*
X0207752Y0215594D01*
X0209037Y0214309D01*
X0210716Y0213613D01*
X0212534Y0213613D01*
X0214213Y0214309D01*
X0215648Y0215956D02*
X0217602Y0215956D01*
X0217056Y0217555D02*
X0216193Y0217555D01*
X0216193Y0219153D02*
X0217056Y0219153D01*
X0217056Y0220752D02*
X0216193Y0220752D01*
X0216193Y0222351D02*
X0217056Y0222351D01*
X0217056Y0223949D02*
X0216193Y0223949D01*
X0215978Y0225548D02*
X0217272Y0225548D01*
X0218192Y0227146D02*
X0215058Y0227146D01*
X0208192Y0227146D02*
X0205320Y0227146D01*
X0206175Y0225548D02*
X0207272Y0225548D01*
X0207056Y0223949D02*
X0206393Y0223949D01*
X0206393Y0222351D02*
X0207056Y0222351D01*
X0207056Y0220752D02*
X0206393Y0220752D01*
X0206393Y0219153D02*
X0207056Y0219153D01*
X0207056Y0217555D02*
X0206354Y0217555D01*
X0205843Y0215956D02*
X0207602Y0215956D01*
X0208988Y0214358D02*
X0204475Y0214358D01*
X0201809Y0214358D02*
X0201441Y0214358D01*
X0201441Y0213413D02*
X0201441Y0220966D01*
X0196856Y0220966D01*
X0196856Y0217806D01*
X0196974Y0217065D01*
X0197206Y0216351D01*
X0197547Y0215682D01*
X0197988Y0215075D01*
X0198519Y0214544D01*
X0199126Y0214103D01*
X0199795Y0213762D01*
X0200508Y0213530D01*
X0201250Y0213413D01*
X0201441Y0213413D01*
X0201441Y0215956D02*
X0201809Y0215956D01*
X0201809Y0217555D02*
X0201441Y0217555D01*
X0201441Y0219153D02*
X0201809Y0219153D01*
X0201809Y0220752D02*
X0201441Y0220752D01*
X0201441Y0222351D02*
X0201809Y0222351D01*
X0201809Y0223949D02*
X0201441Y0223949D01*
X0201441Y0225548D02*
X0201809Y0225548D01*
X0201809Y0227146D02*
X0201441Y0227146D01*
X0197930Y0227146D02*
X0195058Y0227146D01*
X0195498Y0226706D02*
X0194213Y0227991D01*
X0192534Y0228687D01*
X0190716Y0228687D01*
X0189037Y0227991D01*
X0187752Y0226706D01*
X0187056Y0225027D01*
X0187056Y0217273D01*
X0187752Y0215594D01*
X0189037Y0214309D01*
X0190716Y0213613D01*
X0192534Y0213613D01*
X0194213Y0214309D01*
X0195498Y0215594D01*
X0196193Y0217273D01*
X0196193Y0225027D01*
X0195498Y0226706D01*
X0195978Y0225548D02*
X0197075Y0225548D01*
X0196856Y0223949D02*
X0196193Y0223949D01*
X0196193Y0222351D02*
X0196856Y0222351D01*
X0196856Y0220752D02*
X0196193Y0220752D01*
X0196193Y0219153D02*
X0196856Y0219153D01*
X0196896Y0217555D02*
X0196193Y0217555D01*
X0195648Y0215956D02*
X0197407Y0215956D01*
X0198775Y0214358D02*
X0194262Y0214358D01*
X0188988Y0214358D02*
X0184262Y0214358D01*
X0184213Y0214309D02*
X0185498Y0215594D01*
X0186193Y0217273D01*
X0186193Y0225027D01*
X0185498Y0226706D01*
X0184213Y0227991D01*
X0182534Y0228687D01*
X0180716Y0228687D01*
X0179037Y0227991D01*
X0177752Y0226706D01*
X0177056Y0225027D01*
X0177056Y0217273D01*
X0177752Y0215594D01*
X0179037Y0214309D01*
X0180716Y0213613D01*
X0182534Y0213613D01*
X0184213Y0214309D01*
X0185648Y0215956D02*
X0187602Y0215956D01*
X0187056Y0217555D02*
X0186193Y0217555D01*
X0186193Y0219153D02*
X0187056Y0219153D01*
X0187056Y0220752D02*
X0186193Y0220752D01*
X0186193Y0222351D02*
X0187056Y0222351D01*
X0187056Y0223949D02*
X0186193Y0223949D01*
X0185978Y0225548D02*
X0187272Y0225548D01*
X0188192Y0227146D02*
X0185058Y0227146D01*
X0178192Y0227146D02*
X0175058Y0227146D01*
X0175498Y0226706D02*
X0174213Y0227991D01*
X0172534Y0228687D01*
X0170716Y0228687D01*
X0169037Y0227991D01*
X0167752Y0226706D01*
X0167056Y0225027D01*
X0167056Y0217273D01*
X0167752Y0215594D01*
X0169037Y0214309D01*
X0170716Y0213613D01*
X0172534Y0213613D01*
X0174213Y0214309D01*
X0175498Y0215594D01*
X0176193Y0217273D01*
X0176193Y0225027D01*
X0175498Y0226706D01*
X0175978Y0225548D02*
X0177272Y0225548D01*
X0177056Y0223949D02*
X0176193Y0223949D01*
X0176193Y0222351D02*
X0177056Y0222351D01*
X0177056Y0220752D02*
X0176193Y0220752D01*
X0176193Y0219153D02*
X0177056Y0219153D01*
X0177056Y0217555D02*
X0176193Y0217555D01*
X0175648Y0215956D02*
X0177602Y0215956D01*
X0178988Y0214358D02*
X0174262Y0214358D01*
X0168988Y0214358D02*
X0164475Y0214358D01*
X0165843Y0215956D02*
X0167602Y0215956D01*
X0167056Y0217555D02*
X0166354Y0217555D01*
X0166393Y0219153D02*
X0167056Y0219153D01*
X0167056Y0220752D02*
X0166393Y0220752D01*
X0166393Y0222351D02*
X0167056Y0222351D01*
X0167056Y0223949D02*
X0166393Y0223949D01*
X0166175Y0225548D02*
X0167272Y0225548D01*
X0168192Y0227146D02*
X0165320Y0227146D01*
X0161809Y0227146D02*
X0161441Y0227146D01*
X0161441Y0225548D02*
X0161809Y0225548D01*
X0161809Y0223949D02*
X0161441Y0223949D01*
X0161441Y0222351D02*
X0161809Y0222351D01*
X0161441Y0220966D02*
X0156856Y0220966D01*
X0156856Y0217806D01*
X0156974Y0217065D01*
X0157206Y0216351D01*
X0157547Y0215682D01*
X0157988Y0215075D01*
X0158519Y0214544D01*
X0159126Y0214103D01*
X0159795Y0213762D01*
X0160508Y0213530D01*
X0161250Y0213413D01*
X0161441Y0213413D01*
X0161441Y0220966D01*
X0161441Y0220752D02*
X0161809Y0220752D01*
X0161809Y0219153D02*
X0161441Y0219153D01*
X0161441Y0217555D02*
X0161809Y0217555D01*
X0161809Y0215956D02*
X0161441Y0215956D01*
X0161441Y0214358D02*
X0161809Y0214358D01*
X0158775Y0214358D02*
X0154262Y0214358D01*
X0155648Y0215956D02*
X0157407Y0215956D01*
X0156896Y0217555D02*
X0156193Y0217555D01*
X0156193Y0219153D02*
X0156856Y0219153D01*
X0156856Y0220752D02*
X0156193Y0220752D01*
X0156193Y0222351D02*
X0156856Y0222351D01*
X0156856Y0223949D02*
X0156193Y0223949D01*
X0155978Y0225548D02*
X0157075Y0225548D01*
X0157930Y0227146D02*
X0155058Y0227146D01*
X0072980Y0203168D02*
X0010425Y0203168D01*
X0010425Y0201570D02*
X0306425Y0201570D01*
X0306425Y0199971D02*
X0010425Y0199971D01*
X0010425Y0204767D02*
X0071535Y0204767D01*
X0071241Y0206365D02*
X0010425Y0206365D01*
X0010425Y0207964D02*
X0071713Y0207964D01*
X0028015Y0230343D02*
X0295235Y0230343D01*
X0297229Y0231942D02*
X0026021Y0231942D01*
X0010592Y0220752D02*
X0010425Y0220752D01*
X0010425Y0219153D02*
X0011025Y0219153D01*
X0010425Y0217555D02*
X0011948Y0217555D01*
X0013235Y0215956D02*
X0010425Y0215956D01*
X0010425Y0214358D02*
X0015230Y0214358D01*
X0010425Y0212759D02*
X0310825Y0212759D01*
X0310825Y0211161D02*
X0010425Y0211161D01*
X0010425Y0209562D02*
X0310825Y0209562D01*
X0310825Y0214358D02*
X0308020Y0214358D01*
X0310015Y0215956D02*
X0310825Y0215956D01*
X0306425Y0198373D02*
X0303188Y0198373D01*
X0304009Y0196774D02*
X0306425Y0196774D01*
X0306425Y0195176D02*
X0303885Y0195176D01*
X0302838Y0193577D02*
X0306425Y0193577D01*
X0306425Y0191979D02*
X0258594Y0191979D01*
X0258658Y0190380D02*
X0306425Y0190380D01*
X0306425Y0188782D02*
X0258722Y0188782D01*
X0258786Y0187183D02*
X0262872Y0187183D01*
X0262756Y0187067D02*
X0263708Y0188019D01*
X0264952Y0188534D01*
X0266298Y0188534D01*
X0267542Y0188019D01*
X0268211Y0187350D01*
X0288039Y0187350D01*
X0288708Y0188019D01*
X0289952Y0188534D01*
X0291298Y0188534D01*
X0292542Y0188019D01*
X0293494Y0187067D01*
X0294009Y0185823D01*
X0294009Y0184477D01*
X0293494Y0183233D01*
X0292542Y0182281D01*
X0291298Y0181766D01*
X0289952Y0181766D01*
X0288708Y0182281D01*
X0288039Y0182950D01*
X0268211Y0182950D01*
X0267542Y0182281D01*
X0266298Y0181766D01*
X0264952Y0181766D01*
X0263708Y0182281D01*
X0262756Y0183233D01*
X0262241Y0184477D01*
X0262241Y0185823D01*
X0262756Y0187067D01*
X0262241Y0185585D02*
X0258850Y0185585D01*
X0258914Y0183986D02*
X0262444Y0183986D01*
X0263601Y0182388D02*
X0258978Y0182388D01*
X0259042Y0180789D02*
X0286835Y0180789D01*
X0285557Y0179191D02*
X0259106Y0179191D01*
X0259170Y0177592D02*
X0285088Y0177592D01*
X0285191Y0175994D02*
X0259233Y0175994D01*
X0259297Y0174395D02*
X0285950Y0174395D01*
X0288228Y0172797D02*
X0259606Y0172797D01*
X0260009Y0171198D02*
X0287492Y0171198D01*
X0285726Y0169600D02*
X0259646Y0169600D01*
X0265851Y0163206D02*
X0287241Y0163206D01*
X0288479Y0161607D02*
X0266009Y0161607D01*
X0265270Y0160009D02*
X0286054Y0160009D01*
X0286731Y0153615D02*
X0260652Y0153615D01*
X0260880Y0139228D02*
X0285572Y0139228D01*
X0285088Y0137629D02*
X0262024Y0137629D01*
X0262025Y0136031D02*
X0285175Y0136031D01*
X0285913Y0134432D02*
X0262025Y0134432D01*
X0262025Y0132834D02*
X0288138Y0132834D01*
X0288748Y0131718D02*
X0287069Y0131023D01*
X0285784Y0129738D01*
X0285088Y0128059D01*
X0285088Y0126241D01*
X0285784Y0124562D01*
X0287069Y0123277D01*
X0288748Y0122581D01*
X0296502Y0122581D01*
X0298181Y0123277D01*
X0299466Y0124562D01*
X0300162Y0126241D01*
X0300162Y0128059D01*
X0299466Y0129738D01*
X0298181Y0131023D01*
X0296502Y0131718D01*
X0288748Y0131718D01*
X0287581Y0131235D02*
X0262025Y0131235D01*
X0262025Y0129637D02*
X0285742Y0129637D01*
X0285088Y0128038D02*
X0262025Y0128038D01*
X0262025Y0126440D02*
X0285088Y0126440D01*
X0285668Y0124841D02*
X0262025Y0124841D01*
X0262025Y0123243D02*
X0287151Y0123243D01*
X0287826Y0121569D02*
X0287157Y0121228D01*
X0286550Y0120787D01*
X0286019Y0120256D01*
X0285578Y0119649D01*
X0285237Y0118980D01*
X0285005Y0118267D01*
X0284888Y0117525D01*
X0284888Y0117334D01*
X0292441Y0117334D01*
X0292441Y0116966D01*
X0292809Y0116966D01*
X0292809Y0112381D01*
X0295969Y0112381D01*
X0296710Y0112499D01*
X0297424Y0112731D01*
X0298093Y0113072D01*
X0298700Y0113513D01*
X0299231Y0114044D01*
X0299672Y0114651D01*
X0300013Y0115320D01*
X0300245Y0116033D01*
X0300362Y0116775D01*
X0300362Y0116966D01*
X0292809Y0116966D01*
X0292809Y0117334D01*
X0292441Y0117334D01*
X0292441Y0121918D01*
X0289281Y0121918D01*
X0288540Y0121801D01*
X0287826Y0121569D01*
X0288057Y0121644D02*
X0262025Y0121644D01*
X0262025Y0120046D02*
X0285866Y0120046D01*
X0285064Y0118447D02*
X0262025Y0118447D01*
X0262025Y0116849D02*
X0284888Y0116849D01*
X0284888Y0116775D02*
X0285005Y0116033D01*
X0285237Y0115320D01*
X0285578Y0114651D01*
X0286019Y0114044D01*
X0286550Y0113513D01*
X0287157Y0113072D01*
X0287826Y0112731D01*
X0288540Y0112499D01*
X0289281Y0112381D01*
X0292441Y0112381D01*
X0292441Y0116966D01*
X0284888Y0116966D01*
X0284888Y0116775D01*
X0285273Y0115250D02*
X0262025Y0115250D01*
X0262025Y0113652D02*
X0286411Y0113652D01*
X0286500Y0110455D02*
X0262025Y0110455D01*
X0262025Y0112053D02*
X0306425Y0112053D01*
X0306425Y0110455D02*
X0298750Y0110455D01*
X0298839Y0113652D02*
X0306425Y0113652D01*
X0306425Y0115250D02*
X0299977Y0115250D01*
X0300362Y0116849D02*
X0306425Y0116849D01*
X0306425Y0118447D02*
X0300186Y0118447D01*
X0300245Y0118267D02*
X0300013Y0118980D01*
X0299672Y0119649D01*
X0299231Y0120256D01*
X0298700Y0120787D01*
X0298093Y0121228D01*
X0297424Y0121569D01*
X0296710Y0121801D01*
X0295969Y0121918D01*
X0292809Y0121918D01*
X0292809Y0117334D01*
X0300362Y0117334D01*
X0300362Y0117525D01*
X0300245Y0118267D01*
X0299384Y0120046D02*
X0306425Y0120046D01*
X0306425Y0121644D02*
X0297193Y0121644D01*
X0298099Y0123243D02*
X0306425Y0123243D01*
X0306425Y0124841D02*
X0299582Y0124841D01*
X0300162Y0126440D02*
X0306425Y0126440D01*
X0306425Y0128038D02*
X0300162Y0128038D01*
X0299508Y0129637D02*
X0306425Y0129637D01*
X0306425Y0131235D02*
X0297669Y0131235D01*
X0297112Y0132834D02*
X0306425Y0132834D01*
X0306425Y0134432D02*
X0299337Y0134432D01*
X0300075Y0136031D02*
X0306425Y0136031D01*
X0306425Y0137629D02*
X0300162Y0137629D01*
X0299678Y0139228D02*
X0306425Y0139228D01*
X0306425Y0140826D02*
X0298378Y0140826D01*
X0296243Y0142425D02*
X0306425Y0142425D01*
X0306425Y0144023D02*
X0299211Y0144023D01*
X0300111Y0145622D02*
X0306425Y0145622D01*
X0306425Y0153615D02*
X0298519Y0153615D01*
X0299736Y0155213D02*
X0306425Y0155213D01*
X0306425Y0156812D02*
X0300162Y0156812D01*
X0300016Y0158410D02*
X0306425Y0158410D01*
X0306425Y0160009D02*
X0299196Y0160009D01*
X0296771Y0161607D02*
X0306425Y0161607D01*
X0306425Y0163206D02*
X0298009Y0163206D01*
X0299567Y0164804D02*
X0306425Y0164804D01*
X0306425Y0166403D02*
X0300162Y0166403D01*
X0300162Y0168001D02*
X0306425Y0168001D01*
X0306425Y0169600D02*
X0299524Y0169600D01*
X0297758Y0171198D02*
X0306425Y0171198D01*
X0306425Y0172797D02*
X0297022Y0172797D01*
X0298415Y0180789D02*
X0306425Y0180789D01*
X0306425Y0182388D02*
X0292649Y0182388D01*
X0293806Y0183986D02*
X0306425Y0183986D01*
X0306425Y0185585D02*
X0294009Y0185585D01*
X0293378Y0187183D02*
X0306425Y0187183D01*
X0288601Y0182388D02*
X0267649Y0182388D01*
X0287157Y0151228D02*
X0287826Y0151569D01*
X0288540Y0151801D01*
X0289281Y0151918D01*
X0292441Y0151918D01*
X0292441Y0147334D01*
X0284888Y0147334D01*
X0284888Y0147525D01*
X0285005Y0148267D01*
X0285237Y0148980D01*
X0285578Y0149649D01*
X0286019Y0150256D01*
X0286550Y0150787D01*
X0287157Y0151228D01*
X0286180Y0150418D02*
X0205025Y0150418D01*
X0205025Y0148819D02*
X0285185Y0148819D01*
X0292441Y0148819D02*
X0292809Y0148819D01*
X0292809Y0150418D02*
X0292441Y0150418D01*
X0292441Y0145622D02*
X0292809Y0145622D01*
X0292809Y0144023D02*
X0292441Y0144023D01*
X0292441Y0142425D02*
X0292809Y0142425D01*
X0275625Y0143150D02*
X0243625Y0143150D01*
X0257225Y0134432D02*
X0196660Y0134432D01*
X0196685Y0132834D02*
X0257225Y0132834D01*
X0257225Y0131235D02*
X0196711Y0131235D01*
X0196737Y0129637D02*
X0257225Y0129637D01*
X0257225Y0128038D02*
X0196763Y0128038D01*
X0196788Y0126440D02*
X0257225Y0126440D01*
X0257225Y0124841D02*
X0196814Y0124841D01*
X0196710Y0123243D02*
X0257225Y0123243D01*
X0257225Y0121644D02*
X0235917Y0121644D01*
X0236917Y0120046D02*
X0257225Y0120046D01*
X0257225Y0118447D02*
X0248508Y0118447D01*
X0246742Y0118447D02*
X0236997Y0118447D01*
X0231333Y0121644D02*
X0195653Y0121644D01*
X0189825Y0108856D02*
X0252133Y0108856D01*
X0256421Y0107258D02*
X0189825Y0107258D01*
X0189825Y0105659D02*
X0256241Y0105659D01*
X0256928Y0104061D02*
X0189825Y0104061D01*
X0189825Y0102462D02*
X0310825Y0102462D01*
X0310825Y0100864D02*
X0255825Y0100864D01*
X0255825Y0099265D02*
X0310825Y0099265D01*
X0310825Y0097667D02*
X0298798Y0097667D01*
X0300085Y0096068D02*
X0310825Y0096068D01*
X0310825Y0094470D02*
X0300562Y0094470D01*
X0300478Y0092871D02*
X0310825Y0092871D01*
X0310825Y0091273D02*
X0299777Y0091273D01*
X0297955Y0089674D02*
X0310825Y0089674D01*
X0310825Y0088076D02*
X0297766Y0088076D01*
X0299711Y0086477D02*
X0310825Y0086477D01*
X0310825Y0084879D02*
X0300374Y0084879D01*
X0300387Y0083280D02*
X0310825Y0083280D01*
X0310825Y0081682D02*
X0299829Y0081682D01*
X0298425Y0080083D02*
X0310825Y0080083D01*
X0310825Y0078484D02*
X0296779Y0078484D01*
X0296727Y0078506D02*
X0298406Y0077810D01*
X0299691Y0076525D01*
X0300387Y0074846D01*
X0300387Y0073029D01*
X0299691Y0071350D01*
X0298406Y0070065D01*
X0296727Y0069369D01*
X0288973Y0069369D01*
X0287294Y0070065D01*
X0286009Y0071350D01*
X0285313Y0073029D01*
X0285313Y0074846D01*
X0286009Y0076525D01*
X0287294Y0077810D01*
X0288973Y0078506D01*
X0296727Y0078506D01*
X0299331Y0076886D02*
X0310825Y0076886D01*
X0310825Y0075287D02*
X0300204Y0075287D01*
X0300387Y0073689D02*
X0310825Y0073689D01*
X0310825Y0072090D02*
X0299998Y0072090D01*
X0298834Y0070492D02*
X0310825Y0070492D01*
X0310825Y0068893D02*
X0267825Y0068893D01*
X0267825Y0067295D02*
X0275374Y0067295D01*
X0273602Y0065696D02*
X0267825Y0065696D01*
X0267825Y0064098D02*
X0273241Y0064098D01*
X0273646Y0062499D02*
X0267825Y0062499D01*
X0267825Y0060901D02*
X0274425Y0060901D01*
X0274425Y0059302D02*
X0274259Y0059302D01*
X0278825Y0060901D02*
X0286457Y0060901D01*
X0286009Y0061350D02*
X0287294Y0060065D01*
X0288973Y0059369D01*
X0296727Y0059369D01*
X0298406Y0060065D01*
X0299691Y0061350D01*
X0300387Y0063029D01*
X0300387Y0064846D01*
X0299691Y0066525D01*
X0298406Y0067810D01*
X0296727Y0068506D01*
X0288973Y0068506D01*
X0287294Y0067810D01*
X0286009Y0066525D01*
X0285313Y0064846D01*
X0285313Y0063029D01*
X0286009Y0061350D01*
X0285532Y0062499D02*
X0279604Y0062499D01*
X0280009Y0064098D02*
X0285313Y0064098D01*
X0285665Y0065696D02*
X0279648Y0065696D01*
X0277876Y0067295D02*
X0286778Y0067295D01*
X0286866Y0070492D02*
X0267825Y0070492D01*
X0267825Y0072090D02*
X0285702Y0072090D01*
X0285313Y0073689D02*
X0267825Y0073689D01*
X0267825Y0075287D02*
X0285496Y0075287D01*
X0286369Y0076886D02*
X0267825Y0076886D01*
X0267825Y0078484D02*
X0288921Y0078484D01*
X0287275Y0080083D02*
X0267825Y0080083D01*
X0267825Y0081682D02*
X0285871Y0081682D01*
X0292666Y0089674D02*
X0293034Y0089674D01*
X0293034Y0091273D02*
X0292666Y0091273D01*
X0292666Y0092871D02*
X0293034Y0092871D01*
X0293034Y0094470D02*
X0292666Y0094470D01*
X0292666Y0096068D02*
X0293034Y0096068D01*
X0293034Y0097667D02*
X0292666Y0097667D01*
X0286285Y0104061D02*
X0262322Y0104061D01*
X0263009Y0105659D02*
X0285329Y0105659D01*
X0285088Y0107258D02*
X0262829Y0107258D01*
X0262025Y0108856D02*
X0285418Y0108856D01*
X0292441Y0113652D02*
X0292809Y0113652D01*
X0292809Y0115250D02*
X0292441Y0115250D01*
X0292441Y0116849D02*
X0292809Y0116849D01*
X0292809Y0118447D02*
X0292441Y0118447D01*
X0292441Y0120046D02*
X0292809Y0120046D01*
X0292809Y0121644D02*
X0292441Y0121644D01*
X0310529Y0104061D02*
X0310825Y0104061D01*
X0310825Y0067295D02*
X0298922Y0067295D01*
X0300035Y0065696D02*
X0310825Y0065696D01*
X0310825Y0064098D02*
X0300387Y0064098D01*
X0300168Y0062499D02*
X0310825Y0062499D01*
X0310825Y0060901D02*
X0299243Y0060901D01*
X0268991Y0059302D02*
X0267825Y0059302D01*
X0267825Y0057704D02*
X0268241Y0057704D01*
X0268395Y0056105D02*
X0267825Y0056105D01*
X0267825Y0054507D02*
X0268825Y0054507D01*
X0268825Y0052908D02*
X0267825Y0052908D01*
X0267825Y0051310D02*
X0268825Y0051310D01*
X0268825Y0049711D02*
X0267825Y0049711D01*
X0268825Y0048113D02*
X0266699Y0048113D01*
X0263425Y0030529D02*
X0260359Y0030529D01*
X0261650Y0028931D02*
X0263425Y0028931D01*
X0257050Y0025734D02*
X0256650Y0025734D01*
X0256650Y0024135D02*
X0257050Y0024135D01*
X0257050Y0022537D02*
X0256650Y0022537D01*
X0254033Y0020938D02*
X0249667Y0020938D01*
X0251266Y0019340D02*
X0252434Y0019340D01*
X0252250Y0017741D02*
X0251450Y0017741D01*
X0251450Y0016143D02*
X0252250Y0016143D01*
X0253051Y0014544D02*
X0250649Y0014544D01*
X0243051Y0014544D02*
X0241450Y0014544D01*
X0241450Y0016143D02*
X0242250Y0016143D01*
X0242250Y0017741D02*
X0241450Y0017741D01*
X0241450Y0019340D02*
X0242434Y0019340D01*
X0241425Y0020938D02*
X0244033Y0020938D01*
X0243459Y0024135D02*
X0240240Y0024135D01*
X0241450Y0025734D02*
X0242250Y0025734D01*
X0242250Y0027332D02*
X0241450Y0027332D01*
X0241450Y0028931D02*
X0242250Y0028931D01*
X0243624Y0030529D02*
X0240076Y0030529D01*
X0250076Y0030529D02*
X0253341Y0030529D01*
X0252050Y0028931D02*
X0251450Y0028931D01*
X0232275Y0020938D02*
X0226825Y0020938D01*
X0227221Y0019340D02*
X0232250Y0019340D01*
X0232250Y0017741D02*
X0228009Y0017741D01*
X0227871Y0016143D02*
X0232250Y0016143D01*
X0232250Y0014544D02*
X0226805Y0014544D01*
X0221880Y0072090D02*
X0199425Y0072090D01*
X0190425Y0081682D02*
X0189825Y0081682D01*
X0189825Y0083280D02*
X0190425Y0083280D01*
X0190425Y0084879D02*
X0189825Y0084879D01*
X0189825Y0086477D02*
X0190425Y0086477D01*
X0190425Y0088076D02*
X0189825Y0088076D01*
X0189825Y0089674D02*
X0190425Y0089674D01*
X0190425Y0091273D02*
X0189825Y0091273D01*
X0189825Y0092871D02*
X0190425Y0092871D01*
X0190425Y0094470D02*
X0189825Y0094470D01*
X0189825Y0096068D02*
X0190425Y0096068D01*
X0190425Y0097667D02*
X0189825Y0097667D01*
X0189825Y0099265D02*
X0190425Y0099265D01*
X0190425Y0100864D02*
X0189825Y0100864D01*
X0177425Y0100864D02*
X0176825Y0100864D01*
X0176825Y0102462D02*
X0177425Y0102462D01*
X0177425Y0104061D02*
X0176825Y0104061D01*
X0176825Y0105659D02*
X0177425Y0105659D01*
X0177425Y0107258D02*
X0175629Y0107258D01*
X0177425Y0108856D02*
X0148822Y0108856D01*
X0148822Y0107258D02*
X0155947Y0107258D01*
X0155241Y0105659D02*
X0148822Y0105659D01*
X0148822Y0104061D02*
X0155413Y0104061D01*
X0156527Y0102462D02*
X0148822Y0102462D01*
X0148823Y0100864D02*
X0172425Y0100864D01*
X0172425Y0102462D02*
X0160723Y0102462D01*
X0172425Y0099265D02*
X0148823Y0099265D01*
X0148823Y0097667D02*
X0172425Y0097667D01*
X0176825Y0097667D02*
X0177425Y0097667D01*
X0177425Y0099265D02*
X0176825Y0099265D01*
X0176825Y0096068D02*
X0177425Y0096068D01*
X0177425Y0094470D02*
X0176825Y0094470D01*
X0176825Y0092871D02*
X0177425Y0092871D01*
X0177425Y0091273D02*
X0176825Y0091273D01*
X0176825Y0089674D02*
X0177425Y0089674D01*
X0177425Y0088076D02*
X0176825Y0088076D01*
X0176825Y0086477D02*
X0177166Y0086477D01*
X0177425Y0110455D02*
X0148822Y0110455D01*
X0148822Y0112053D02*
X0177425Y0112053D01*
X0177425Y0113652D02*
X0148821Y0113652D01*
X0148821Y0115250D02*
X0177425Y0115250D01*
X0178110Y0116849D02*
X0178213Y0116849D01*
X0173140Y0116849D02*
X0148821Y0116849D01*
X0148821Y0118447D02*
X0172253Y0118447D01*
X0172333Y0120046D02*
X0148821Y0120046D01*
X0142421Y0120046D02*
X0078569Y0120046D01*
X0077743Y0126440D02*
X0066526Y0126440D01*
X0064724Y0126440D02*
X0030681Y0126440D01*
X0030658Y0124841D02*
X0062662Y0124841D01*
X0062241Y0123243D02*
X0030062Y0123243D01*
X0028482Y0121644D02*
X0062586Y0121644D01*
X0064276Y0120046D02*
X0027445Y0120046D01*
X0023184Y0121644D02*
X0022816Y0121644D01*
X0022816Y0123243D02*
X0023184Y0123243D01*
X0023184Y0124841D02*
X0022816Y0124841D01*
X0022816Y0126440D02*
X0023184Y0126440D01*
X0023184Y0128038D02*
X0022816Y0128038D01*
X0022816Y0129637D02*
X0023184Y0129637D01*
X0032885Y0150418D02*
X0071425Y0150418D01*
X0071425Y0152016D02*
X0034484Y0152016D01*
X0035204Y0153615D02*
X0071425Y0153615D01*
X0071425Y0155213D02*
X0035584Y0155213D01*
X0035584Y0156812D02*
X0071425Y0156812D01*
X0071425Y0158410D02*
X0035060Y0158410D01*
X0034136Y0160009D02*
X0071425Y0160009D01*
X0071425Y0161607D02*
X0032259Y0161607D01*
X0196324Y0155213D02*
X0200225Y0155213D01*
X0200225Y0153615D02*
X0196350Y0153615D01*
X0196376Y0152016D02*
X0200225Y0152016D01*
X0200225Y0150418D02*
X0196402Y0150418D01*
X0196428Y0148819D02*
X0200225Y0148819D01*
X0200225Y0147220D02*
X0196453Y0147220D01*
X0196479Y0145622D02*
X0200225Y0145622D01*
X0200225Y0144023D02*
X0196505Y0144023D01*
X0196531Y0142425D02*
X0200225Y0142425D01*
X0200225Y0140826D02*
X0196556Y0140826D01*
X0196582Y0139228D02*
X0200225Y0139228D01*
X0200225Y0137629D02*
X0196608Y0137629D01*
X0196634Y0136031D02*
X0200491Y0136031D01*
X0202625Y0137150D02*
X0259625Y0137150D01*
X0259625Y0106150D01*
X0257225Y0108856D02*
X0257117Y0108856D01*
X0257225Y0113652D02*
X0256909Y0113652D01*
X0257225Y0115250D02*
X0251009Y0115250D01*
X0250667Y0113652D02*
X0252341Y0113652D01*
X0250584Y0116849D02*
X0257225Y0116849D01*
X0013421Y0030529D02*
X0010425Y0030529D01*
X0010425Y0028931D02*
X0012055Y0028931D01*
X0011133Y0027332D02*
X0010425Y0027332D01*
X0010425Y0025734D02*
X0010642Y0025734D01*
D18*
X0065588Y0147688D03*
X0085800Y0149525D03*
D19*
X0103625Y0116150D02*
X0103625Y0099150D01*
X0111625Y0103150D02*
X0111625Y0060150D01*
X0180625Y0060150D01*
X0180625Y0038150D01*
X0220625Y0038150D01*
X0228625Y0034150D02*
X0265625Y0034150D01*
X0265625Y0017150D01*
X0232625Y0038150D02*
X0232625Y0056150D01*
X0260625Y0056150D01*
X0260625Y0058150D01*
X0253625Y0060150D02*
X0253625Y0100150D01*
X0192625Y0100150D01*
X0192625Y0073150D01*
X0174625Y0073150D01*
X0174625Y0105150D01*
X0158625Y0105150D01*
X0175625Y0119150D02*
X0233625Y0119150D01*
X0238625Y0123150D02*
X0247625Y0123150D01*
X0247625Y0115150D02*
X0179625Y0115150D01*
X0179625Y0084150D01*
X0187625Y0078150D02*
X0187625Y0111150D01*
X0254625Y0111150D01*
X0265625Y0084150D02*
X0292850Y0083938D01*
X0276625Y0064150D02*
X0276625Y0049150D01*
X0265625Y0050150D02*
X0265625Y0084150D01*
X0228625Y0066150D02*
X0228625Y0034150D01*
X0224625Y0048150D02*
X0224625Y0017150D01*
X0192500Y0013150D02*
X0095625Y0013150D01*
X0095625Y0048150D01*
X0088625Y0048150D01*
X0088625Y0045150D01*
X0088625Y0048150D02*
X0065625Y0048150D01*
X0121625Y0053150D02*
X0155625Y0053150D01*
X0192500Y0023000D02*
X0192500Y0013150D01*
X0224625Y0048150D02*
X0223625Y0069150D01*
X0243625Y0050150D02*
X0265625Y0050150D01*
X0248625Y0151150D02*
X0200625Y0191150D01*
X0211625Y0191150D02*
X0252625Y0162150D01*
X0262625Y0162150D01*
X0257625Y0157150D02*
X0257625Y0155150D01*
X0257625Y0157150D02*
X0292625Y0157150D01*
X0292625Y0167150D02*
X0253625Y0166150D01*
X0265625Y0185150D02*
X0290625Y0185150D01*
X0181625Y0184150D02*
X0181625Y0154150D01*
X0171625Y0154150D01*
M02*
