G75*
%MOIN*%
%OFA0B0*%
%FSLAX25Y25*%
%IPPOS*%
%LPD*%
%AMOC8*
5,1,8,0,0,1.08239X$1,22.5*
%
%ADD10C,0.11824*%
%ADD11C,0.06737*%
%ADD12C,0.04343*%
%ADD13R,0.06800X0.06800*%
%ADD14OC8,0.06800*%
%ADD15C,0.04369*%
%ADD16R,0.04762X0.04762*%
%ADD17C,0.04762*%
D10*
X0020625Y0023150D03*
X0020625Y0223150D03*
X0302625Y0223150D03*
X0302625Y0023150D03*
D11*
X0295819Y0043937D02*
X0289881Y0043937D01*
X0289881Y0053937D02*
X0295819Y0053937D01*
X0295819Y0063937D02*
X0289881Y0063937D01*
X0289881Y0073938D02*
X0295819Y0073938D01*
X0295819Y0083938D02*
X0289881Y0083938D01*
X0289881Y0093937D02*
X0295819Y0093937D01*
X0295594Y0107150D02*
X0289656Y0107150D01*
X0289656Y0117150D02*
X0295594Y0117150D01*
X0295594Y0127150D02*
X0289656Y0127150D01*
X0289656Y0137150D02*
X0295594Y0137150D01*
X0295594Y0147150D02*
X0289656Y0147150D01*
X0289656Y0157150D02*
X0295594Y0157150D01*
X0295594Y0167150D02*
X0289656Y0167150D01*
X0289656Y0177150D02*
X0295594Y0177150D01*
X0284325Y0218144D02*
X0284325Y0224081D01*
X0274325Y0224081D02*
X0274325Y0218144D01*
X0264325Y0218144D02*
X0264325Y0224081D01*
X0254325Y0224081D02*
X0254325Y0218144D01*
X0244325Y0218144D02*
X0244325Y0224081D01*
X0234325Y0224081D02*
X0234325Y0218144D01*
X0221625Y0218181D02*
X0221625Y0224119D01*
X0211625Y0224119D02*
X0211625Y0218181D01*
X0201625Y0218181D02*
X0201625Y0224119D01*
X0191625Y0224119D02*
X0191625Y0218181D01*
X0181625Y0218181D02*
X0181625Y0224119D01*
X0171625Y0224119D02*
X0171625Y0218181D01*
X0161625Y0218181D02*
X0161625Y0224119D01*
X0151625Y0224119D02*
X0151625Y0218181D01*
X0025969Y0125712D02*
X0020031Y0125712D01*
X0020031Y0115712D02*
X0025969Y0115712D01*
X0025969Y0105712D02*
X0020031Y0105712D01*
X0020031Y0095712D02*
X0025969Y0095712D01*
X0162500Y0025969D02*
X0162500Y0020031D01*
X0172500Y0020031D02*
X0172500Y0025969D01*
X0182500Y0025969D02*
X0182500Y0020031D01*
X0192500Y0020031D02*
X0192500Y0025969D01*
X0202500Y0025969D02*
X0202500Y0020031D01*
X0212500Y0020031D02*
X0212500Y0025969D01*
D12*
X0029012Y0155839D03*
X0029012Y0173161D03*
D13*
X0236850Y0017250D03*
D14*
X0246850Y0017250D03*
X0246850Y0027250D03*
X0236850Y0027250D03*
X0256850Y0027250D03*
X0256850Y0017250D03*
D15*
X0265625Y0017150D03*
X0271625Y0041150D03*
X0276625Y0049150D03*
X0271625Y0057150D03*
X0276625Y0064150D03*
X0271625Y0076150D03*
X0253625Y0060150D03*
X0260625Y0058150D03*
X0243625Y0050150D03*
X0232625Y0038150D03*
X0220625Y0038150D03*
X0220625Y0028150D03*
X0224625Y0017150D03*
X0196625Y0063150D03*
X0187625Y0078150D03*
X0179625Y0084150D03*
X0161625Y0096150D03*
X0158625Y0105150D03*
X0175625Y0119150D03*
X0171625Y0130150D03*
X0151625Y0142150D03*
X0171625Y0154150D03*
X0165625Y0169150D03*
X0161750Y0183662D03*
X0151625Y0191150D03*
X0138475Y0178312D03*
X0181625Y0184150D03*
X0192625Y0186150D03*
X0200625Y0191150D03*
X0202625Y0184150D03*
X0211625Y0191150D03*
X0253625Y0166150D03*
X0256625Y0171150D03*
X0262625Y0162150D03*
X0257625Y0155150D03*
X0248625Y0151150D03*
X0243625Y0143150D03*
X0238625Y0132150D03*
X0238625Y0123150D03*
X0233625Y0119150D03*
X0247625Y0115150D03*
X0254625Y0111150D03*
X0259625Y0106150D03*
X0247625Y0123150D03*
X0275625Y0143150D03*
X0265625Y0185150D03*
X0290625Y0185150D03*
X0300625Y0196150D03*
X0211625Y0096150D03*
X0196625Y0095150D03*
X0205625Y0078150D03*
X0223625Y0069150D03*
X0228625Y0066150D03*
X0155625Y0053150D03*
X0145625Y0072150D03*
X0138625Y0073150D03*
X0117625Y0067150D03*
X0121625Y0053150D03*
X0119625Y0029150D03*
X0132625Y0023150D03*
X0087625Y0034150D03*
X0080625Y0027150D03*
X0080625Y0039150D03*
X0088625Y0045150D03*
X0065625Y0048150D03*
X0015625Y0058150D03*
X0011625Y0096150D03*
X0065625Y0123150D03*
X0074625Y0144150D03*
X0103625Y0116150D03*
X0111625Y0103150D03*
X0103625Y0099150D03*
X0122625Y0099150D03*
X0075625Y0097150D03*
X0122162Y0142338D03*
X0074625Y0183150D03*
X0085625Y0192150D03*
X0074625Y0206150D03*
D16*
X0073625Y0086150D03*
D17*
X0065588Y0147688D03*
X0085800Y0149525D03*
M02*
