%
M48
M72
T01C0.01969
T02C0.02362
T03C0.03543
T04C0.03937
T05C0.04000
T06C0.11024
%
T01
X65625Y48150
X80625Y39150
X88625Y45150
X87625Y34150
X80625Y27150
X119625Y29150
X132625Y23150
X121625Y53150
X117625Y67150
X138625Y73150
X145625Y72150
X155625Y53150
X187625Y78150
X179625Y84150
X161625Y96150
X158625Y105150
X175625Y119150
X171625Y130150
X151625Y142150
X171625Y154150
X165625Y169150
X161750Y183662
X151625Y191150
X138475Y178312
X181625Y184150
X192625Y186150
X200625Y191150
X202625Y184150
X211625Y191150
X253625Y166150
X256625Y171150
X262625Y162150
X257625Y155150
X248625Y151150
X243625Y143150
X238625Y132150
X238625Y123150
X233625Y119150
X247625Y115150
X254625Y111150
X259625Y106150
X247625Y123150
X275625Y143150
X265625Y185150
X290625Y185150
X300625Y196150
X211625Y96150
X196625Y95150
X205625Y78150
X223625Y69150
X228625Y66150
X243625Y50150
X253625Y60150
X260625Y58150
X271625Y57150
X276625Y64150
X271625Y76150
X276625Y49150
X271625Y41150
X265625Y17150
X232625Y38150
X220625Y38150
X220625Y28150
X224625Y17150
X196625Y63150
X122625Y99150
X111625Y103150
X103625Y99150
X103625Y116150
X75625Y97150
X65625Y123150
X74625Y144150
X122162Y142338
X74625Y183150
X85625Y192150
X74625Y206150
X11625Y96150
X15625Y58150
T02
X73625Y86150
X65588Y147688
X85800Y149525
T03
X29012Y155839
X29012Y173161
T04
X23000Y125712
X23000Y115712
X23000Y105712
X23000Y95712
X162500Y23000
X172500Y23000
X182500Y23000
X192500Y23000
X202500Y23000
X212500Y23000
X292850Y43937
X292850Y53937
X292850Y63937
X292850Y73938
X292850Y83938
X292850Y93937
X292625Y107150
X292625Y117150
X292625Y127150
X292625Y137150
X292625Y147150
X292625Y157150
X292625Y167150
X292625Y177150
X284325Y221112
X274325Y221112
X264325Y221112
X254325Y221112
X244325Y221112
X234325Y221112
X221625Y221150
X211625Y221150
X201625Y221150
X191625Y221150
X181625Y221150
X171625Y221150
X161625Y221150
X151625Y221150
T05
X236850Y27250
X246850Y27250
X246850Y17250
X236850Y17250
X256850Y17250
X256850Y27250
T06
X20625Y23150
X20625Y223150
X302625Y223150
X302625Y23150
M30
