G75*
%MOIN*%
%OFA0B0*%
%FSLAX25Y25*%
%IPPOS*%
%LPD*%
%AMOC8*
5,1,8,0,0,1.08239X$1,22.5*
%
%ADD10C,0.11824*%
%ADD11R,0.06706X0.05918*%
%ADD12R,0.05918X0.06706*%
%ADD13C,0.06737*%
%ADD14R,0.09800X0.03300*%
%ADD15R,0.03300X0.09800*%
%ADD16R,0.05800X0.03300*%
%ADD17R,0.03300X0.05800*%
%ADD18R,0.07887X0.07099*%
%ADD19R,0.07099X0.07887*%
%ADD20R,0.10643X0.08674*%
%ADD21R,0.13792X0.08674*%
%ADD22R,0.13005X0.02769*%
%ADD23C,0.04343*%
%ADD24R,0.04737X0.05131*%
%ADD25R,0.03556X0.04343*%
%ADD26R,0.06706X0.08674*%
%ADD27R,0.15761X0.08674*%
%ADD28R,0.05131X0.04737*%
%ADD29R,0.05800X0.03000*%
%ADD30R,0.03000X0.05800*%
%ADD31R,0.06800X0.06800*%
%ADD32OC8,0.06800*%
%ADD33R,0.04343X0.03556*%
%ADD34R,0.05131X0.03162*%
%ADD35R,0.15800X0.08400*%
%ADD36R,0.08400X0.15800*%
%ADD37R,0.03162X0.04934*%
%ADD38R,0.05524X0.05524*%
%ADD39R,0.03950X0.02769*%
%ADD40R,0.01587X0.01587*%
%ADD41C,0.00500*%
%ADD42R,0.12611X0.06312*%
%ADD43C,0.04369*%
%ADD44R,0.04762X0.04762*%
%ADD45C,0.04762*%
D10*
X0020625Y0023150D03*
X0020625Y0223150D03*
X0302625Y0223150D03*
X0302625Y0023150D03*
D11*
X0187625Y0084410D03*
X0187625Y0091890D03*
X0171625Y0091890D03*
X0171625Y0084410D03*
X0155988Y0072240D03*
X0155988Y0064760D03*
X0133238Y0055240D03*
X0133238Y0047760D03*
X0150988Y0044240D03*
X0150988Y0036760D03*
X0125987Y0064760D03*
X0125987Y0072240D03*
X0134625Y0081410D03*
X0134625Y0088890D03*
X0122625Y0110410D03*
X0122625Y0117890D03*
X0111625Y0117890D03*
X0111625Y0110410D03*
X0075863Y0106735D03*
X0075863Y0114215D03*
X0080738Y0072240D03*
X0080738Y0064760D03*
X0065988Y0062240D03*
X0065988Y0054760D03*
X0100987Y0064760D03*
X0100987Y0072240D03*
X0164750Y0133135D03*
X0164750Y0140615D03*
X0164538Y0153110D03*
X0164538Y0160590D03*
X0015400Y0080490D03*
X0015400Y0073010D03*
X0015400Y0049628D03*
X0015400Y0042147D03*
D12*
X0028710Y0073163D03*
X0036190Y0073163D03*
X0059747Y0034500D03*
X0067228Y0034500D03*
X0067228Y0022787D03*
X0059747Y0022787D03*
X0132885Y0031150D03*
X0140365Y0031150D03*
X0142278Y0142350D03*
X0134797Y0142350D03*
X0145247Y0183912D03*
X0152728Y0183912D03*
X0192885Y0201150D03*
X0200365Y0201150D03*
D13*
X0201625Y0218181D02*
X0201625Y0224119D01*
X0191625Y0224119D02*
X0191625Y0218181D01*
X0181625Y0218181D02*
X0181625Y0224119D01*
X0171625Y0224119D02*
X0171625Y0218181D01*
X0161625Y0218181D02*
X0161625Y0224119D01*
X0151625Y0224119D02*
X0151625Y0218181D01*
X0211625Y0218181D02*
X0211625Y0224119D01*
X0221625Y0224119D02*
X0221625Y0218181D01*
X0234325Y0218144D02*
X0234325Y0224081D01*
X0244325Y0224081D02*
X0244325Y0218144D01*
X0254325Y0218144D02*
X0254325Y0224081D01*
X0264325Y0224081D02*
X0264325Y0218144D01*
X0274325Y0218144D02*
X0274325Y0224081D01*
X0284325Y0224081D02*
X0284325Y0218144D01*
X0289656Y0177150D02*
X0295594Y0177150D01*
X0295594Y0167150D02*
X0289656Y0167150D01*
X0289656Y0157150D02*
X0295594Y0157150D01*
X0295594Y0147150D02*
X0289656Y0147150D01*
X0289656Y0137150D02*
X0295594Y0137150D01*
X0295594Y0127150D02*
X0289656Y0127150D01*
X0289656Y0117150D02*
X0295594Y0117150D01*
X0295594Y0107150D02*
X0289656Y0107150D01*
X0289881Y0093937D02*
X0295819Y0093937D01*
X0295819Y0083938D02*
X0289881Y0083938D01*
X0289881Y0073938D02*
X0295819Y0073938D01*
X0295819Y0063937D02*
X0289881Y0063937D01*
X0289881Y0053937D02*
X0295819Y0053937D01*
X0295819Y0043937D02*
X0289881Y0043937D01*
X0212500Y0025969D02*
X0212500Y0020031D01*
X0202500Y0020031D02*
X0202500Y0025969D01*
X0192500Y0025969D02*
X0192500Y0020031D01*
X0182500Y0020031D02*
X0182500Y0025969D01*
X0172500Y0025969D02*
X0172500Y0020031D01*
X0162500Y0020031D02*
X0162500Y0025969D01*
X0025969Y0095712D02*
X0020031Y0095712D01*
X0020031Y0105712D02*
X0025969Y0105712D01*
X0025969Y0115712D02*
X0020031Y0115712D01*
X0020031Y0125712D02*
X0025969Y0125712D01*
D14*
X0050862Y0047750D03*
X0050862Y0042750D03*
X0031113Y0042750D03*
X0096363Y0044750D03*
X0096363Y0039750D03*
X0096363Y0034750D03*
X0116112Y0034750D03*
X0116112Y0039750D03*
X0116112Y0044750D03*
D15*
X0111237Y0053561D03*
X0101237Y0053561D03*
X0101237Y0025939D03*
X0111237Y0025939D03*
X0035988Y0033939D03*
D16*
X0033113Y0047750D03*
X0033113Y0052750D03*
X0048862Y0052750D03*
D17*
X0045987Y0059561D03*
X0035988Y0059561D03*
X0045987Y0035939D03*
D18*
X0065425Y0159413D03*
X0065425Y0170437D03*
D19*
X0095601Y0137138D03*
X0106624Y0137138D03*
D20*
X0017201Y0146980D03*
X0017201Y0182020D03*
D21*
X0040430Y0182020D03*
X0040430Y0146980D03*
D22*
X0040824Y0158201D03*
X0040824Y0161350D03*
X0040824Y0164500D03*
X0040824Y0167650D03*
X0040824Y0170799D03*
D23*
X0029012Y0173161D03*
X0029012Y0155839D03*
D24*
X0085588Y0163729D03*
X0085588Y0170421D03*
X0210441Y0108000D03*
X0217134Y0108000D03*
D25*
X0216347Y0101000D03*
X0211228Y0101000D03*
X0212391Y0056162D03*
X0217509Y0056162D03*
X0216509Y0048437D03*
X0211391Y0048437D03*
X0244228Y0171025D03*
X0249347Y0171025D03*
X0285066Y0191150D03*
X0290184Y0191150D03*
D26*
X0115493Y0151336D03*
X0106437Y0151336D03*
X0097382Y0151336D03*
D27*
X0106437Y0176139D03*
D28*
X0045012Y0105259D03*
X0045012Y0098566D03*
D29*
X0228137Y0095024D03*
X0228137Y0091874D03*
X0228137Y0088724D03*
X0228137Y0085575D03*
X0228137Y0082425D03*
X0228137Y0079276D03*
X0228137Y0076126D03*
X0228137Y0072976D03*
X0261937Y0072976D03*
X0261937Y0076126D03*
X0261937Y0079276D03*
X0261937Y0082425D03*
X0261937Y0085575D03*
X0261937Y0088724D03*
X0261937Y0091874D03*
X0261937Y0095024D03*
D30*
X0256061Y0100900D03*
X0252912Y0100900D03*
X0249762Y0100900D03*
X0246612Y0100900D03*
X0243463Y0100900D03*
X0240313Y0100900D03*
X0237163Y0100900D03*
X0234014Y0100900D03*
X0234014Y0067100D03*
X0237163Y0067100D03*
X0240313Y0067100D03*
X0243463Y0067100D03*
X0246612Y0067100D03*
X0249762Y0067100D03*
X0252912Y0067100D03*
X0256061Y0067100D03*
D31*
X0236850Y0017250D03*
D32*
X0246850Y0017250D03*
X0246850Y0027250D03*
X0236850Y0027250D03*
X0256850Y0027250D03*
X0256850Y0017250D03*
D33*
X0271138Y0062691D03*
X0271138Y0067809D03*
X0290625Y0198591D03*
X0290625Y0203709D03*
D34*
X0097881Y0115819D03*
X0097881Y0110898D03*
X0097881Y0105977D03*
X0097881Y0101056D03*
X0089219Y0101056D03*
X0089219Y0105977D03*
X0089219Y0110898D03*
X0089219Y0115819D03*
D35*
G36*
X0198128Y0133427D02*
X0186957Y0122256D01*
X0181018Y0128195D01*
X0192189Y0139366D01*
X0198128Y0133427D01*
G37*
G36*
X0227036Y0139366D02*
X0238207Y0128195D01*
X0232268Y0122256D01*
X0221097Y0133427D01*
X0227036Y0139366D01*
G37*
D36*
X0209612Y0179196D03*
D37*
X0142090Y0171252D03*
X0138350Y0171252D03*
X0134610Y0171252D03*
X0134610Y0160623D03*
X0142090Y0160623D03*
D38*
X0196316Y0056350D03*
X0204584Y0056350D03*
X0204184Y0048625D03*
X0195916Y0048625D03*
D39*
X0158018Y0084288D03*
X0158018Y0088225D03*
X0158018Y0092162D03*
X0146207Y0092162D03*
X0146207Y0088225D03*
X0146207Y0084288D03*
D40*
X0152113Y0088225D03*
D41*
X0149061Y0088410D02*
X0155361Y0088410D01*
X0155361Y0087912D02*
X0149061Y0087912D01*
X0149061Y0087413D02*
X0155361Y0087413D01*
X0155361Y0086915D02*
X0149061Y0086915D01*
X0149061Y0086416D02*
X0155361Y0086416D01*
X0155361Y0085918D02*
X0149061Y0085918D01*
X0149061Y0085419D02*
X0155361Y0085419D01*
X0155361Y0084921D02*
X0149061Y0084921D01*
X0149061Y0084422D02*
X0154904Y0084422D01*
X0155361Y0084879D02*
X0153589Y0083107D01*
X0149061Y0083107D01*
X0149061Y0093442D01*
X0155361Y0093442D01*
X0155361Y0084879D01*
X0154406Y0083924D02*
X0149061Y0083924D01*
X0149061Y0083425D02*
X0153907Y0083425D01*
X0155361Y0088909D02*
X0149061Y0088909D01*
X0149061Y0089407D02*
X0155361Y0089407D01*
X0155361Y0089906D02*
X0149061Y0089906D01*
X0149061Y0090404D02*
X0155361Y0090404D01*
X0155361Y0090903D02*
X0149061Y0090903D01*
X0149061Y0091401D02*
X0155361Y0091401D01*
X0155361Y0091900D02*
X0149061Y0091900D01*
X0149061Y0092398D02*
X0155361Y0092398D01*
X0155361Y0092897D02*
X0149061Y0092897D01*
X0149061Y0093395D02*
X0155361Y0093395D01*
D42*
X0235176Y0187150D03*
X0254074Y0187150D03*
D43*
X0265625Y0185150D03*
X0256625Y0171150D03*
X0253625Y0166150D03*
X0262625Y0162150D03*
X0257625Y0155150D03*
X0248625Y0151150D03*
X0243625Y0143150D03*
X0238625Y0132150D03*
X0238625Y0123150D03*
X0233625Y0119150D03*
X0247625Y0115150D03*
X0254625Y0111150D03*
X0259625Y0106150D03*
X0247625Y0123150D03*
X0275625Y0143150D03*
X0290625Y0185150D03*
X0300625Y0196150D03*
X0211625Y0191150D03*
X0200625Y0191150D03*
X0202625Y0184150D03*
X0192625Y0186150D03*
X0181625Y0184150D03*
X0161750Y0183662D03*
X0151625Y0191150D03*
X0138475Y0178312D03*
X0165625Y0169150D03*
X0171625Y0154150D03*
X0151625Y0142150D03*
X0171625Y0130150D03*
X0175625Y0119150D03*
X0158625Y0105150D03*
X0161625Y0096150D03*
X0179625Y0084150D03*
X0187625Y0078150D03*
X0205625Y0078150D03*
X0196625Y0095150D03*
X0211625Y0096150D03*
X0223625Y0069150D03*
X0228625Y0066150D03*
X0243625Y0050150D03*
X0253625Y0060150D03*
X0260625Y0058150D03*
X0271625Y0057150D03*
X0276625Y0064150D03*
X0271625Y0076150D03*
X0276625Y0049150D03*
X0271625Y0041150D03*
X0265625Y0017150D03*
X0232625Y0038150D03*
X0220625Y0038150D03*
X0220625Y0028150D03*
X0224625Y0017150D03*
X0196625Y0063150D03*
X0155625Y0053150D03*
X0145625Y0072150D03*
X0138625Y0073150D03*
X0117625Y0067150D03*
X0121625Y0053150D03*
X0119625Y0029150D03*
X0132625Y0023150D03*
X0087625Y0034150D03*
X0080625Y0027150D03*
X0080625Y0039150D03*
X0088625Y0045150D03*
X0065625Y0048150D03*
X0015625Y0058150D03*
X0011625Y0096150D03*
X0065625Y0123150D03*
X0074625Y0144150D03*
X0103625Y0116150D03*
X0111625Y0103150D03*
X0103625Y0099150D03*
X0122625Y0099150D03*
X0075625Y0097150D03*
X0122162Y0142338D03*
X0074625Y0183150D03*
X0085625Y0192150D03*
X0074625Y0206150D03*
D44*
X0073625Y0086150D03*
D45*
X0065588Y0147688D03*
X0085800Y0149525D03*
M02*
