%FSLAX43Y43*%
%MOMM*%
G71*
G01*
G75*
G04 Layer_Color=8421504*
%ADD10R,2.500X1.200*%
%ADD11R,0.800X0.650*%
%ADD12R,0.900X0.600*%
%ADD13R,1.350X1.500*%
%ADD14R,0.762X0.762*%
%ADD15R,0.700X0.700*%
%ADD16O,0.550X1.750*%
%ADD17O,1.750X0.550*%
%ADD18R,0.600X0.900*%
%ADD19R,0.650X0.800*%
%ADD20R,1.200X1.200*%
%ADD21R,1.000X2.250*%
%ADD22R,1.150X1.350*%
%ADD23R,2.000X2.500*%
%ADD24R,0.500X2.300*%
%ADD25R,1.500X3.280*%
%ADD26R,1.500X0.990*%
%ADD27R,0.950X1.750*%
%ADD28R,1.100X1.000*%
%ADD29R,1.100X0.600*%
%ADD30R,1.500X0.800*%
%ADD31R,1.300X0.600*%
%ADD32R,1.300X1.600*%
%ADD33O,0.300X1.700*%
%ADD34O,1.700X0.300*%
%ADD35R,0.800X1.000*%
%ADD36R,1.000X1.000*%
%ADD37R,0.950X1.000*%
%ADD38R,1.000X0.950*%
%ADD39O,0.700X0.250*%
%ADD40O,0.250X0.700*%
%ADD41R,1.400X3.000*%
%ADD42R,2.000X8.000*%
%ADD43C,0.175*%
%ADD44C,0.230*%
%ADD45C,0.150*%
%ADD46C,0.300*%
%ADD47C,0.200*%
%ADD48R,0.900X0.300*%
%ADD49R,1.700X1.700*%
%ADD50C,0.500*%
%ADD51C,1.700*%
%ADD52C,2.000*%
%ADD53C,3.600*%
%ADD54C,1.300*%
%ADD55C,0.550*%
%ADD56C,0.500*%
%ADD57C,1.600*%
%ADD58C,1.500*%
G04:AMPARAMS|DCode=59|XSize=2.524mm|YSize=2.524mm|CornerRadius=0mm|HoleSize=0mm|Usage=FLASHONLY|Rotation=0.000|XOffset=0mm|YOffset=0mm|HoleType=Round|Shape=Relief|Width=0.254mm|Gap=0.254mm|Entries=4|*
%AMTHD59*
7,0,0,2.524,2.016,0.254,45*
%
%ADD59THD59*%
%ADD60C,2.600*%
G04:AMPARAMS|DCode=61|XSize=4.624mm|YSize=4.624mm|CornerRadius=0mm|HoleSize=0mm|Usage=FLASHONLY|Rotation=0.000|XOffset=0mm|YOffset=0mm|HoleType=Round|Shape=Relief|Width=0.254mm|Gap=0.254mm|Entries=4|*
%AMTHD61*
7,0,0,4.624,4.116,0.254,45*
%
%ADD61THD61*%
G04:AMPARAMS|DCode=62|XSize=2.424mm|YSize=2.424mm|CornerRadius=0mm|HoleSize=0mm|Usage=FLASHONLY|Rotation=0.000|XOffset=0mm|YOffset=0mm|HoleType=Round|Shape=Relief|Width=0.254mm|Gap=0.254mm|Entries=4|*
%AMTHD62*
7,0,0,2.424,1.916,0.254,45*
%
%ADD62THD62*%
%ADD63C,0.850*%
%ADD64C,3.700*%
%ADD65R,2.400X0.800*%
%ADD66R,2.200X0.350*%
%ADD67C,1.270*%
%ADD68R,0.300X0.900*%
%ADD69C,0.800*%
%ADD70C,0.250*%
%ADD71C,0.254*%
%ADD72C,0.125*%
%ADD73C,0.640*%
%ADD74C,0.100*%
%ADD75R,1.750X1.750*%
%ADD76R,1.700X1.700*%
D10*
X82575Y37275D02*
D03*
Y39775D02*
D03*
Y42275D02*
D03*
X77075D02*
D03*
Y39775D02*
D03*
Y37275D02*
D03*
D11*
X8400Y39500D02*
D03*
X9600D02*
D03*
X40605Y1575D02*
D03*
X39405D02*
D03*
X37913D02*
D03*
X36713D02*
D03*
X55134Y14884D02*
D03*
X53934D02*
D03*
X51500Y35200D02*
D03*
X52700D02*
D03*
X51500Y34000D02*
D03*
X52700D02*
D03*
X8400Y44900D02*
D03*
X9600D02*
D03*
X8400Y14900D02*
D03*
X9600D02*
D03*
X8400Y9500D02*
D03*
X9600D02*
D03*
X51700Y38700D02*
D03*
X52900D02*
D03*
X50200D02*
D03*
X49000D02*
D03*
X40176Y25445D02*
D03*
X41376D02*
D03*
X76425Y32275D02*
D03*
X77625D02*
D03*
X79050D02*
D03*
X80250D02*
D03*
D12*
X43773Y14859D02*
D03*
X44873D02*
D03*
X42125Y1600D02*
D03*
X43225D02*
D03*
X19950Y32900D02*
D03*
X21050D02*
D03*
X66350Y23300D02*
D03*
X67450D02*
D03*
X65750Y32300D02*
D03*
X66850D02*
D03*
D13*
X46724Y15316D02*
D03*
X48374D02*
D03*
X52158D02*
D03*
X50508D02*
D03*
D14*
X47550Y1600D02*
D03*
X48947D02*
D03*
X51772D02*
D03*
X50375D02*
D03*
X54624D02*
D03*
X53227D02*
D03*
X46122D02*
D03*
X44725D02*
D03*
D15*
X21175Y34150D02*
D03*
X19775D02*
D03*
D16*
X21200Y31125D02*
D03*
X22000D02*
D03*
X22800D02*
D03*
X23600D02*
D03*
X24400D02*
D03*
X25200D02*
D03*
X26000D02*
D03*
X26800D02*
D03*
Y22875D02*
D03*
X26000D02*
D03*
X25200D02*
D03*
X24400D02*
D03*
X23600D02*
D03*
X22800D02*
D03*
X22000D02*
D03*
X21200D02*
D03*
D17*
X28125Y29800D02*
D03*
Y29000D02*
D03*
Y28200D02*
D03*
Y27400D02*
D03*
Y26600D02*
D03*
Y25800D02*
D03*
Y25000D02*
D03*
Y24200D02*
D03*
X19875D02*
D03*
Y25000D02*
D03*
Y25800D02*
D03*
Y26600D02*
D03*
Y27400D02*
D03*
Y28200D02*
D03*
Y29000D02*
D03*
Y29800D02*
D03*
D18*
X29900Y23900D02*
D03*
Y25000D02*
D03*
X63400Y30850D02*
D03*
Y29750D02*
D03*
X60300Y19850D02*
D03*
Y20950D02*
D03*
X55600Y34150D02*
D03*
Y33050D02*
D03*
X56900Y34150D02*
D03*
Y33050D02*
D03*
X58200Y34150D02*
D03*
Y33050D02*
D03*
X57300Y19850D02*
D03*
Y20950D02*
D03*
X58500Y19850D02*
D03*
Y20950D02*
D03*
X54800Y19850D02*
D03*
Y20950D02*
D03*
X56000Y19850D02*
D03*
Y20950D02*
D03*
X54300Y34150D02*
D03*
Y33050D02*
D03*
X51600Y28350D02*
D03*
Y27250D02*
D03*
X23800Y3250D02*
D03*
Y2150D02*
D03*
D19*
X74125Y27825D02*
D03*
Y29025D02*
D03*
X47500Y40000D02*
D03*
Y38800D02*
D03*
X62100Y21000D02*
D03*
Y19800D02*
D03*
X23800Y4700D02*
D03*
Y5900D02*
D03*
D20*
X9000Y43050D02*
D03*
Y40950D02*
D03*
Y13050D02*
D03*
Y10950D02*
D03*
D21*
X2200Y39250D02*
D03*
Y44750D02*
D03*
X6200D02*
D03*
Y39250D02*
D03*
X2200Y9250D02*
D03*
Y14750D02*
D03*
X6200D02*
D03*
Y9250D02*
D03*
D22*
X59375Y41925D02*
D03*
X61875D02*
D03*
D23*
X59950Y50750D02*
D03*
X51050D02*
D03*
X59950Y45250D02*
D03*
X51050D02*
D03*
D24*
X57100Y45150D02*
D03*
X56300D02*
D03*
X55500D02*
D03*
X54700D02*
D03*
X53900D02*
D03*
D25*
X71300Y41890D02*
D03*
D26*
X65000Y39600D02*
D03*
Y41890D02*
D03*
Y44180D02*
D03*
D27*
X62100Y39425D02*
D03*
X59150D02*
D03*
D28*
X54900Y42000D02*
D03*
D29*
Y40300D02*
D03*
X57000D02*
D03*
Y42200D02*
D03*
D30*
X52400Y42000D02*
D03*
X49900D02*
D03*
Y40500D02*
D03*
X52400D02*
D03*
D31*
X45800Y39250D02*
D03*
X43700Y38300D02*
D03*
Y40200D02*
D03*
D32*
X67450Y25100D02*
D03*
Y28900D02*
D03*
X65150D02*
D03*
Y25100D02*
D03*
D33*
X54750Y31050D02*
D03*
X55250D02*
D03*
X55750D02*
D03*
X56250D02*
D03*
X56750D02*
D03*
X57250D02*
D03*
X57750D02*
D03*
X58250D02*
D03*
X58750D02*
D03*
X59250D02*
D03*
X59750D02*
D03*
X60250D02*
D03*
Y22950D02*
D03*
X59750D02*
D03*
X59250D02*
D03*
X58750D02*
D03*
X58250D02*
D03*
X57750D02*
D03*
X57250D02*
D03*
X56750D02*
D03*
X56250D02*
D03*
X55750D02*
D03*
X55250D02*
D03*
X54750D02*
D03*
D34*
X61550Y29750D02*
D03*
Y29250D02*
D03*
Y28750D02*
D03*
Y28250D02*
D03*
Y27750D02*
D03*
Y27250D02*
D03*
Y26750D02*
D03*
Y26250D02*
D03*
Y25750D02*
D03*
Y25250D02*
D03*
Y24750D02*
D03*
Y24250D02*
D03*
X53450D02*
D03*
Y24750D02*
D03*
Y25250D02*
D03*
Y25750D02*
D03*
Y26250D02*
D03*
Y26750D02*
D03*
Y27250D02*
D03*
Y27750D02*
D03*
Y28250D02*
D03*
Y28750D02*
D03*
Y29250D02*
D03*
Y29750D02*
D03*
D35*
X40217Y20295D02*
D03*
X41317D02*
D03*
D36*
X40767Y23845D02*
D03*
D37*
X61200Y34750D02*
D03*
Y33050D02*
D03*
X59700Y34750D02*
D03*
Y33050D02*
D03*
D41*
X83275Y26925D02*
D03*
D42*
X81875Y27000D02*
D03*
D54*
X76075Y29000D02*
D03*
Y25000D02*
D03*
X79075D02*
D03*
Y27000D02*
D03*
Y29000D02*
D03*
D75*
X10160Y48660D02*
D03*
Y51200D02*
D03*
X12700Y48660D02*
D03*
Y51200D02*
D03*
X15240Y48660D02*
D03*
Y51200D02*
D03*
X17780Y48660D02*
D03*
Y51200D02*
D03*
X20320Y48660D02*
D03*
Y51200D02*
D03*
X73660D02*
D03*
Y48660D02*
D03*
X71120Y51200D02*
D03*
Y48660D02*
D03*
X68580Y51200D02*
D03*
Y48660D02*
D03*
X66040Y51200D02*
D03*
Y48660D02*
D03*
X63500Y51200D02*
D03*
Y48660D02*
D03*
X20320Y5480D02*
D03*
Y2940D02*
D03*
X17780Y5480D02*
D03*
Y2940D02*
D03*
X15240Y5480D02*
D03*
Y2940D02*
D03*
X12700Y5480D02*
D03*
Y2940D02*
D03*
X10160Y5480D02*
D03*
Y2940D02*
D03*
X73660Y5480D02*
D03*
Y2940D02*
D03*
X71120Y5480D02*
D03*
Y2940D02*
D03*
X68580Y5480D02*
D03*
Y2940D02*
D03*
X66040Y5480D02*
D03*
Y2940D02*
D03*
X63500Y5480D02*
D03*
Y2940D02*
D03*
X36240Y42700D02*
D03*
Y40160D02*
D03*
X33700Y42700D02*
D03*
Y40160D02*
D03*
X31160Y42700D02*
D03*
Y40160D02*
D03*
D76*
X44030Y42700D02*
D03*
X46570D02*
D03*
X64600Y20598D02*
D03*
X67140D02*
D03*
M02*
