%FSLAX43Y43*%
%MOMM*%
G71*
G01*
G75*
G04 Layer_Physical_Order=4*
G04 Layer_Color=16711680*
%ADD10R,2.500X1.200*%
%ADD11R,0.800X0.650*%
%ADD12R,0.900X0.600*%
%ADD13R,1.350X1.500*%
%ADD14R,0.762X0.762*%
%ADD15R,0.700X0.700*%
%ADD16O,0.550X1.750*%
%ADD17O,1.750X0.550*%
%ADD18R,0.600X0.900*%
%ADD19R,0.650X0.800*%
%ADD20R,1.200X1.200*%
%ADD21R,1.000X2.250*%
%ADD22R,1.150X1.350*%
%ADD23R,2.000X2.500*%
%ADD24R,0.500X2.300*%
%ADD25R,1.500X3.280*%
%ADD26R,1.500X0.990*%
%ADD27R,0.950X1.750*%
%ADD28R,1.100X1.000*%
%ADD29R,1.100X0.600*%
%ADD30R,1.500X0.800*%
%ADD31R,1.300X0.600*%
%ADD32R,1.300X1.600*%
%ADD33O,0.300X1.700*%
%ADD34O,1.700X0.300*%
%ADD35R,0.800X1.000*%
%ADD36R,1.000X1.000*%
%ADD37R,0.950X1.000*%
%ADD38R,1.000X0.950*%
%ADD39O,0.700X0.250*%
%ADD40O,0.250X0.700*%
%ADD41R,1.400X3.000*%
%ADD42R,2.000X8.000*%
%ADD43C,0.175*%
%ADD44C,0.230*%
%ADD45C,0.150*%
%ADD46C,0.300*%
%ADD47C,0.200*%
%ADD48R,0.900X0.300*%
%ADD49R,1.700X1.700*%
%ADD50C,0.500*%
%ADD51C,1.700*%
%ADD52C,2.000*%
%ADD53C,3.600*%
%ADD54C,1.300*%
%ADD55C,0.550*%
%ADD56C,0.500*%
%ADD57C,1.600*%
%ADD58C,1.500*%
G04:AMPARAMS|DCode=59|XSize=2.524mm|YSize=2.524mm|CornerRadius=0mm|HoleSize=0mm|Usage=FLASHONLY|Rotation=0.000|XOffset=0mm|YOffset=0mm|HoleType=Round|Shape=Relief|Width=0.254mm|Gap=0.254mm|Entries=4|*
%AMTHD59*
7,0,0,2.524,2.016,0.254,45*
%
%ADD59THD59*%
%ADD60C,2.600*%
G04:AMPARAMS|DCode=61|XSize=4.624mm|YSize=4.624mm|CornerRadius=0mm|HoleSize=0mm|Usage=FLASHONLY|Rotation=0.000|XOffset=0mm|YOffset=0mm|HoleType=Round|Shape=Relief|Width=0.254mm|Gap=0.254mm|Entries=4|*
%AMTHD61*
7,0,0,4.624,4.116,0.254,45*
%
%ADD61THD61*%
G04:AMPARAMS|DCode=62|XSize=2.424mm|YSize=2.424mm|CornerRadius=0mm|HoleSize=0mm|Usage=FLASHONLY|Rotation=0.000|XOffset=0mm|YOffset=0mm|HoleType=Round|Shape=Relief|Width=0.254mm|Gap=0.254mm|Entries=4|*
%AMTHD62*
7,0,0,2.424,1.916,0.254,45*
%
%ADD62THD62*%
%ADD63C,0.850*%
%ADD64C,3.700*%
%ADD65R,2.400X0.800*%
%ADD66R,2.200X0.350*%
%ADD67C,1.270*%
%ADD68R,0.300X0.900*%
%ADD69C,0.800*%
D37*
X22550Y51200D02*
D03*
Y49500D02*
D03*
X40742Y23784D02*
D03*
Y22084D02*
D03*
X76000Y50250D02*
D03*
Y51950D02*
D03*
D38*
X49175Y30200D02*
D03*
X50875D02*
D03*
X49175Y31750D02*
D03*
X50875D02*
D03*
X49175Y22450D02*
D03*
X50875D02*
D03*
X49175Y20900D02*
D03*
X50875D02*
D03*
X49175Y24000D02*
D03*
X50875D02*
D03*
X49175Y25550D02*
D03*
X50875D02*
D03*
X49175Y27100D02*
D03*
X50875D02*
D03*
X49175Y28650D02*
D03*
X50875D02*
D03*
X27050Y1500D02*
D03*
X25350D02*
D03*
D43*
X75375Y38500D02*
X82575D01*
X74475Y37600D02*
X75375Y38500D01*
X55600Y37600D02*
X74475D01*
X54485Y36025D02*
X55735Y37275D01*
X75125D01*
X54350Y36350D02*
X55600Y37600D01*
X51090Y36025D02*
X54485D01*
X50425Y36350D02*
X54350D01*
X49745Y34680D02*
X51090Y36025D01*
X49250Y35175D02*
X50425Y36350D01*
X53693Y37050D02*
X62943Y46300D01*
X49125Y37050D02*
X53693D01*
X53558Y37375D02*
X62808Y46625D01*
X48990Y37375D02*
X53558D01*
X53424Y37700D02*
X62674Y46950D01*
X48825Y37700D02*
X53424D01*
X53289Y38025D02*
X62539Y47275D01*
X48690Y38025D02*
X53289D01*
X53155Y38350D02*
X62405Y47600D01*
X48465Y38350D02*
X53155D01*
X53020Y38675D02*
X62100Y47755D01*
X48331Y38675D02*
X53020D01*
X47650Y35575D02*
X49125Y37050D01*
X46675Y35060D02*
X48990Y37375D01*
X45675Y34550D02*
X48825Y37700D01*
X44575Y33910D02*
X48690Y38025D01*
X46465Y36350D02*
X48465Y38350D01*
X46331Y36675D02*
X48331Y38675D01*
X19675Y29475D02*
X22800Y32600D01*
X19675Y12520D02*
Y29475D01*
X16667Y9513D02*
X19675Y12520D01*
X16667Y4052D02*
Y9513D01*
Y4052D02*
X17780Y2940D01*
X20025Y29025D02*
X23600Y32600D01*
X20025Y12375D02*
Y29025D01*
X17780Y10130D02*
X20025Y12375D01*
X17780Y5480D02*
Y10130D01*
X46675Y33350D02*
Y35060D01*
X47650Y33350D02*
Y35575D01*
X45675Y33375D02*
Y34550D01*
X44575Y33375D02*
Y33910D01*
X40475Y36675D02*
X46331D01*
X40650Y36350D02*
X46465D01*
X31900Y27600D02*
X40650Y36350D01*
X31100Y27300D02*
X40475Y36675D01*
X62440Y47600D02*
X63500Y48660D01*
X62405Y47600D02*
X62440D01*
X62539Y47275D02*
X66675D01*
X62943Y46300D02*
X68760D01*
X50375Y878D02*
Y2400D01*
X48947Y878D02*
Y2397D01*
X62674Y46950D02*
X66870D01*
X62808Y46625D02*
X68625D01*
X66675Y47275D02*
X67300Y47900D01*
X66870Y46950D02*
X68580Y48660D01*
X68625Y46625D02*
X69825Y47825D01*
X68760Y46300D02*
X71120Y48660D01*
X67300Y47900D02*
Y49920D01*
X69825Y47825D02*
Y49905D01*
X46475Y26750D02*
X47650Y25575D01*
X47625Y27100D02*
X49175D01*
X35395D02*
X47625D01*
X69825Y49905D02*
X71120Y51200D01*
X68580Y5480D02*
X69800Y4260D01*
Y2200D02*
Y4260D01*
Y2200D02*
X70500Y1500D01*
X71743D01*
X72550Y2307D01*
Y7240D01*
X71120Y8670D02*
X72550Y7240D01*
X71120Y8670D02*
Y8705D01*
Y5480D02*
Y7715D01*
X61758Y17078D02*
X71120Y7715D01*
Y2940D02*
X72225Y4045D01*
Y7105D01*
X69825Y9505D02*
X72225Y7105D01*
X67300Y49920D02*
X68580Y51200D01*
X62100Y47755D02*
Y49800D01*
X63500Y51200D01*
X60375Y36025D02*
X63400Y33000D01*
X56200Y36025D02*
X60375D01*
X55000Y35200D02*
X59700D01*
X61900Y33000D01*
X31900Y26600D02*
Y27600D01*
X33000Y27400D02*
Y27960D01*
X70200Y29500D02*
X76700Y36000D01*
X70200Y25700D02*
Y29500D01*
X50875Y20900D02*
X52200D01*
X53000Y21700D01*
X58900D01*
X59400Y21200D01*
X47807Y24093D02*
X49082D01*
X47650Y28650D02*
X49175D01*
X46400Y30200D02*
X49175D01*
X44400Y28200D02*
X46400Y30200D01*
X34000Y28200D02*
X44400D01*
X46950Y31750D02*
X49175D01*
X53400Y22300D02*
X55000D01*
X55275Y22575D01*
X50875Y22450D02*
X52350D01*
X53437Y23537D01*
X57737D01*
X58500Y24300D01*
X56305Y27100D02*
X57630Y25775D01*
X50875Y27100D02*
X56305D01*
X57630Y25775D02*
X58475D01*
X50875Y25550D02*
X52550D01*
X52832Y25832D01*
X61900Y29200D02*
Y33000D01*
Y29200D02*
X63200Y27900D01*
X63900D01*
X63400Y28700D02*
Y33000D01*
X61066Y28677D02*
X62893Y26850D01*
X57601Y28677D02*
X61066D01*
X57626Y27889D02*
X61359D01*
X62458Y25800D02*
X65800D01*
X61796Y26462D02*
X62458Y25800D01*
X57531Y26462D02*
X61796D01*
X62603Y26150D02*
X65945D01*
X61651Y27102D02*
X62603Y26150D01*
X57651Y27102D02*
X61651D01*
X66090Y26500D02*
X75140Y17450D01*
X62748Y26500D02*
X66090D01*
X61359Y27889D02*
X62748Y26500D01*
X66235Y26850D02*
X75285Y17800D01*
X62893Y26850D02*
X66235D01*
X66700Y27200D02*
X75300Y18600D01*
X63038Y27200D02*
X66700D01*
X58963Y31275D02*
X63038Y27200D01*
X55854Y28139D02*
X57531Y26462D01*
X75285Y17800D02*
X80645D01*
X75140Y17450D02*
X79495D01*
X76100Y13000D02*
X78050D01*
X76130Y14270D02*
X78050D01*
X81950Y15540D02*
Y16495D01*
X80645Y17800D02*
X81950Y16495D01*
X79495Y17450D02*
X80100Y16845D01*
X80900Y8200D02*
X81950Y9250D01*
X76500Y8200D02*
X80900D01*
X76640Y8555D02*
X78955D01*
X80200Y12800D02*
X80400Y13000D01*
X80200Y9800D02*
Y12800D01*
X78955Y8555D02*
X80200Y9800D01*
X80400Y13000D02*
X81950D01*
Y9250D02*
Y10460D01*
X78050Y9250D02*
Y10460D01*
Y15540D02*
Y16750D01*
X80430Y14270D02*
X81950D01*
X80100Y14600D02*
X80430Y14270D01*
X80100Y14600D02*
Y16845D01*
X33911Y16789D02*
X34900Y17778D01*
X37500Y13200D02*
X39628Y15328D01*
X36987Y13713D02*
X38952Y15677D01*
X36475Y14225D02*
X38277Y16028D01*
X35962Y14738D02*
X37602Y16378D01*
X35449Y15251D02*
X36926Y16728D01*
X34937Y15763D02*
X36251Y17078D01*
X34424Y16276D02*
X35576Y17428D01*
X53700Y34177D02*
X55645Y32233D01*
X53700Y34177D02*
Y35200D01*
X53650Y31275D02*
X58963D01*
X55365Y28139D02*
X55854D01*
X10599Y44900D02*
X15552D01*
X25730Y34722D01*
X61747Y4693D02*
X63500Y2940D01*
X10602Y14900D02*
Y26527D01*
X64800Y4180D02*
X66040Y2940D01*
X67285Y4235D02*
X68580Y2940D01*
X11913Y10663D02*
Y27076D01*
X10750Y9500D02*
X11913Y10663D01*
X49082Y24093D02*
X49175Y24000D01*
X46939Y9600D02*
X49750D01*
X36728Y2616D02*
X43062Y8950D01*
X49750D01*
X39395Y2642D02*
X45054Y8300D01*
X49750D01*
X47575Y7000D02*
X49750D01*
Y11550D02*
X49750Y11550D01*
X52850D01*
X44725Y3900D02*
X47175Y6350D01*
X44725Y2550D02*
Y3900D01*
X47175Y6350D02*
X49750D01*
X53250Y2425D02*
Y5950D01*
X51550Y7650D02*
X53250Y5950D01*
X49750Y7650D02*
X51550D01*
X49750Y5700D02*
X51650D01*
X49750Y5050D02*
X51350D01*
X47550Y4400D02*
X49750D01*
X51850Y32700D02*
X52900D01*
X54300Y23000D02*
X54300Y23000D01*
X55400Y21000D02*
X55400Y21000D01*
X55403Y19851D02*
X55424D01*
X60125Y29175D02*
X60214Y29264D01*
X60225Y22575D02*
X62900Y25250D01*
X55275Y22575D02*
X60225D01*
X16637Y45898D02*
Y49803D01*
X15240Y51200D02*
X16637Y49803D01*
X14127Y4052D02*
X15240Y2940D01*
X11430Y4210D02*
Y6255D01*
Y4210D02*
X12700Y2940D01*
X8890Y4210D02*
X10160Y2940D01*
X8890Y4210D02*
Y6477D01*
X9423Y7010D01*
X15240Y5480D02*
Y8580D01*
X14127Y4052D02*
Y7963D01*
X12700Y5480D02*
Y7030D01*
X9423Y7010D02*
X11151D01*
X55645Y32233D02*
X56254D01*
X60061Y29239D02*
X60125Y29175D01*
X57005Y29239D02*
X57005Y29239D01*
X57450D01*
X57451Y29239D01*
X60061D01*
X56397Y30652D02*
X57250Y29799D01*
X50875Y31750D02*
X52394D01*
X53492Y30652D02*
X56397D01*
X52394Y31750D02*
X53492Y30652D01*
X52050Y30875D02*
X52761D01*
X53812Y29823D01*
X55750D01*
X50875Y30200D02*
X52928D01*
X53888Y29239D01*
X57005D01*
X50902Y28677D02*
X56508D01*
X50875Y28650D02*
X50902Y28677D01*
X52832Y25832D02*
X56813D01*
X55518Y24000D02*
X56435Y24917D01*
X50875Y24000D02*
X55518D01*
X56435Y24917D02*
X59429D01*
X59597Y24750D01*
X60100D01*
X22550Y48265D02*
Y49500D01*
X9600Y38575D02*
X20875D01*
X29150Y29000D02*
X29896D01*
X22800Y16775D02*
Y21300D01*
Y16775D02*
X29325Y10250D01*
X49750D01*
X25300Y15800D02*
X30200Y10900D01*
X49750D01*
X21200Y15800D02*
Y21300D01*
X20875Y38575D02*
X25325Y34125D01*
X18975Y12810D02*
Y27272D01*
X17247Y29000D02*
X18975Y27272D01*
X18625Y12955D02*
Y26822D01*
X17247Y28200D02*
X18625Y26822D01*
X18275Y13100D02*
Y26372D01*
X17247Y27400D02*
X18275Y26372D01*
X17925Y13245D02*
Y25922D01*
X17247Y26600D02*
X17925Y25922D01*
X11151Y7010D02*
X17575Y13435D01*
Y25472D01*
X17247Y25800D02*
X17575Y25472D01*
X15240Y8580D02*
X19325Y12665D01*
X14127Y7963D02*
X18975Y12810D01*
X12700Y7030D02*
X18625Y12955D01*
X11430Y6255D02*
X18275Y13100D01*
X10160Y5480D02*
X17925Y13245D01*
X19325Y12665D02*
Y29925D01*
X22000Y32600D01*
X32550Y9600D02*
X46939D01*
X31160Y42700D02*
X32410Y41450D01*
X37050D01*
X37850Y40650D01*
Y40075D02*
Y40650D01*
X16525Y1850D02*
Y3600D01*
Y1850D02*
X16875Y1500D01*
X25350D01*
X16175Y3950D02*
X16525Y3600D01*
X16175Y3950D02*
Y4545D01*
X15240Y5480D02*
X16175Y4545D01*
X33325Y1500D02*
X37150Y5325D01*
X27050Y1500D02*
X33325D01*
X25300Y15800D02*
Y20275D01*
X25800Y20775D01*
X47675Y25550D02*
X49175D01*
X31100Y25800D02*
Y27300D01*
X22800Y21300D02*
X25525Y24025D01*
X22000Y21311D02*
X25064Y24375D01*
X32175D01*
X25525Y24025D02*
X32320D01*
X37300Y22084D02*
X40742D01*
X23600Y21311D02*
X25964Y23675D01*
X32465D01*
X44488Y20775D02*
X47807Y24093D01*
X25800Y20775D02*
X38977D01*
X38977Y20775D01*
X39423D01*
X39423Y20775D01*
X44488D01*
X32175Y24375D02*
X35250Y27450D01*
X32320Y24025D02*
X35395Y27100D01*
X35250Y27450D02*
X46450D01*
X47650Y28650D01*
X32465Y23675D02*
X35540Y26750D01*
X46475D01*
X47145Y22450D02*
X49175D01*
X26000Y20168D02*
X44863D01*
X47145Y22450D01*
X26800Y19510D02*
X45110D01*
X46500Y20900D01*
X49175D01*
X34900Y17778D02*
X62047D01*
X71120Y8705D01*
X35576Y17428D02*
X61903D01*
X69825Y9505D01*
X36251Y17078D02*
X61758D01*
X36926Y16728D02*
X61613D01*
X67285Y11055D01*
Y4235D02*
Y11055D01*
X37602Y16378D02*
X61468D01*
X66040Y11805D01*
Y5480D02*
Y11805D01*
X38277Y16028D02*
X61323D01*
X64800Y12550D01*
Y4180D02*
Y12550D01*
X38952Y15677D02*
X61178D01*
X63500Y13355D01*
Y5480D02*
Y13355D01*
X39628Y15328D02*
X61033D01*
X61747Y14613D01*
Y4693D02*
Y14613D01*
X33000Y27960D02*
X34015Y28975D01*
X44175D01*
X46950Y31750D01*
X51350Y3375D02*
Y5050D01*
X52158Y13120D02*
Y14025D01*
X52850Y11550D02*
X53934Y12634D01*
Y14050D01*
X75300Y9895D02*
X76640Y8555D01*
X75300Y9895D02*
Y16795D01*
X65945Y26150D02*
X75300Y16795D01*
X74950Y9750D02*
Y16650D01*
X65800Y25800D02*
X74950Y16650D01*
Y9750D02*
X76500Y8200D01*
X10602Y26527D02*
X17699Y33625D01*
X25659D01*
X26492Y32791D01*
X11913Y27076D02*
X18111Y33275D01*
X24875D01*
X29150Y29000D01*
X25325Y34125D02*
X26350D01*
X29896Y30579D01*
Y29800D02*
Y30579D01*
X48947Y2397D02*
X49750Y3200D01*
Y3750D01*
X51772Y878D02*
Y5578D01*
X51650Y5700D02*
X51772Y5578D01*
X50375Y2400D02*
X51350Y3375D01*
D46*
X61290Y53264D02*
X75500D01*
X76000Y52764D01*
Y51950D02*
Y52764D01*
X74610Y50250D02*
X76000D01*
X73660Y51200D02*
X74610Y50250D01*
X40742Y23784D02*
X40777Y23820D01*
X42326D01*
X59950Y51924D02*
X61290Y53264D01*
X59950Y50750D02*
Y51924D01*
X48850Y50750D02*
X50750D01*
X51000Y51000D01*
X59950Y47000D02*
Y50750D01*
X58100Y45150D02*
X59950Y47000D01*
X20320Y51200D02*
X22550D01*
D47*
X49750Y12200D02*
X51239D01*
X52158Y13120D01*
X47125Y12850D02*
X49750D01*
D48*
X50026Y30200D02*
D03*
X50026Y31750D02*
D03*
X26200Y1500D02*
D03*
D49*
X10160Y48660D02*
D03*
X63500D02*
D03*
X10160Y2940D02*
D03*
X63500D02*
D03*
X36240Y42700D02*
D03*
D50*
X57700Y47750D02*
D03*
X53300D02*
D03*
D51*
X46570Y42700D02*
D03*
X44030D02*
D03*
X20320Y48660D02*
D03*
Y51200D02*
D03*
X17780Y48660D02*
D03*
Y51200D02*
D03*
X15240Y48660D02*
D03*
Y51200D02*
D03*
X12700Y48660D02*
D03*
Y51200D02*
D03*
X10160D02*
D03*
X63500D02*
D03*
X66040D02*
D03*
Y48660D02*
D03*
X68580Y51200D02*
D03*
Y48660D02*
D03*
X71120Y51200D02*
D03*
Y48660D02*
D03*
X73660Y51200D02*
D03*
Y48660D02*
D03*
X10160Y5480D02*
D03*
X12700D02*
D03*
Y2940D02*
D03*
X15240Y5480D02*
D03*
Y2940D02*
D03*
X17780Y5480D02*
D03*
Y2940D02*
D03*
X20320Y5480D02*
D03*
Y2940D02*
D03*
X63500Y5480D02*
D03*
X66040D02*
D03*
Y2940D02*
D03*
X68580Y5480D02*
D03*
Y2940D02*
D03*
X71120Y5480D02*
D03*
Y2940D02*
D03*
X73660Y5480D02*
D03*
Y2940D02*
D03*
X67140Y20600D02*
D03*
X64600D02*
D03*
X31160Y42700D02*
D03*
Y40160D02*
D03*
X33700Y42700D02*
D03*
Y40160D02*
D03*
X36240D02*
D03*
D52*
X25400Y51200D02*
D03*
D53*
X2500Y2500D02*
D03*
Y51500D02*
D03*
X82500D02*
D03*
Y2500D02*
D03*
D54*
X76075Y25000D02*
D03*
Y29000D02*
D03*
X79075D02*
D03*
Y25000D02*
D03*
Y27000D02*
D03*
D55*
X53725Y40500D02*
D03*
X53725Y42000D02*
D03*
X75125Y37275D02*
D03*
X82575Y38500D02*
D03*
X22800Y32600D02*
D03*
X23600D02*
D03*
X49745Y34680D02*
D03*
X49250Y35175D02*
D03*
X47650Y25575D02*
D03*
X45675Y33375D02*
D03*
X47625Y27100D02*
D03*
X46675Y33350D02*
D03*
X44575Y33375D02*
D03*
X47650Y33350D02*
D03*
X55000Y35200D02*
D03*
X31900Y26600D02*
D03*
X33000Y27400D02*
D03*
X59400Y21200D02*
D03*
X47807Y24093D02*
D03*
X47650Y28650D02*
D03*
X53400Y22300D02*
D03*
X58500Y24300D02*
D03*
X70200Y25700D02*
D03*
X22800Y21300D02*
D03*
X63900Y27900D02*
D03*
X63400Y28700D02*
D03*
X75300Y18600D02*
D03*
X76100Y13000D02*
D03*
X76130Y14270D02*
D03*
X78050Y9250D02*
D03*
Y16750D02*
D03*
X37300Y22084D02*
D03*
X53700Y35200D02*
D03*
X53650Y31275D02*
D03*
X57601Y28677D02*
D03*
X57626Y27889D02*
D03*
X57651Y27102D02*
D03*
X55365Y28139D02*
D03*
X25730Y34722D02*
D03*
X10599Y44900D02*
D03*
X26492Y32791D02*
D03*
X10602Y14900D02*
D03*
X29896Y29800D02*
D03*
Y29000D02*
D03*
X34000Y28200D02*
D03*
X33911Y16789D02*
D03*
X34424Y16276D02*
D03*
X34937Y15763D02*
D03*
X35449Y15251D02*
D03*
X35962Y14738D02*
D03*
X36475Y14225D02*
D03*
X36987Y13713D02*
D03*
X37500Y13200D02*
D03*
X49441Y14790D02*
D03*
X55134Y14056D02*
D03*
X43773Y14037D02*
D03*
X46939Y9600D02*
D03*
X36728Y2616D02*
D03*
X40605Y822D02*
D03*
X39395Y2642D02*
D03*
X47575Y7000D02*
D03*
X46122Y778D02*
D03*
X42125Y825D02*
D03*
X44725Y2550D02*
D03*
X53250Y2425D02*
D03*
X55575Y1600D02*
D03*
X19950Y31425D02*
D03*
X18825Y34150D02*
D03*
X10025Y10950D02*
D03*
Y40950D02*
D03*
X7425Y44900D02*
D03*
X2200Y42000D02*
D03*
Y12000D02*
D03*
X51850Y32700D02*
D03*
X65525Y23300D02*
D03*
X41550Y38300D02*
D03*
X71300Y45465D02*
D03*
Y38315D02*
D03*
X72465Y41890D02*
D03*
X65000Y43000D02*
D03*
Y45465D02*
D03*
X58100Y45150D02*
D03*
X69628Y41890D02*
D03*
X68153D02*
D03*
X66603D02*
D03*
X63830Y44180D02*
D03*
X60125Y39425D02*
D03*
X53900Y43550D02*
D03*
X54900Y43000D02*
D03*
X48850Y50750D02*
D03*
X56250Y34150D02*
D03*
X54300Y23000D02*
D03*
X55400Y21000D02*
D03*
X57900Y19850D02*
D03*
X55403Y19851D02*
D03*
X60975Y19850D02*
D03*
X51850Y29450D02*
D03*
X64900Y32300D02*
D03*
X60214Y29264D02*
D03*
X62750Y30850D02*
D03*
X60750Y31050D02*
D03*
X54300Y32200D02*
D03*
X54950Y34150D02*
D03*
X57550D02*
D03*
X60375Y41925D02*
D03*
X62750Y29750D02*
D03*
X62900Y25250D02*
D03*
X22550Y5850D02*
D03*
X22575Y2150D02*
D03*
X42276Y25445D02*
D03*
X42326Y23820D02*
D03*
X16637Y45898D02*
D03*
X17247Y27400D02*
D03*
Y26600D02*
D03*
Y25800D02*
D03*
Y28200D02*
D03*
Y29000D02*
D03*
X57753Y24359D02*
D03*
X58475Y25775D02*
D03*
X60999Y20950D02*
D03*
X55750Y29823D02*
D03*
X57250Y29799D02*
D03*
X56508Y28677D02*
D03*
X60100Y24750D02*
D03*
X56813Y25832D02*
D03*
X22550Y48265D02*
D03*
X22000Y21311D02*
D03*
X23600D02*
D03*
X24400D02*
D03*
X26800Y19510D02*
D03*
X26000Y20168D02*
D03*
X29900Y22890D02*
D03*
X83275Y29050D02*
D03*
X81875Y31525D02*
D03*
Y22400D02*
D03*
X83275Y24825D02*
D03*
X22000Y32600D02*
D03*
X21200Y15800D02*
D03*
Y21300D02*
D03*
X25300Y15800D02*
D03*
X37913Y2613D02*
D03*
X32550Y9600D02*
D03*
X37850Y40075D02*
D03*
X37150Y5325D02*
D03*
X30715Y25000D02*
D03*
X31100Y25800D02*
D03*
X39200Y21312D02*
D03*
X81200Y32275D02*
D03*
X75475D02*
D03*
D65*
X78050Y14270D02*
D03*
Y13000D02*
D03*
Y11730D02*
D03*
X81950D02*
D03*
Y14270D02*
D03*
Y13000D02*
D03*
Y15540D02*
D03*
X78050D02*
D03*
Y10460D02*
D03*
X81950D02*
D03*
D66*
X49750Y12850D02*
D03*
Y12200D02*
D03*
Y11550D02*
D03*
Y10900D02*
D03*
Y10250D02*
D03*
Y9600D02*
D03*
Y8950D02*
D03*
Y8300D02*
D03*
Y7650D02*
D03*
Y7000D02*
D03*
Y6350D02*
D03*
Y5700D02*
D03*
Y5050D02*
D03*
Y4400D02*
D03*
Y3750D02*
D03*
D67*
X52900Y32700D02*
D03*
X76700Y36000D02*
D03*
X51000Y50750D02*
D03*
X59950D02*
D03*
D68*
X22550Y50351D02*
D03*
X40742Y22939D02*
D03*
X76000Y51100D02*
D03*
D69*
X51772Y878D02*
D03*
X50375D02*
D03*
X48947D02*
D03*
X9600Y38575D02*
D03*
X10750Y9500D02*
D03*
X47550Y4400D02*
D03*
X52050Y30875D02*
D03*
X7850Y10950D02*
D03*
X7425Y14900D02*
D03*
X7850Y40950D02*
D03*
X51025Y47950D02*
D03*
X46136Y40200D02*
D03*
X50200Y39500D02*
D03*
X51200Y41050D02*
D03*
X46250Y38150D02*
D03*
X56200Y36025D02*
D03*
X56254Y32233D02*
D03*
X47125Y12850D02*
D03*
X52158Y14025D02*
D03*
X53934Y14050D02*
D03*
X21175Y35075D02*
D03*
X56650Y18625D02*
D03*
M02*
