%FSLAX43Y43*%
%MOMM*%
G71*
G01*
G75*
G04 Layer_Physical_Order=2*
G04 Layer_Color=32768*
%ADD10R,2.500X1.200*%
%ADD11R,0.800X0.650*%
%ADD12R,0.900X0.600*%
%ADD13R,1.350X1.500*%
%ADD14R,0.762X0.762*%
%ADD15R,0.700X0.700*%
%ADD16O,0.550X1.750*%
%ADD17O,1.750X0.550*%
%ADD18R,0.600X0.900*%
%ADD19R,0.650X0.800*%
%ADD20R,1.200X1.200*%
%ADD21R,1.000X2.250*%
%ADD22R,1.150X1.350*%
%ADD23R,2.000X2.500*%
%ADD24R,0.500X2.300*%
%ADD25R,1.500X3.280*%
%ADD26R,1.500X0.990*%
%ADD27R,0.950X1.750*%
%ADD28R,1.100X1.000*%
%ADD29R,1.100X0.600*%
%ADD30R,1.500X0.800*%
%ADD31R,1.300X0.600*%
%ADD32R,1.300X1.600*%
%ADD33O,0.300X1.700*%
%ADD34O,1.700X0.300*%
%ADD35R,0.800X1.000*%
%ADD36R,1.000X1.000*%
%ADD37R,0.950X1.000*%
%ADD38R,1.000X0.950*%
%ADD39O,0.700X0.250*%
%ADD40O,0.250X0.700*%
%ADD41R,1.400X3.000*%
%ADD42R,2.000X8.000*%
%ADD43C,0.175*%
%ADD44C,0.230*%
%ADD45C,0.150*%
%ADD46C,0.300*%
%ADD47C,0.200*%
%ADD48R,0.900X0.300*%
%ADD49R,1.700X1.700*%
%ADD50C,0.500*%
%ADD51C,1.700*%
%ADD52C,2.000*%
%ADD53C,3.600*%
%ADD54C,1.300*%
%ADD55C,0.550*%
%ADD56C,0.500*%
%ADD57C,1.600*%
%ADD58C,1.500*%
G04:AMPARAMS|DCode=59|XSize=2.524mm|YSize=2.524mm|CornerRadius=0mm|HoleSize=0mm|Usage=FLASHONLY|Rotation=0.000|XOffset=0mm|YOffset=0mm|HoleType=Round|Shape=Relief|Width=0.254mm|Gap=0.254mm|Entries=4|*
%AMTHD59*
7,0,0,2.524,2.016,0.254,45*
%
%ADD59THD59*%
%ADD60C,2.600*%
G04:AMPARAMS|DCode=61|XSize=4.624mm|YSize=4.624mm|CornerRadius=0mm|HoleSize=0mm|Usage=FLASHONLY|Rotation=0.000|XOffset=0mm|YOffset=0mm|HoleType=Round|Shape=Relief|Width=0.254mm|Gap=0.254mm|Entries=4|*
%AMTHD61*
7,0,0,4.624,4.116,0.254,45*
%
%ADD61THD61*%
G04:AMPARAMS|DCode=62|XSize=2.424mm|YSize=2.424mm|CornerRadius=0mm|HoleSize=0mm|Usage=FLASHONLY|Rotation=0.000|XOffset=0mm|YOffset=0mm|HoleType=Round|Shape=Relief|Width=0.254mm|Gap=0.254mm|Entries=4|*
%AMTHD62*
7,0,0,2.424,1.916,0.254,45*
%
%ADD62THD62*%
%ADD63C,0.850*%
G36*
X59625Y2550D02*
X56125D01*
Y14050D01*
X59625D01*
Y2550D01*
D02*
G37*
D56*
Y14050D01*
X56125Y2550D02*
X59625D01*
X56125D02*
Y14050D01*
X59625D01*
X85000Y0D02*
Y54000D01*
X36200D02*
X85000D01*
X36200Y46700D02*
Y54000D01*
X31200Y46700D02*
X36200D01*
X31200D02*
Y54000D01*
X0D02*
X31200D01*
X0Y0D02*
Y54000D01*
Y0D02*
X85000D01*
D57*
X46570Y42700D02*
D03*
X44030D02*
D03*
X20320Y51200D02*
D03*
X17780Y48660D02*
D03*
Y51200D02*
D03*
X15240Y48660D02*
D03*
Y51200D02*
D03*
X12700Y48660D02*
D03*
Y51200D02*
D03*
X10160D02*
D03*
Y48660D02*
D03*
X63500D02*
D03*
Y51200D02*
D03*
X66040D02*
D03*
Y48660D02*
D03*
X68580Y51200D02*
D03*
Y48660D02*
D03*
X71120Y51200D02*
D03*
Y48660D02*
D03*
X73660Y51200D02*
D03*
X10160Y2940D02*
D03*
Y5480D02*
D03*
X12700D02*
D03*
Y2940D02*
D03*
X15240Y5480D02*
D03*
Y2940D02*
D03*
X17780Y5480D02*
D03*
Y2940D02*
D03*
X20320Y5480D02*
D03*
X63500Y2940D02*
D03*
Y5480D02*
D03*
X66040D02*
D03*
Y2940D02*
D03*
X68580Y5480D02*
D03*
Y2940D02*
D03*
X71120Y5480D02*
D03*
Y2940D02*
D03*
X73660Y5480D02*
D03*
X64600Y20600D02*
D03*
X31160Y42700D02*
D03*
X33700D02*
D03*
Y40160D02*
D03*
X36240D02*
D03*
Y42700D02*
D03*
D58*
X57700Y47750D02*
D03*
X53300D02*
D03*
X76075Y29000D02*
D03*
X79075D02*
D03*
Y25000D02*
D03*
D59*
X20320Y48660D02*
D03*
X73660D02*
D03*
X20320Y2940D02*
D03*
X73660D02*
D03*
X67140Y20600D02*
D03*
X31160Y40160D02*
D03*
D60*
X25400Y51200D02*
D03*
D61*
X2500Y2500D02*
D03*
Y51500D02*
D03*
X82500D02*
D03*
Y2500D02*
D03*
D62*
X76075Y25000D02*
D03*
X79075Y27000D02*
D03*
D63*
X53725Y40500D02*
D03*
X53725Y42000D02*
D03*
X75125Y37275D02*
D03*
X82575Y38500D02*
D03*
X22800Y32600D02*
D03*
X23600D02*
D03*
X49745Y34680D02*
D03*
X49250Y35175D02*
D03*
X51772Y878D02*
D03*
X50375D02*
D03*
X48947D02*
D03*
X47650Y25575D02*
D03*
X45675Y33375D02*
D03*
X47625Y27100D02*
D03*
X46675Y33350D02*
D03*
X44575Y33375D02*
D03*
X47650Y33350D02*
D03*
X55000Y35200D02*
D03*
X31900Y26600D02*
D03*
X33000Y27400D02*
D03*
X59400Y21200D02*
D03*
X47807Y24093D02*
D03*
X47650Y28650D02*
D03*
X53400Y22300D02*
D03*
X58500Y24300D02*
D03*
X70200Y25700D02*
D03*
X22800Y21300D02*
D03*
X63900Y27900D02*
D03*
X63400Y28700D02*
D03*
X75300Y18600D02*
D03*
X76100Y13000D02*
D03*
X76130Y14270D02*
D03*
X37300Y22084D02*
D03*
X53700Y35200D02*
D03*
X53650Y31275D02*
D03*
X57601Y28677D02*
D03*
X57626Y27889D02*
D03*
X57651Y27102D02*
D03*
X55365Y28139D02*
D03*
X25730Y34722D02*
D03*
X10599Y44900D02*
D03*
X26492Y32791D02*
D03*
X10602Y14900D02*
D03*
X9600Y38575D02*
D03*
X29896Y29800D02*
D03*
Y29000D02*
D03*
X10750Y9500D02*
D03*
X34000Y28200D02*
D03*
X33911Y16789D02*
D03*
X34424Y16276D02*
D03*
X34937Y15763D02*
D03*
X35449Y15251D02*
D03*
X35962Y14738D02*
D03*
X36475Y14225D02*
D03*
X36987Y13713D02*
D03*
X37500Y13200D02*
D03*
X46939Y9600D02*
D03*
X36728Y2616D02*
D03*
X40605Y822D02*
D03*
X39395Y2642D02*
D03*
X44725Y2550D02*
D03*
X53250Y2425D02*
D03*
X47550Y4400D02*
D03*
X52050Y30875D02*
D03*
X18825Y34150D02*
D03*
X7850Y10950D02*
D03*
X10025Y10950D02*
D03*
Y40950D02*
D03*
X7425Y44900D02*
D03*
Y14900D02*
D03*
X7850Y40950D02*
D03*
X51850Y32700D02*
D03*
X51025Y47950D02*
D03*
X46136Y40200D02*
D03*
X71300Y45465D02*
D03*
Y38315D02*
D03*
X72465Y41890D02*
D03*
X58100Y45150D02*
D03*
X69628Y41890D02*
D03*
X68153D02*
D03*
X66603D02*
D03*
X50200Y39500D02*
D03*
X51200Y41050D02*
D03*
X46250Y38150D02*
D03*
X56200Y36025D02*
D03*
X55400Y21000D02*
D03*
X60214Y29264D02*
D03*
X54300Y32200D02*
D03*
X62750Y29750D02*
D03*
X62900Y25250D02*
D03*
X22550Y5850D02*
D03*
X42276Y25445D02*
D03*
X42326Y23820D02*
D03*
X16637Y45898D02*
D03*
X17247Y27400D02*
D03*
Y26600D02*
D03*
Y25800D02*
D03*
Y28200D02*
D03*
Y29000D02*
D03*
X56254Y32233D02*
D03*
X58475Y25775D02*
D03*
X60999Y20950D02*
D03*
X55750Y29823D02*
D03*
X57250Y29799D02*
D03*
X56508Y28677D02*
D03*
X60100Y24750D02*
D03*
X56813Y25832D02*
D03*
X22550Y48265D02*
D03*
X22000Y21311D02*
D03*
X23600D02*
D03*
X24400D02*
D03*
X26800Y19510D02*
D03*
X26000Y20168D02*
D03*
X29900Y22890D02*
D03*
X22000Y32600D02*
D03*
X21200Y15800D02*
D03*
Y21300D02*
D03*
X25300Y15800D02*
D03*
X37913Y2613D02*
D03*
X32550Y9600D02*
D03*
X37850Y40075D02*
D03*
X37150Y5325D02*
D03*
X31100Y25800D02*
D03*
X81200Y32275D02*
D03*
X75475D02*
D03*
X47125Y12850D02*
D03*
X52158Y14025D02*
D03*
X53934Y14050D02*
D03*
X21175Y35075D02*
D03*
X56650Y18625D02*
D03*
M02*
